<ttFont>
    <TTGlyph name=".notdef" xMin="47" yMin="23" xMax="465" yMax="458">
      <contour>
        <pt x="47" y="23" on="1"/>
        <pt x="47" y="458" on="1"/>
        <pt x="465" y="458" on="1"/>
        <pt x="465" y="23" on="1"/>
      </contour>
      <contour>
        <pt x="154" y="344" on="1"/>
        <pt x="154" y="138" on="1"/>
        <pt x="361" y="138" on="1"/>
        <pt x="361" y="344" on="1"/>
      </contour>
    </TTGlyph>
    <TTGlyph name="A" xMin="-20" yMin="0" xMax="742" yMax="686">
      <contour>
        <pt x="409" y="256" on="1"/>
        <pt x="331" y="466" on="1"/>
        <pt x="252" y="256" on="1"/>
      </contour>
      <contour>
        <pt x="-14" y="0" on="1"/>
        <pt x="-20" y="32" on="1"/>
        <pt x="-1" y="45" on="0"/>
        <pt x="41" y="68" on="0"/>
        <pt x="64" y="78" on="1"/>
        <pt x="278" y="605" on="1"/>
        <pt x="263" y="646" on="1"/>
        <pt x="419" y="686" on="1"/>
        <pt x="670" y="64" on="1"/>
        <pt x="742" y="53" on="1"/>
        <pt x="741" y="0" on="1"/>
        <pt x="402" y="0" on="1"/>
        <pt x="396" y="32" on="1"/>
        <pt x="414" y="45" on="0"/>
        <pt x="454" y="67" on="0"/>
        <pt x="476" y="77" on="1"/>
        <pt x="441" y="172" on="1"/>
        <pt x="221" y="172" on="1"/>
        <pt x="181" y="67" on="1"/>
        <pt x="267" y="53" on="1"/>
        <pt x="266" y="0" on="1"/>
      </contour>
    </TTGlyph>
    <TTGlyph name="AE" xMin="-2" yMin="0" xMax="925" yMax="662">
      <contour>
        <pt x="439" y="256" on="1"/>
        <pt x="439" y="537" on="1"/>
        <pt x="297" y="256" on="1"/>
      </contour>
      <contour>
        <pt x="4" y="0" on="1"/>
        <pt x="-2" y="34" on="1"/>
        <pt x="18" y="49" on="0"/>
        <pt x="79" y="78" on="0"/>
        <pt x="95" y="86" on="1"/>
        <pt x="362" y="598" on="1"/>
        <pt x="289" y="609" on="1"/>
        <pt x="290" y="662" on="1"/>
        <pt x="918" y="662" on="1"/>
        <pt x="920" y="630" on="0"/>
        <pt x="910" y="510" on="0"/>
        <pt x="900" y="460" on="1"/>
        <pt x="800" y="460" on="1"/>
        <pt x="782" y="561" on="1"/>
        <pt x="614" y="571" on="1"/>
        <pt x="614" y="370" on="1"/>
        <pt x="829" y="388" on="1"/>
        <pt x="829" y="280" on="1"/>
        <pt x="614" y="289" on="1"/>
        <pt x="614" y="98" on="1"/>
        <pt x="789" y="108" on="1"/>
        <pt x="825" y="216" on="1"/>
        <pt x="924" y="208" on="1"/>
        <pt x="925" y="165" on="0"/>
        <pt x="918" y="44" on="0"/>
        <pt x="912" y="0" on="1"/>
        <pt x="900" y="1" on="1"/>
        <pt x="900" y="0" on="1"/>
        <pt x="360" y="0" on="1"/>
        <pt x="354" y="34" on="1"/>
        <pt x="370" y="47" on="0"/>
        <pt x="420" y="71" on="0"/>
        <pt x="439" y="80" on="1"/>
        <pt x="439" y="172" on="1"/>
        <pt x="255" y="172" on="1"/>
        <pt x="201" y="66" on="1"/>
        <pt x="285" y="53" on="1"/>
        <pt x="284" y="0" on="1"/>
      </contour>
    </TTGlyph>
    <TTGlyph name="Aacute" xMin="-20" yMin="0" xMax="742" yMax="910">
      <component glyphName="A" x="0" y="0" flags="0x204"/>
      <component glyphName="acutecomb.case" x="353" y="0" flags="0x4"/>
    </TTGlyph>
    <TTGlyph name="Abreve" xMin="-20" yMin="0" xMax="742" yMax="885">
      <component glyphName="A" x="0" y="0" flags="0x204"/>
      <component glyphName="uni0306.case" x="355" y="0" flags="0x4"/>
    </TTGlyph>
    <TTGlyph name="Acircumflex" xMin="-20" yMin="0" xMax="742" yMax="926">
      <component glyphName="A" x="0" y="0" flags="0x204"/>
      <component glyphName="uni0302.case" x="354" y="105" flags="0x4"/>
    </TTGlyph>
    <TTGlyph name="Adieresis" xMin="-20" yMin="0" xMax="742" yMax="916">
      <component glyphName="A" x="0" y="0" flags="0x204"/>
      <component glyphName="uni0308.case" x="354" y="177" flags="0x4"/>
    </TTGlyph>
    <TTGlyph name="Agrave" xMin="-20" yMin="0" xMax="742" yMax="910">
      <component glyphName="A" x="0" y="0" flags="0x204"/>
      <component glyphName="gravecomb.case" x="355" y="0" flags="0x4"/>
    </TTGlyph>
    <TTGlyph name="Amacron" xMin="-20" yMin="0" xMax="742" yMax="841">
      <component glyphName="A" x="0" y="0" flags="0x204"/>
      <component glyphName="uni0304.case" x="353" y="0" flags="0x4"/>
    </TTGlyph>
    <TTGlyph name="Aogonek" xMin="-20" yMin="-291" xMax="742" yMax="686">
      <component glyphName="A" x="0" y="0" flags="0x204"/>
      <component glyphName="uni0328.case" x="696" y="-9" flags="0x4"/>
    </TTGlyph>
    <TTGlyph name="Aring" xMin="-20" yMin="0" xMax="742" yMax="956">
      <component glyphName="A" x="0" y="0" flags="0x204"/>
      <component glyphName="uni030A.case" x="354" y="0" flags="0x4"/>
    </TTGlyph>
    <TTGlyph name="Atilde" xMin="-20" yMin="0" xMax="742" yMax="902">
      <component glyphName="A" x="0" y="0" flags="0x204"/>
      <component glyphName="tildecomb.case" x="354" y="0" flags="0x4"/>
    </TTGlyph>
    <TTGlyph name="B" xMin="24" yMin="0" xMax="662" yMax="670">
      <contour>
        <pt x="386" y="583" on="1"/>
        <pt x="290" y="568" on="1"/>
        <pt x="290" y="380" on="1"/>
        <pt x="335" y="380" on="1"/>
        <pt x="398" y="380" on="0"/>
        <pt x="453" y="441" on="0"/>
        <pt x="453" y="478" on="1"/>
        <pt x="453" y="511" on="0"/>
        <pt x="417" y="574" on="0"/>
      </contour>
      <contour>
        <pt x="360" y="85" on="1"/>
        <pt x="419" y="79" on="0"/>
        <pt x="476" y="147" on="0"/>
        <pt x="476" y="188" on="1"/>
        <pt x="476" y="231" on="0"/>
        <pt x="415" y="308" on="0"/>
        <pt x="364" y="308" on="1"/>
        <pt x="290" y="308" on="1"/>
        <pt x="290" y="93" on="1"/>
      </contour>
      <contour>
        <pt x="30" y="0" on="1"/>
        <pt x="24" y="32" on="1"/>
        <pt x="43" y="45" on="0"/>
        <pt x="86" y="69" on="0"/>
        <pt x="109" y="79" on="1"/>
        <pt x="109" y="599" on="1"/>
        <pt x="38" y="609" on="1"/>
        <pt x="39" y="662" on="1"/>
        <pt x="74" y="664" on="0"/>
        <pt x="165" y="667" on="0"/>
        <pt x="257" y="669" on="0"/>
        <pt x="344" y="670" on="0"/>
        <pt x="377" y="670" on="1"/>
        <pt x="507" y="670" on="0"/>
        <pt x="633" y="562" on="0"/>
        <pt x="633" y="499" on="1"/>
        <pt x="633" y="455" on="0"/>
        <pt x="572" y="364" on="0"/>
        <pt x="509" y="350" on="1"/>
        <pt x="584" y="335" on="0"/>
        <pt x="662" y="241" on="0"/>
        <pt x="662" y="184" on="1"/>
        <pt x="662" y="115" on="0"/>
        <pt x="536" y="0" on="0"/>
        <pt x="382" y="0" on="1"/>
      </contour>
    </TTGlyph>
    <TTGlyph name="C" xMin="9" yMin="-21" xMax="589" yMax="682">
      <contour>
        <pt x="379" y="-17" on="1"/>
        <pt x="275" y="-21" on="0"/>
        <pt x="132" y="39" on="0"/>
        <pt x="46" y="138" on="0"/>
        <pt x="9" y="262" on="0"/>
        <pt x="9" y="322" on="1"/>
        <pt x="9" y="389" on="0"/>
        <pt x="52" y="519" on="0"/>
        <pt x="138" y="620" on="0"/>
        <pt x="271" y="682" on="0"/>
        <pt x="359" y="682" on="1"/>
        <pt x="436" y="682" on="0"/>
        <pt x="538" y="640" on="0"/>
        <pt x="570" y="617" on="1"/>
        <pt x="573" y="586" on="0"/>
        <pt x="558" y="467" on="0"/>
        <pt x="546" y="425" on="1"/>
        <pt x="438" y="425" on="1"/>
        <pt x="408" y="559" on="1"/>
        <pt x="379" y="570" on="0"/>
        <pt x="315" y="585" on="0"/>
        <pt x="278" y="586" on="1"/>
        <pt x="232" y="545" on="0"/>
        <pt x="191" y="414" on="0"/>
        <pt x="191" y="348" on="1"/>
        <pt x="191" y="244" on="0"/>
        <pt x="291" y="98" on="0"/>
        <pt x="391" y="100" on="1"/>
        <pt x="561" y="154" on="1"/>
        <pt x="589" y="72" on="1"/>
      </contour>
    </TTGlyph>
    <TTGlyph name="Cacute" xMin="9" yMin="-21" xMax="589" yMax="910">
      <component glyphName="C" x="0" y="0" flags="0x204"/>
      <component glyphName="acutecomb.case" x="333" y="0" flags="0x4"/>
    </TTGlyph>
    <TTGlyph name="Ccaron" xMin="9" yMin="-21" xMax="589" yMax="921">
      <component glyphName="C" x="0" y="0" flags="0x204"/>
      <component glyphName="uni030C.case" x="334" y="105" flags="0x4"/>
    </TTGlyph>
    <TTGlyph name="Ccedilla" xMin="9" yMin="-271" xMax="589" yMax="682">
      <component glyphName="C" x="0" y="0" flags="0x204"/>
      <component glyphName="uni0327.case" x="334" y="0" flags="0x4"/>
    </TTGlyph>
    <TTGlyph name="D" xMin="24" yMin="0" xMax="721" yMax="670">
      <contour>
        <pt x="357" y="92" on="1"/>
        <pt x="402" y="92" on="0"/>
        <pt x="468" y="133" on="0"/>
        <pt x="511" y="200" on="0"/>
        <pt x="532" y="285" on="0"/>
        <pt x="532" y="328" on="1"/>
        <pt x="532" y="406" on="0"/>
        <pt x="469" y="549" on="0"/>
        <pt x="416" y="583" on="1"/>
        <pt x="290" y="568" on="1"/>
        <pt x="290" y="102" on="1"/>
        <pt x="308" y="97" on="0"/>
        <pt x="342" y="92" on="0"/>
      </contour>
      <contour>
        <pt x="30" y="0" on="1"/>
        <pt x="24" y="32" on="1"/>
        <pt x="43" y="45" on="0"/>
        <pt x="86" y="69" on="0"/>
        <pt x="109" y="79" on="1"/>
        <pt x="109" y="599" on="1"/>
        <pt x="38" y="609" on="1"/>
        <pt x="39" y="662" on="1"/>
        <pt x="123" y="666" on="0"/>
        <pt x="288" y="670" on="0"/>
        <pt x="372" y="670" on="1"/>
        <pt x="458" y="670" on="0"/>
        <pt x="590" y="611" on="0"/>
        <pt x="677" y="517" on="0"/>
        <pt x="721" y="397" on="0"/>
        <pt x="721" y="337" on="1"/>
        <pt x="721" y="272" on="0"/>
        <pt x="678" y="150" on="0"/>
        <pt x="591" y="57" on="0"/>
        <pt x="458" y="0" on="0"/>
        <pt x="368" y="0" on="1"/>
      </contour>
    </TTGlyph>
    <TTGlyph name="Dcaron" xMin="24" yMin="0" xMax="721" yMax="921">
      <component glyphName="D" x="0" y="0" flags="0x204"/>
      <component glyphName="uni030C.case" x="361" y="105" flags="0x4"/>
    </TTGlyph>
    <TTGlyph name="Dcroat" xMin="13" yMin="0" xMax="721" yMax="670">
      <contour>
        <pt x="357" y="92" on="1"/>
        <pt x="402" y="92" on="0"/>
        <pt x="468" y="133" on="0"/>
        <pt x="511" y="200" on="0"/>
        <pt x="532" y="285" on="0"/>
        <pt x="532" y="328" on="1"/>
        <pt x="532" y="406" on="0"/>
        <pt x="469" y="549" on="0"/>
        <pt x="416" y="583" on="1"/>
        <pt x="290" y="568" on="1"/>
        <pt x="290" y="346" on="1"/>
        <pt x="418" y="346" on="1"/>
        <pt x="424" y="311" on="1"/>
        <pt x="381" y="268" on="1"/>
        <pt x="290" y="268" on="1"/>
        <pt x="290" y="102" on="1"/>
        <pt x="308" y="97" on="0"/>
        <pt x="342" y="92" on="0"/>
      </contour>
      <contour>
        <pt x="30" y="0" on="1"/>
        <pt x="24" y="32" on="1"/>
        <pt x="43" y="45" on="0"/>
        <pt x="86" y="69" on="0"/>
        <pt x="109" y="79" on="1"/>
        <pt x="109" y="268" on="1"/>
        <pt x="19" y="268" on="1"/>
        <pt x="13" y="303" on="1"/>
        <pt x="56" y="346" on="1"/>
        <pt x="109" y="346" on="1"/>
        <pt x="109" y="599" on="1"/>
        <pt x="38" y="609" on="1"/>
        <pt x="39" y="662" on="1"/>
        <pt x="123" y="666" on="0"/>
        <pt x="288" y="670" on="0"/>
        <pt x="372" y="670" on="1"/>
        <pt x="458" y="670" on="0"/>
        <pt x="590" y="611" on="0"/>
        <pt x="677" y="517" on="0"/>
        <pt x="721" y="397" on="0"/>
        <pt x="721" y="337" on="1"/>
        <pt x="721" y="272" on="0"/>
        <pt x="678" y="150" on="0"/>
        <pt x="591" y="57" on="0"/>
        <pt x="458" y="0" on="0"/>
        <pt x="368" y="0" on="1"/>
      </contour>
    </TTGlyph>
    <TTGlyph name="E" xMin="24" yMin="0" xMax="594" yMax="662">
      <contour>
        <pt x="30" y="0" on="1"/>
        <pt x="24" y="32" on="1"/>
        <pt x="43" y="45" on="0"/>
        <pt x="86" y="69" on="0"/>
        <pt x="109" y="79" on="1"/>
        <pt x="109" y="598" on="1"/>
        <pt x="34" y="609" on="1"/>
        <pt x="35" y="662" on="1"/>
        <pt x="588" y="662" on="1"/>
        <pt x="590" y="630" on="0"/>
        <pt x="580" y="510" on="0"/>
        <pt x="570" y="460" on="1"/>
        <pt x="470" y="460" on="1"/>
        <pt x="452" y="562" on="1"/>
        <pt x="290" y="573" on="1"/>
        <pt x="290" y="371" on="1"/>
        <pt x="499" y="388" on="1"/>
        <pt x="499" y="280" on="1"/>
        <pt x="290" y="289" on="1"/>
        <pt x="290" y="93" on="1"/>
        <pt x="458" y="106" on="1"/>
        <pt x="494" y="216" on="1"/>
        <pt x="593" y="208" on="1"/>
        <pt x="594" y="165" on="0"/>
        <pt x="587" y="44" on="0"/>
        <pt x="581" y="0" on="1"/>
        <pt x="580" y="0" on="1"/>
        <pt x="580" y="0" on="1"/>
      </contour>
    </TTGlyph>
    <TTGlyph name="Eacute" xMin="24" yMin="0" xMax="594" yMax="910">
      <component glyphName="E" x="0" y="0" flags="0x204"/>
      <component glyphName="acutecomb.case" x="321" y="0" flags="0x4"/>
    </TTGlyph>
    <TTGlyph name="Ecaron" xMin="24" yMin="0" xMax="594" yMax="921">
      <component glyphName="E" x="0" y="0" flags="0x204"/>
      <component glyphName="uni030C.case" x="322" y="105" flags="0x4"/>
    </TTGlyph>
    <TTGlyph name="Ecircumflex" xMin="24" yMin="0" xMax="594" yMax="926">
      <component glyphName="E" x="0" y="0" flags="0x204"/>
      <component glyphName="uni0302.case" x="322" y="105" flags="0x4"/>
    </TTGlyph>
    <TTGlyph name="Edieresis" xMin="24" yMin="0" xMax="594" yMax="916">
      <component glyphName="E" x="0" y="0" flags="0x204"/>
      <component glyphName="uni0308.case" x="322" y="177" flags="0x4"/>
    </TTGlyph>
    <TTGlyph name="Edotaccent" xMin="24" yMin="0" xMax="594" yMax="916">
      <component glyphName="E" x="0" y="0" flags="0x204"/>
      <component glyphName="uni0307.case" x="322" y="177" flags="0x4"/>
    </TTGlyph>
    <TTGlyph name="Egrave" xMin="24" yMin="0" xMax="594" yMax="910">
      <component glyphName="E" x="0" y="0" flags="0x204"/>
      <component glyphName="gravecomb.case" x="323" y="0" flags="0x4"/>
    </TTGlyph>
    <TTGlyph name="Emacron" xMin="24" yMin="0" xMax="594" yMax="841">
      <component glyphName="E" x="0" y="0" flags="0x204"/>
      <component glyphName="uni0304.case" x="321" y="0" flags="0x4"/>
    </TTGlyph>
    <TTGlyph name="Eogonek" xMin="24" yMin="-293" xMax="610" yMax="662">
      <component glyphName="E" x="0" y="0" flags="0x204"/>
      <component glyphName="uni0328.case" x="607" y="-11" flags="0x4"/>
    </TTGlyph>
    <TTGlyph name="Eth" xMin="13" yMin="0" xMax="721" yMax="670">
      <component glyphName="Dcroat" x="0" y="0" flags="0x204"/>
    </TTGlyph>
    <TTGlyph name="Euro" xMin="-26" yMin="-23" xMax="635" yMax="670">
      <contour>
        <pt x="447" y="-22" on="1"/>
        <pt x="369" y="-23" on="0"/>
        <pt x="250" y="12" on="0"/>
        <pt x="167" y="74" on="0"/>
        <pt x="114" y="156" on="0"/>
        <pt x="101" y="201" on="1"/>
        <pt x="-20" y="201" on="1"/>
        <pt x="-26" y="226" on="1"/>
        <pt x="14" y="272" on="1"/>
        <pt x="87" y="272" on="1"/>
        <pt x="86" y="282" on="0"/>
        <pt x="85" y="301" on="0"/>
        <pt x="85" y="311" on="1"/>
        <pt x="85" y="317" on="0"/>
        <pt x="85" y="330" on="0"/>
        <pt x="86" y="336" on="1"/>
        <pt x="4" y="336" on="1"/>
        <pt x="-2" y="361" on="1"/>
        <pt x="37" y="407" on="1"/>
        <pt x="96" y="407" on="1"/>
        <pt x="109" y="459" on="0"/>
        <pt x="163" y="555" on="0"/>
        <pt x="245" y="627" on="0"/>
        <pt x="358" y="670" on="0"/>
        <pt x="429" y="670" on="1"/>
        <pt x="489" y="670" on="0"/>
        <pt x="596" y="637" on="0"/>
        <pt x="634" y="608" on="1"/>
        <pt x="634" y="608" on="1"/>
        <pt x="635" y="608" on="1"/>
        <pt x="629" y="561" on="0"/>
        <pt x="611" y="480" on="0"/>
        <pt x="600" y="449" on="1"/>
        <pt x="519" y="449" on="1"/>
        <pt x="504" y="539" on="1"/>
        <pt x="469" y="556" on="0"/>
        <pt x="397" y="571" on="0"/>
        <pt x="361" y="568" on="1"/>
        <pt x="327" y="540" on="0"/>
        <pt x="279" y="458" on="0"/>
        <pt x="269" y="407" on="1"/>
        <pt x="567" y="407" on="1"/>
        <pt x="573" y="382" on="1"/>
        <pt x="534" y="336" on="1"/>
        <pt x="260" y="336" on="1"/>
        <pt x="260" y="333" on="0"/>
        <pt x="260" y="326" on="0"/>
        <pt x="260" y="323" on="1"/>
        <pt x="260" y="310" on="0"/>
        <pt x="262" y="284" on="0"/>
        <pt x="263" y="272" on="1"/>
        <pt x="527" y="272" on="1"/>
        <pt x="533" y="247" on="1"/>
        <pt x="494" y="201" on="1"/>
        <pt x="283" y="201" on="1"/>
        <pt x="304" y="155" on="0"/>
        <pt x="390" y="97" on="0"/>
        <pt x="459" y="93" on="1"/>
        <pt x="605" y="132" on="1"/>
        <pt x="632" y="53" on="1"/>
      </contour>
    </TTGlyph>
    <TTGlyph name="F" xMin="25" yMin="0" xMax="585" yMax="662">
      <contour>
        <pt x="31" y="0" on="1"/>
        <pt x="25" y="32" on="1"/>
        <pt x="43" y="44" on="0"/>
        <pt x="82" y="66" on="0"/>
        <pt x="104" y="76" on="1"/>
        <pt x="104" y="598" on="1"/>
        <pt x="30" y="609" on="1"/>
        <pt x="31" y="662" on="1"/>
        <pt x="584" y="662" on="1"/>
        <pt x="583" y="659" on="1"/>
        <pt x="585" y="626" on="0"/>
        <pt x="575" y="503" on="0"/>
        <pt x="565" y="454" on="1"/>
        <pt x="465" y="454" on="1"/>
        <pt x="446" y="563" on="1"/>
        <pt x="285" y="574" on="1"/>
        <pt x="285" y="351" on="1"/>
        <pt x="507" y="368" on="1"/>
        <pt x="507" y="254" on="1"/>
        <pt x="285" y="264" on="1"/>
        <pt x="285" y="72" on="1"/>
        <pt x="407" y="53" on="1"/>
        <pt x="406" y="0" on="1"/>
      </contour>
    </TTGlyph>
    <TTGlyph name="G" xMin="9" yMin="-26" xMax="690" yMax="682">
      <contour>
        <pt x="392" y="-20" on="1"/>
        <pt x="285" y="-26" on="0"/>
        <pt x="138" y="35" on="0"/>
        <pt x="48" y="135" on="0"/>
        <pt x="9" y="260" on="0"/>
        <pt x="9" y="319" on="1"/>
        <pt x="9" y="389" on="0"/>
        <pt x="58" y="520" on="0"/>
        <pt x="152" y="621" on="0"/>
        <pt x="294" y="682" on="0"/>
        <pt x="385" y="682" on="1"/>
        <pt x="465" y="682" on="0"/>
        <pt x="577" y="639" on="0"/>
        <pt x="603" y="621" on="1"/>
        <pt x="606" y="589" on="0"/>
        <pt x="593" y="483" on="0"/>
        <pt x="581" y="439" on="1"/>
        <pt x="474" y="439" on="1"/>
        <pt x="443" y="560" on="1"/>
        <pt x="410" y="572" on="0"/>
        <pt x="329" y="587" on="0"/>
        <pt x="282" y="586" on="1"/>
        <pt x="235" y="547" on="0"/>
        <pt x="190" y="414" on="0"/>
        <pt x="190" y="345" on="1"/>
        <pt x="190" y="297" on="0"/>
        <pt x="214" y="207" on="0"/>
        <pt x="261" y="136" on="0"/>
        <pt x="334" y="91" on="0"/>
        <pt x="383" y="89" on="1"/>
        <pt x="399" y="88" on="0"/>
        <pt x="434" y="91" on="0"/>
        <pt x="451" y="94" on="1"/>
        <pt x="451" y="221" on="1"/>
        <pt x="426" y="232" on="0"/>
        <pt x="377" y="257" on="0"/>
        <pt x="356" y="271" on="1"/>
        <pt x="362" y="304" on="1"/>
        <pt x="689" y="304" on="1"/>
        <pt x="690" y="257" on="1"/>
        <pt x="614" y="238" on="1"/>
        <pt x="614" y="68" on="1"/>
      </contour>
    </TTGlyph>
    <TTGlyph name="Gbreve" xMin="9" yMin="-26" xMax="690" yMax="885">
      <component glyphName="G" x="0" y="0" flags="0x204"/>
      <component glyphName="uni0306.case" x="354" y="0" flags="0x4"/>
    </TTGlyph>
    <TTGlyph name="Gcommaaccent" xMin="9" yMin="-314" xMax="690" yMax="682">
      <component glyphName="G" x="0" y="0" flags="0x204"/>
      <component glyphName="uni0326.case" x="353" y="0" flags="0x4"/>
    </TTGlyph>
    <TTGlyph name="H" xMin="24" yMin="0" xMax="805" yMax="662">
      <contour>
        <pt x="30" y="0" on="1"/>
        <pt x="24" y="32" on="1"/>
        <pt x="43" y="45" on="0"/>
        <pt x="86" y="69" on="0"/>
        <pt x="109" y="79" on="1"/>
        <pt x="109" y="597" on="1"/>
        <pt x="32" y="609" on="1"/>
        <pt x="33" y="662" on="1"/>
        <pt x="369" y="662" on="1"/>
        <pt x="375" y="630" on="1"/>
        <pt x="357" y="617" on="0"/>
        <pt x="314" y="593" on="0"/>
        <pt x="290" y="583" on="1"/>
        <pt x="290" y="377" on="1"/>
        <pt x="533" y="377" on="1"/>
        <pt x="533" y="597" on="1"/>
        <pt x="456" y="609" on="1"/>
        <pt x="457" y="662" on="1"/>
        <pt x="793" y="662" on="1"/>
        <pt x="799" y="630" on="1"/>
        <pt x="781" y="617" on="0"/>
        <pt x="738" y="593" on="0"/>
        <pt x="714" y="583" on="1"/>
        <pt x="714" y="68" on="1"/>
        <pt x="805" y="53" on="1"/>
        <pt x="804" y="0" on="1"/>
        <pt x="454" y="0" on="1"/>
        <pt x="448" y="32" on="1"/>
        <pt x="467" y="45" on="0"/>
        <pt x="510" y="69" on="0"/>
        <pt x="533" y="79" on="1"/>
        <pt x="533" y="283" on="1"/>
        <pt x="290" y="283" on="1"/>
        <pt x="290" y="68" on="1"/>
        <pt x="381" y="53" on="1"/>
        <pt x="380" y="0" on="1"/>
      </contour>
    </TTGlyph>
    <TTGlyph name="I" xMin="24" yMin="0" xMax="381" yMax="662">
      <contour>
        <pt x="30" y="0" on="1"/>
        <pt x="24" y="32" on="1"/>
        <pt x="43" y="45" on="0"/>
        <pt x="86" y="69" on="0"/>
        <pt x="109" y="79" on="1"/>
        <pt x="109" y="597" on="1"/>
        <pt x="32" y="609" on="1"/>
        <pt x="33" y="662" on="1"/>
        <pt x="369" y="662" on="1"/>
        <pt x="375" y="630" on="1"/>
        <pt x="357" y="617" on="0"/>
        <pt x="314" y="593" on="0"/>
        <pt x="290" y="583" on="1"/>
        <pt x="290" y="68" on="1"/>
        <pt x="381" y="53" on="1"/>
        <pt x="380" y="0" on="1"/>
      </contour>
    </TTGlyph>
    <TTGlyph name="Iacute" xMin="24" yMin="0" xMax="381" yMax="910">
      <component glyphName="I" x="0" y="0" flags="0x204"/>
      <component glyphName="acutecomb.case" x="199" y="0" flags="0x4"/>
    </TTGlyph>
    <TTGlyph name="Icircumflex" xMin="-13" yMin="0" xMax="416" yMax="926">
      <component glyphName="I" x="0" y="0" flags="0x204"/>
      <component glyphName="uni0302.case" x="200" y="105" flags="0x4"/>
    </TTGlyph>
    <TTGlyph name="Idieresis" xMin="-11" yMin="0" xMax="412" yMax="916">
      <component glyphName="I" x="0" y="0" flags="0x204"/>
      <component glyphName="uni0308.case" x="200" y="177" flags="0x4"/>
    </TTGlyph>
    <TTGlyph name="Idotaccent" xMin="24" yMin="0" xMax="381" yMax="916">
      <component glyphName="I" x="0" y="0" flags="0x204"/>
      <component glyphName="uni0307.case" x="200" y="177" flags="0x4"/>
    </TTGlyph>
    <TTGlyph name="Igrave" xMin="24" yMin="0" xMax="381" yMax="910">
      <component glyphName="I" x="0" y="0" flags="0x204"/>
      <component glyphName="gravecomb.case" x="201" y="0" flags="0x4"/>
    </TTGlyph>
    <TTGlyph name="Imacron" xMin="30" yMin="0" xMax="394" yMax="831">
      <contour>
        <pt x="33" y="806" on="1"/>
        <pt x="62" y="821" on="0"/>
        <pt x="123" y="831" on="0"/>
        <pt x="146" y="831" on="1"/>
        <pt x="389" y="831" on="1"/>
        <pt x="394" y="778" on="1"/>
        <pt x="347" y="732" on="1"/>
        <pt x="39" y="732" on="1"/>
      </contour>
      <contour>
        <pt x="36" y="0" on="1"/>
        <pt x="30" y="32" on="1"/>
        <pt x="49" y="45" on="0"/>
        <pt x="92" y="69" on="0"/>
        <pt x="115" y="79" on="1"/>
        <pt x="115" y="597" on="1"/>
        <pt x="38" y="609" on="1"/>
        <pt x="39" y="662" on="1"/>
        <pt x="375" y="662" on="1"/>
        <pt x="381" y="630" on="1"/>
        <pt x="363" y="617" on="0"/>
        <pt x="320" y="593" on="0"/>
        <pt x="296" y="583" on="1"/>
        <pt x="296" y="68" on="1"/>
        <pt x="387" y="53" on="1"/>
        <pt x="386" y="0" on="1"/>
      </contour>
    </TTGlyph>
    <TTGlyph name="Iogonek" xMin="24" yMin="-291" xMax="381" yMax="662">
      <component glyphName="I" x="0" y="0" flags="0x204"/>
      <component glyphName="uni0328.case" x="321" y="-9" flags="0x4"/>
    </TTGlyph>
    <TTGlyph name="J" xMin="-25" yMin="-188" xMax="384" yMax="662">
      <contour>
        <pt x="10" y="-188" on="1"/>
        <pt x="-25" y="-131" on="1"/>
        <pt x="38" y="-91" on="0"/>
        <pt x="119" y="25" on="0"/>
        <pt x="119" y="146" on="1"/>
        <pt x="119" y="595" on="1"/>
        <pt x="34" y="609" on="1"/>
        <pt x="35" y="662" on="1"/>
        <pt x="378" y="662" on="1"/>
        <pt x="384" y="630" on="1"/>
        <pt x="366" y="617" on="0"/>
        <pt x="323" y="593" on="0"/>
        <pt x="299" y="583" on="1"/>
        <pt x="299" y="153" on="1"/>
        <pt x="299" y="4" on="0"/>
        <pt x="137" y="-145" on="0"/>
      </contour>
    </TTGlyph>
    <TTGlyph name="K" xMin="24" yMin="0" xMax="746" yMax="662">
      <contour>
        <pt x="30" y="0" on="1"/>
        <pt x="24" y="32" on="1"/>
        <pt x="43" y="45" on="0"/>
        <pt x="86" y="69" on="0"/>
        <pt x="109" y="79" on="1"/>
        <pt x="109" y="597" on="1"/>
        <pt x="32" y="609" on="1"/>
        <pt x="33" y="662" on="1"/>
        <pt x="369" y="662" on="1"/>
        <pt x="375" y="630" on="1"/>
        <pt x="357" y="617" on="0"/>
        <pt x="314" y="593" on="0"/>
        <pt x="290" y="583" on="1"/>
        <pt x="290" y="374" on="1"/>
        <pt x="499" y="599" on="1"/>
        <pt x="434" y="609" on="1"/>
        <pt x="435" y="662" on="1"/>
        <pt x="700" y="662" on="1"/>
        <pt x="706" y="630" on="1"/>
        <pt x="690" y="619" on="0"/>
        <pt x="640" y="597" on="0"/>
        <pt x="616" y="588" on="1"/>
        <pt x="437" y="399" on="1"/>
        <pt x="685" y="65" on="1"/>
        <pt x="746" y="53" on="1"/>
        <pt x="745" y="0" on="1"/>
        <pt x="514" y="0" on="1"/>
        <pt x="319" y="274" on="1"/>
        <pt x="290" y="243" on="1"/>
        <pt x="290" y="66" on="1"/>
        <pt x="369" y="53" on="1"/>
        <pt x="368" y="0" on="1"/>
      </contour>
    </TTGlyph>
    <TTGlyph name="Kcommaaccent" xMin="24" yMin="-314" xMax="746" yMax="662">
      <component glyphName="K" x="0" y="0" flags="0x204"/>
      <component glyphName="uni0326.case" x="397" y="0" flags="0x4"/>
    </TTGlyph>
    <TTGlyph name="L" xMin="24" yMin="0" xMax="617" yMax="662">
      <contour>
        <pt x="30" y="0" on="1"/>
        <pt x="24" y="32" on="1"/>
        <pt x="43" y="45" on="0"/>
        <pt x="86" y="69" on="0"/>
        <pt x="109" y="79" on="1"/>
        <pt x="109" y="597" on="1"/>
        <pt x="32" y="609" on="1"/>
        <pt x="33" y="662" on="1"/>
        <pt x="369" y="662" on="1"/>
        <pt x="375" y="630" on="1"/>
        <pt x="357" y="617" on="0"/>
        <pt x="314" y="593" on="0"/>
        <pt x="290" y="583" on="1"/>
        <pt x="290" y="93" on="1"/>
        <pt x="468" y="110" on="1"/>
        <pt x="513" y="255" on="1"/>
        <pt x="616" y="246" on="1"/>
        <pt x="617" y="194" on="0"/>
        <pt x="611" y="50" on="0"/>
        <pt x="602" y="0" on="1"/>
        <pt x="601" y="0" on="1"/>
        <pt x="601" y="0" on="1"/>
      </contour>
    </TTGlyph>
    <TTGlyph name="Lacute" xMin="24" yMin="0" xMax="617" yMax="910">
      <component glyphName="L" x="0" y="0" flags="0x204"/>
      <component glyphName="acutecomb.case" x="212" y="0" flags="0x4"/>
    </TTGlyph>
    <TTGlyph name="Lcaron" xMin="24" yMin="0" xMax="636" yMax="758">
      <component glyphName="L" x="0" y="0" flags="0x204"/>
      <component glyphName="uni030C.calt" x="454" y="1" flags="0x4"/>
    </TTGlyph>
    <TTGlyph name="Lcommaaccent" xMin="24" yMin="-314" xMax="617" yMax="662">
      <component glyphName="L" x="0" y="0" flags="0x204"/>
      <component glyphName="uni0326.case" x="317" y="0" flags="0x4"/>
    </TTGlyph>
    <TTGlyph name="Lslash" xMin="27" yMin="0" xMax="635" yMax="662">
      <contour>
        <pt x="48" y="0" on="1"/>
        <pt x="42" y="32" on="1"/>
        <pt x="61" y="45" on="0"/>
        <pt x="104" y="69" on="0"/>
        <pt x="127" y="79" on="1"/>
        <pt x="127" y="249" on="1"/>
        <pt x="56" y="216" on="1"/>
        <pt x="27" y="277" on="1"/>
        <pt x="127" y="324" on="1"/>
        <pt x="127" y="597" on="1"/>
        <pt x="50" y="609" on="1"/>
        <pt x="51" y="662" on="1"/>
        <pt x="387" y="662" on="1"/>
        <pt x="393" y="630" on="1"/>
        <pt x="375" y="617" on="0"/>
        <pt x="332" y="593" on="0"/>
        <pt x="308" y="583" on="1"/>
        <pt x="308" y="409" on="1"/>
        <pt x="420" y="462" on="1"/>
        <pt x="436" y="438" on="1"/>
        <pt x="421" y="386" on="1"/>
        <pt x="308" y="333" on="1"/>
        <pt x="308" y="93" on="1"/>
        <pt x="486" y="110" on="1"/>
        <pt x="531" y="255" on="1"/>
        <pt x="634" y="246" on="1"/>
        <pt x="635" y="194" on="0"/>
        <pt x="629" y="50" on="0"/>
        <pt x="620" y="0" on="1"/>
        <pt x="619" y="0" on="1"/>
        <pt x="619" y="0" on="1"/>
      </contour>
    </TTGlyph>
    <TTGlyph name="M" xMin="23" yMin="-7" xMax="956" yMax="650">
      <contour>
        <pt x="528" y="16" on="1"/>
        <pt x="400" y="-7" on="1"/>
        <pt x="225" y="477" on="1"/>
        <pt x="240" y="303" on="1"/>
        <pt x="237" y="68" on="1"/>
        <pt x="322" y="47" on="1"/>
        <pt x="321" y="0" on="1"/>
        <pt x="29" y="0" on="1"/>
        <pt x="23" y="32" on="1"/>
        <pt x="42" y="45" on="0"/>
        <pt x="86" y="70" on="0"/>
        <pt x="111" y="80" on="1"/>
        <pt x="123" y="582" on="1"/>
        <pt x="39" y="603" on="1"/>
        <pt x="40" y="650" on="1"/>
        <pt x="336" y="650" on="1"/>
        <pt x="335" y="649" on="1"/>
        <pt x="503" y="180" on="1"/>
        <pt x="678" y="650" on="1"/>
        <pt x="936" y="650" on="1"/>
        <pt x="942" y="618" on="1"/>
        <pt x="923" y="605" on="0"/>
        <pt x="880" y="581" on="0"/>
        <pt x="856" y="571" on="1"/>
        <pt x="864" y="70" on="1"/>
        <pt x="956" y="47" on="1"/>
        <pt x="955" y="0" on="1"/>
        <pt x="612" y="0" on="1"/>
        <pt x="606" y="32" on="1"/>
        <pt x="625" y="45" on="0"/>
        <pt x="668" y="69" on="0"/>
        <pt x="691" y="79" on="1"/>
        <pt x="690" y="303" on="1"/>
        <pt x="704" y="481" on="1"/>
      </contour>
    </TTGlyph>
    <TTGlyph name="N" xMin="24" yMin="-13" xMax="764" yMax="662">
      <contour>
        <pt x="519" y="-13" on="1"/>
        <pt x="220" y="436" on="1"/>
        <pt x="234" y="315" on="1"/>
        <pt x="234" y="67" on="1"/>
        <pt x="322" y="53" on="1"/>
        <pt x="321" y="0" on="1"/>
        <pt x="30" y="0" on="1"/>
        <pt x="24" y="32" on="1"/>
        <pt x="43" y="45" on="0"/>
        <pt x="86" y="69" on="0"/>
        <pt x="109" y="79" on="1"/>
        <pt x="109" y="596" on="1"/>
        <pt x="36" y="609" on="1"/>
        <pt x="37" y="662" on="1"/>
        <pt x="282" y="662" on="1"/>
        <pt x="281" y="661" on="1"/>
        <pt x="574" y="211" on="1"/>
        <pt x="560" y="336" on="1"/>
        <pt x="560" y="593" on="1"/>
        <pt x="461" y="609" on="1"/>
        <pt x="462" y="662" on="1"/>
        <pt x="758" y="662" on="1"/>
        <pt x="764" y="630" on="1"/>
        <pt x="747" y="618" on="0"/>
        <pt x="706" y="596" on="0"/>
        <pt x="684" y="586" on="1"/>
        <pt x="679" y="0" on="1"/>
      </contour>
    </TTGlyph>
    <TTGlyph name="Nacute" xMin="24" yMin="-13" xMax="764" yMax="910">
      <component glyphName="N" x="0" y="0" flags="0x204"/>
      <component glyphName="acutecomb.case" x="373" y="0" flags="0x4"/>
    </TTGlyph>
    <TTGlyph name="Ncaron" xMin="24" yMin="-13" xMax="764" yMax="921">
      <component glyphName="N" x="0" y="0" flags="0x204"/>
      <component glyphName="uni030C.case" x="374" y="105" flags="0x4"/>
    </TTGlyph>
    <TTGlyph name="Ncommaaccent" xMin="24" yMin="-314" xMax="764" yMax="662">
      <component glyphName="N" x="0" y="0" flags="0x204"/>
      <component glyphName="uni0326.case" x="392" y="0" flags="0x4"/>
    </TTGlyph>
    <TTGlyph name="Ntilde" xMin="24" yMin="-13" xMax="764" yMax="902">
      <component glyphName="N" x="0" y="0" flags="0x204"/>
      <component glyphName="tildecomb.case" x="374" y="0" flags="0x4"/>
    </TTGlyph>
    <TTGlyph name="O" xMin="11" yMin="-20" xMax="676" yMax="682">
      <contour>
        <pt x="11" y="326" on="1"/>
        <pt x="11" y="407" on="0"/>
        <pt x="63" y="540" on="0"/>
        <pt x="151" y="632" on="0"/>
        <pt x="272" y="682" on="0"/>
        <pt x="341" y="682" on="1"/>
        <pt x="408" y="682" on="0"/>
        <pt x="530" y="634" on="0"/>
        <pt x="621" y="543" on="0"/>
        <pt x="676" y="408" on="0"/>
        <pt x="676" y="322" on="1"/>
        <pt x="676" y="236" on="0"/>
        <pt x="621" y="107" on="0"/>
        <pt x="531" y="22" on="0"/>
        <pt x="412" y="-20" on="0"/>
        <pt x="348" y="-20" on="1"/>
        <pt x="282" y="-20" on="0"/>
        <pt x="160" y="24" on="0"/>
        <pt x="67" y="110" on="0"/>
        <pt x="11" y="241" on="0"/>
      </contour>
      <contour>
        <pt x="328" y="585" on="1"/>
        <pt x="312" y="585" on="0"/>
        <pt x="281" y="578" on="0"/>
        <pt x="266" y="572" on="1"/>
        <pt x="238" y="547" on="0"/>
        <pt x="201" y="427" on="0"/>
        <pt x="201" y="346" on="1"/>
        <pt x="201" y="228" on="0"/>
        <pt x="286" y="77" on="0"/>
        <pt x="366" y="77" on="1"/>
        <pt x="380" y="77" on="0"/>
        <pt x="403" y="81" on="0"/>
        <pt x="413" y="85" on="1"/>
        <pt x="445" y="115" on="0"/>
        <pt x="486" y="241" on="0"/>
        <pt x="486" y="319" on="1"/>
        <pt x="486" y="369" on="0"/>
        <pt x="467" y="466" on="0"/>
        <pt x="429" y="540" on="0"/>
        <pt x="369" y="585" on="0"/>
      </contour>
    </TTGlyph>
    <TTGlyph name="OE" xMin="31" yMin="-16" xMax="952" yMax="680">
      <contour>
        <pt x="384" y="80" on="1"/>
        <pt x="402" y="80" on="0"/>
        <pt x="441" y="88" on="0"/>
        <pt x="457" y="95" on="1"/>
        <pt x="457" y="563" on="1"/>
        <pt x="437" y="572" on="0"/>
        <pt x="389" y="580" on="0"/>
        <pt x="367" y="580" on="1"/>
        <pt x="347" y="580" on="0"/>
        <pt x="309" y="575" on="0"/>
        <pt x="291" y="568" on="1"/>
        <pt x="254" y="537" on="0"/>
        <pt x="212" y="409" on="0"/>
        <pt x="212" y="337" on="1"/>
        <pt x="212" y="288" on="0"/>
        <pt x="232" y="195" on="0"/>
        <pt x="274" y="123" on="0"/>
        <pt x="340" y="80" on="0"/>
      </contour>
      <contour>
        <pt x="940" y="0" on="1"/>
        <pt x="491" y="0" on="1"/>
        <pt x="463" y="-9" on="0"/>
        <pt x="405" y="-16" on="0"/>
        <pt x="376" y="-16" on="1"/>
        <pt x="314" y="-16" on="0"/>
        <pt x="190" y="25" on="0"/>
        <pt x="92" y="110" on="0"/>
        <pt x="31" y="241" on="0"/>
        <pt x="31" y="331" on="1"/>
        <pt x="31" y="416" on="0"/>
        <pt x="91" y="547" on="0"/>
        <pt x="189" y="635" on="0"/>
        <pt x="317" y="680" on="0"/>
        <pt x="383" y="680" on="1"/>
        <pt x="413" y="680" on="0"/>
        <pt x="470" y="671" on="0"/>
        <pt x="496" y="662" on="1"/>
        <pt x="945" y="662" on="1"/>
        <pt x="947" y="630" on="0"/>
        <pt x="937" y="510" on="0"/>
        <pt x="927" y="460" on="1"/>
        <pt x="827" y="460" on="1"/>
        <pt x="809" y="561" on="1"/>
        <pt x="638" y="571" on="1"/>
        <pt x="638" y="371" on="1"/>
        <pt x="845" y="388" on="1"/>
        <pt x="845" y="280" on="1"/>
        <pt x="638" y="289" on="1"/>
        <pt x="638" y="98" on="1"/>
        <pt x="817" y="109" on="1"/>
        <pt x="852" y="216" on="1"/>
        <pt x="951" y="208" on="1"/>
        <pt x="952" y="165" on="0"/>
        <pt x="945" y="45" on="0"/>
        <pt x="940" y="4" on="1"/>
      </contour>
    </TTGlyph>
    <TTGlyph name="Oacute" xMin="11" yMin="-20" xMax="676" yMax="910">
      <component glyphName="O" x="0" y="0" flags="0x204"/>
      <component glyphName="acutecomb.case" x="343" y="0" flags="0x4"/>
    </TTGlyph>
    <TTGlyph name="Ocircumflex" xMin="11" yMin="-20" xMax="676" yMax="926">
      <component glyphName="O" x="0" y="0" flags="0x204"/>
      <component glyphName="uni0302.case" x="344" y="105" flags="0x4"/>
    </TTGlyph>
    <TTGlyph name="Odieresis" xMin="11" yMin="-20" xMax="676" yMax="916">
      <component glyphName="O" x="0" y="0" flags="0x204"/>
      <component glyphName="uni0308.case" x="344" y="177" flags="0x4"/>
    </TTGlyph>
    <TTGlyph name="Ograve" xMin="11" yMin="-20" xMax="676" yMax="910">
      <component glyphName="O" x="0" y="0" flags="0x204"/>
      <component glyphName="gravecomb.case" x="345" y="0" flags="0x4"/>
    </TTGlyph>
    <TTGlyph name="Ohungarumlaut" xMin="11" yMin="-20" xMax="676" yMax="934">
      <component glyphName="O" x="0" y="0" flags="0x204"/>
      <component glyphName="uni030B.case" x="345" y="177" flags="0x4"/>
    </TTGlyph>
    <TTGlyph name="Omacron" xMin="11" yMin="-20" xMax="676" yMax="841">
      <component glyphName="O" x="0" y="0" flags="0x204"/>
      <component glyphName="uni0304.case" x="343" y="0" flags="0x4"/>
    </TTGlyph>
    <TTGlyph name="Oslash" xMin="11" yMin="-90" xMax="676" yMax="746">
      <contour>
        <pt x="201" y="346" on="1"/>
        <pt x="201" y="299" on="0"/>
        <pt x="215" y="216" on="0"/>
        <pt x="228" y="183" on="1"/>
        <pt x="424" y="539" on="1"/>
        <pt x="405" y="561" on="0"/>
        <pt x="358" y="585" on="0"/>
        <pt x="328" y="585" on="1"/>
        <pt x="312" y="585" on="0"/>
        <pt x="281" y="578" on="0"/>
        <pt x="266" y="572" on="1"/>
        <pt x="238" y="547" on="0"/>
        <pt x="201" y="427" on="0"/>
      </contour>
      <contour>
        <pt x="366" y="77" on="1"/>
        <pt x="380" y="77" on="0"/>
        <pt x="403" y="81" on="0"/>
        <pt x="413" y="85" on="1"/>
        <pt x="445" y="115" on="0"/>
        <pt x="486" y="241" on="0"/>
        <pt x="486" y="319" on="1"/>
        <pt x="486" y="352" on="0"/>
        <pt x="478" y="416" on="0"/>
        <pt x="470" y="445" on="1"/>
        <pt x="283" y="105" on="1"/>
        <pt x="300" y="92" on="0"/>
        <pt x="342" y="77" on="0"/>
      </contour>
      <contour>
        <pt x="348" y="-20" on="1"/>
        <pt x="317" y="-20" on="0"/>
        <pt x="254" y="-10" on="0"/>
        <pt x="226" y="0" on="1"/>
        <pt x="176" y="-90" on="1"/>
        <pt x="101" y="-49" on="1"/>
        <pt x="149" y="39" on="1"/>
        <pt x="88" y="81" on="0"/>
        <pt x="11" y="225" on="0"/>
        <pt x="11" y="326" on="1"/>
        <pt x="11" y="407" on="0"/>
        <pt x="63" y="540" on="0"/>
        <pt x="151" y="632" on="0"/>
        <pt x="272" y="682" on="0"/>
        <pt x="341" y="682" on="1"/>
        <pt x="379" y="682" on="0"/>
        <pt x="452" y="666" on="0"/>
        <pt x="485" y="651" on="1"/>
        <pt x="537" y="746" on="1"/>
        <pt x="612" y="703" on="1"/>
        <pt x="558" y="605" on="1"/>
        <pt x="611" y="559" on="0"/>
        <pt x="676" y="416" on="0"/>
        <pt x="676" y="322" on="1"/>
        <pt x="676" y="236" on="0"/>
        <pt x="621" y="107" on="0"/>
        <pt x="531" y="22" on="0"/>
        <pt x="412" y="-20" on="0"/>
      </contour>
    </TTGlyph>
    <TTGlyph name="Otilde" xMin="11" yMin="-20" xMax="676" yMax="902">
      <component glyphName="O" x="0" y="0" flags="0x204"/>
      <component glyphName="tildecomb.case" x="344" y="0" flags="0x4"/>
    </TTGlyph>
    <TTGlyph name="P" xMin="25" yMin="0" xMax="645" yMax="671">
      <contour>
        <pt x="352" y="326" on="1"/>
        <pt x="409" y="326" on="0"/>
        <pt x="462" y="401" on="0"/>
        <pt x="462" y="450" on="1"/>
        <pt x="462" y="487" on="0"/>
        <pt x="435" y="567" on="0"/>
        <pt x="409" y="583" on="1"/>
        <pt x="285" y="568" on="1"/>
        <pt x="285" y="334" on="1"/>
        <pt x="304" y="330" on="0"/>
        <pt x="340" y="326" on="0"/>
      </contour>
      <contour>
        <pt x="31" y="0" on="1"/>
        <pt x="25" y="32" on="1"/>
        <pt x="43" y="44" on="0"/>
        <pt x="82" y="66" on="0"/>
        <pt x="104" y="76" on="1"/>
        <pt x="104" y="598" on="1"/>
        <pt x="30" y="609" on="1"/>
        <pt x="31" y="662" on="1"/>
        <pt x="376" y="670" on="1"/>
        <pt x="442" y="671" on="0"/>
        <pt x="543" y="633" on="0"/>
        <pt x="611" y="571" on="0"/>
        <pt x="645" y="490" on="0"/>
        <pt x="645" y="447" on="1"/>
        <pt x="645" y="358" on="0"/>
        <pt x="502" y="235" on="0"/>
        <pt x="385" y="234" on="1"/>
        <pt x="285" y="233" on="1"/>
        <pt x="285" y="72" on="1"/>
        <pt x="407" y="53" on="1"/>
        <pt x="406" y="0" on="1"/>
      </contour>
    </TTGlyph>
    <TTGlyph name="Q" xMin="11" yMin="-192" xMax="739" yMax="682">
      <contour>
        <pt x="658" y="-192" on="1"/>
        <pt x="371" y="-19" on="1"/>
        <pt x="365" y="-20" on="0"/>
        <pt x="354" y="-20" on="0"/>
        <pt x="348" y="-20" on="1"/>
        <pt x="282" y="-20" on="0"/>
        <pt x="160" y="24" on="0"/>
        <pt x="67" y="110" on="0"/>
        <pt x="11" y="241" on="0"/>
        <pt x="11" y="326" on="1"/>
        <pt x="11" y="407" on="0"/>
        <pt x="63" y="540" on="0"/>
        <pt x="151" y="632" on="0"/>
        <pt x="272" y="682" on="0"/>
        <pt x="341" y="682" on="1"/>
        <pt x="408" y="682" on="0"/>
        <pt x="530" y="634" on="0"/>
        <pt x="621" y="543" on="0"/>
        <pt x="676" y="408" on="0"/>
        <pt x="676" y="322" on="1"/>
        <pt x="676" y="206" on="0"/>
        <pt x="580" y="53" on="0"/>
        <pt x="506" y="16" on="1"/>
        <pt x="739" y="-40" on="1"/>
      </contour>
      <contour>
        <pt x="328" y="585" on="1"/>
        <pt x="312" y="585" on="0"/>
        <pt x="281" y="578" on="0"/>
        <pt x="266" y="572" on="1"/>
        <pt x="238" y="547" on="0"/>
        <pt x="201" y="427" on="0"/>
        <pt x="201" y="346" on="1"/>
        <pt x="201" y="228" on="0"/>
        <pt x="286" y="77" on="0"/>
        <pt x="366" y="77" on="1"/>
        <pt x="380" y="77" on="0"/>
        <pt x="403" y="81" on="0"/>
        <pt x="413" y="85" on="1"/>
        <pt x="445" y="115" on="0"/>
        <pt x="486" y="241" on="0"/>
        <pt x="486" y="319" on="1"/>
        <pt x="486" y="369" on="0"/>
        <pt x="467" y="466" on="0"/>
        <pt x="429" y="540" on="0"/>
        <pt x="369" y="585" on="0"/>
      </contour>
    </TTGlyph>
    <TTGlyph name="R" xMin="24" yMin="0" xMax="713" yMax="670">
      <contour>
        <pt x="346" y="337" on="1"/>
        <pt x="409" y="337" on="0"/>
        <pt x="464" y="407" on="0"/>
        <pt x="464" y="458" on="1"/>
        <pt x="464" y="493" on="0"/>
        <pt x="439" y="561" on="0"/>
        <pt x="413" y="583" on="1"/>
        <pt x="290" y="568" on="1"/>
        <pt x="290" y="344" on="1"/>
        <pt x="305" y="340" on="0"/>
        <pt x="334" y="337" on="0"/>
      </contour>
      <contour>
        <pt x="30" y="0" on="1"/>
        <pt x="24" y="32" on="1"/>
        <pt x="43" y="45" on="0"/>
        <pt x="86" y="69" on="0"/>
        <pt x="109" y="79" on="1"/>
        <pt x="109" y="598" on="1"/>
        <pt x="34" y="609" on="1"/>
        <pt x="35" y="662" on="1"/>
        <pt x="374" y="670" on="1"/>
        <pt x="502" y="670" on="0"/>
        <pt x="649" y="545" on="0"/>
        <pt x="649" y="461" on="1"/>
        <pt x="649" y="403" on="0"/>
        <pt x="579" y="304" on="0"/>
        <pt x="519" y="277" on="1"/>
        <pt x="652" y="62" on="1"/>
        <pt x="713" y="53" on="1"/>
        <pt x="712" y="0" on="1"/>
        <pt x="488" y="0" on="1"/>
        <pt x="356" y="252" on="1"/>
        <pt x="290" y="251" on="1"/>
        <pt x="290" y="66" on="1"/>
        <pt x="373" y="53" on="1"/>
        <pt x="372" y="0" on="1"/>
      </contour>
    </TTGlyph>
    <TTGlyph name="Racute" xMin="24" yMin="0" xMax="713" yMax="910">
      <component glyphName="R" x="0" y="0" flags="0x204"/>
      <component glyphName="acutecomb.case" x="337" y="0" flags="0x4"/>
    </TTGlyph>
    <TTGlyph name="Rcaron" xMin="24" yMin="0" xMax="713" yMax="921">
      <component glyphName="R" x="0" y="0" flags="0x204"/>
      <component glyphName="uni030C.case" x="338" y="105" flags="0x4"/>
    </TTGlyph>
    <TTGlyph name="Rcommaaccent" xMin="24" yMin="-314" xMax="713" yMax="670">
      <component glyphName="R" x="0" y="0" flags="0x204"/>
      <component glyphName="uni0326.case" x="353" y="0" flags="0x4"/>
    </TTGlyph>
    <TTGlyph name="S" xMin="51" yMin="-19" xMax="564" yMax="682">
      <contour>
        <pt x="303" y="-19" on="1"/>
        <pt x="246" y="-19" on="0"/>
        <pt x="103" y="12" on="0"/>
        <pt x="52" y="42" on="1"/>
        <pt x="53" y="44" on="1"/>
        <pt x="51" y="60" on="0"/>
        <pt x="52" y="109" on="0"/>
        <pt x="57" y="163" on="0"/>
        <pt x="65" y="216" on="0"/>
        <pt x="70" y="235" on="1"/>
        <pt x="151" y="235" on="1"/>
        <pt x="216" y="90" on="1"/>
        <pt x="245" y="80" on="0"/>
        <pt x="304" y="69" on="0"/>
        <pt x="332" y="68" on="1"/>
        <pt x="361" y="81" on="0"/>
        <pt x="386" y="123" on="0"/>
        <pt x="386" y="143" on="1"/>
        <pt x="386" y="187" on="0"/>
        <pt x="300" y="239" on="0"/>
        <pt x="239" y="267" on="1"/>
        <pt x="206" y="282" on="0"/>
        <pt x="138" y="319" on="0"/>
        <pt x="85" y="368" on="0"/>
        <pt x="51" y="434" on="0"/>
        <pt x="51" y="477" on="1"/>
        <pt x="51" y="569" on="0"/>
        <pt x="203" y="682" on="0"/>
        <pt x="320" y="682" on="1"/>
        <pt x="374" y="682" on="0"/>
        <pt x="494" y="659" on="0"/>
        <pt x="534" y="644" on="1"/>
        <pt x="533" y="603" on="0"/>
        <pt x="523" y="497" on="0"/>
        <pt x="513" y="453" on="1"/>
        <pt x="421" y="453" on="1"/>
        <pt x="382" y="575" on="1"/>
        <pt x="354" y="586" on="0"/>
        <pt x="296" y="596" on="0"/>
        <pt x="266" y="597" on="1"/>
        <pt x="242" y="584" on="0"/>
        <pt x="221" y="541" on="0"/>
        <pt x="221" y="522" on="1"/>
        <pt x="221" y="481" on="0"/>
        <pt x="316" y="431" on="0"/>
        <pt x="379" y="402" on="1"/>
        <pt x="413" y="386" on="0"/>
        <pt x="480" y="349" on="0"/>
        <pt x="532" y="299" on="0"/>
        <pt x="564" y="232" on="0"/>
        <pt x="564" y="186" on="1"/>
        <pt x="564" y="137" on="0"/>
        <pt x="522" y="60" on="0"/>
        <pt x="451" y="8" on="0"/>
        <pt x="356" y="-19" on="0"/>
      </contour>
    </TTGlyph>
    <TTGlyph name="Sacute" xMin="51" yMin="-19" xMax="564" yMax="910">
      <component glyphName="S" x="0" y="0" flags="0x204"/>
      <component glyphName="acutecomb.case" x="309" y="0" flags="0x4"/>
    </TTGlyph>
    <TTGlyph name="Scaron" xMin="51" yMin="-19" xMax="564" yMax="921">
      <component glyphName="S" x="0" y="0" flags="0x204"/>
      <component glyphName="uni030C.case" x="310" y="105" flags="0x4"/>
    </TTGlyph>
    <TTGlyph name="Scedilla" xMin="51" yMin="-271" xMax="564" yMax="682">
      <component glyphName="S" x="0" y="0" flags="0x204"/>
      <component glyphName="uni0327.case" x="298" y="0" flags="0x4"/>
    </TTGlyph>
    <TTGlyph name="Scommaaccent" xMin="51" yMin="-314" xMax="564" yMax="682">
      <component glyphName="S" x="0" y="0" flags="0x204"/>
      <component glyphName="uni0326.case" x="298" y="0" flags="0x4"/>
    </TTGlyph>
    <TTGlyph name="T" xMin="6" yMin="0" xMax="662" yMax="668">
      <contour>
        <pt x="152" y="0" on="1"/>
        <pt x="146" y="32" on="1"/>
        <pt x="166" y="46" on="0"/>
        <pt x="218" y="71" on="0"/>
        <pt x="244" y="82" on="1"/>
        <pt x="244" y="586" on="1"/>
        <pt x="135" y="576" on="1"/>
        <pt x="120" y="436" on="1"/>
        <pt x="27" y="436" on="1"/>
        <pt x="22" y="461" on="0"/>
        <pt x="13" y="528" on="0"/>
        <pt x="8" y="594" on="0"/>
        <pt x="6" y="652" on="0"/>
        <pt x="8" y="668" on="1"/>
        <pt x="108" y="666" on="0"/>
        <pt x="264" y="664" on="0"/>
        <pt x="408" y="664" on="0"/>
        <pt x="562" y="666" on="0"/>
        <pt x="660" y="668" on="1"/>
        <pt x="660" y="668" on="1"/>
        <pt x="661" y="668" on="1"/>
        <pt x="662" y="652" on="0"/>
        <pt x="660" y="594" on="0"/>
        <pt x="655" y="528" on="0"/>
        <pt x="647" y="461" on="0"/>
        <pt x="642" y="436" on="1"/>
        <pt x="548" y="436" on="1"/>
        <pt x="533" y="576" on="1"/>
        <pt x="425" y="586" on="1"/>
        <pt x="425" y="69" on="1"/>
        <pt x="523" y="53" on="1"/>
        <pt x="522" y="0" on="1"/>
      </contour>
    </TTGlyph>
    <TTGlyph name="Tcaron" xMin="6" yMin="0" xMax="662" yMax="921">
      <component glyphName="T" x="0" y="0" flags="0x204"/>
      <component glyphName="uni030C.case" x="334" y="105" flags="0x4"/>
    </TTGlyph>
    <TTGlyph name="Thorn" xMin="27" yMin="0" xMax="624" yMax="650">
      <contour>
        <pt x="336" y="228" on="1"/>
        <pt x="391" y="228" on="0"/>
        <pt x="446" y="288" on="0"/>
        <pt x="446" y="328" on="1"/>
        <pt x="446" y="356" on="0"/>
        <pt x="418" y="412" on="0"/>
        <pt x="389" y="432" on="1"/>
        <pt x="295" y="419" on="1"/>
        <pt x="295" y="233" on="1"/>
        <pt x="305" y="231" on="0"/>
        <pt x="325" y="228" on="0"/>
      </contour>
      <contour>
        <pt x="33" y="0" on="1"/>
        <pt x="27" y="34" on="1"/>
        <pt x="44" y="47" on="0"/>
        <pt x="95" y="72" on="0"/>
        <pt x="114" y="81" on="1"/>
        <pt x="114" y="584" on="1"/>
        <pt x="35" y="597" on="1"/>
        <pt x="36" y="650" on="1"/>
        <pt x="370" y="650" on="1"/>
        <pt x="376" y="617" on="1"/>
        <pt x="360" y="605" on="0"/>
        <pt x="314" y="582" on="0"/>
        <pt x="295" y="573" on="1"/>
        <pt x="295" y="524" on="1"/>
        <pt x="377" y="524" on="1"/>
        <pt x="439" y="524" on="0"/>
        <pt x="532" y="490" on="0"/>
        <pt x="593" y="436" on="0"/>
        <pt x="624" y="366" on="0"/>
        <pt x="624" y="331" on="1"/>
        <pt x="624" y="260" on="0"/>
        <pt x="502" y="145" on="0"/>
        <pt x="381" y="144" on="1"/>
        <pt x="295" y="143" on="1"/>
        <pt x="295" y="68" on="1"/>
        <pt x="386" y="53" on="1"/>
        <pt x="385" y="0" on="1"/>
      </contour>
    </TTGlyph>
    <TTGlyph name="U" xMin="7" yMin="-20" xMax="748" yMax="662">
      <contour>
        <pt x="394" y="-20" on="1"/>
        <pt x="329" y="-20" on="0"/>
        <pt x="215" y="19" on="0"/>
        <pt x="132" y="98" on="0"/>
        <pt x="84" y="220" on="0"/>
        <pt x="84" y="301" on="1"/>
        <pt x="84" y="597" on="1"/>
        <pt x="7" y="609" on="1"/>
        <pt x="8" y="662" on="1"/>
        <pt x="344" y="662" on="1"/>
        <pt x="350" y="630" on="1"/>
        <pt x="332" y="617" on="0"/>
        <pt x="289" y="593" on="0"/>
        <pt x="265" y="583" on="1"/>
        <pt x="265" y="261" on="1"/>
        <pt x="265" y="166" on="0"/>
        <pt x="349" y="80" on="0"/>
        <pt x="412" y="80" on="1"/>
        <pt x="438" y="80" on="0"/>
        <pt x="479" y="93" on="0"/>
        <pt x="495" y="105" on="1"/>
        <pt x="517" y="129" on="0"/>
        <pt x="538" y="224" on="0"/>
        <pt x="538" y="290" on="1"/>
        <pt x="538" y="596" on="1"/>
        <pt x="455" y="609" on="1"/>
        <pt x="456" y="662" on="1"/>
        <pt x="742" y="662" on="1"/>
        <pt x="748" y="630" on="1"/>
        <pt x="730" y="617" on="0"/>
        <pt x="687" y="593" on="0"/>
        <pt x="663" y="583" on="1"/>
        <pt x="663" y="290" on="1"/>
        <pt x="663" y="116" on="0"/>
        <pt x="505" y="-20" on="0"/>
      </contour>
    </TTGlyph>
    <TTGlyph name="Uacute" xMin="7" yMin="-20" xMax="748" yMax="910">
      <component glyphName="U" x="0" y="0" flags="0x204"/>
      <component glyphName="acutecomb.case" x="377" y="0" flags="0x4"/>
    </TTGlyph>
    <TTGlyph name="Ucircumflex" xMin="7" yMin="-20" xMax="748" yMax="926">
      <component glyphName="U" x="0" y="0" flags="0x204"/>
      <component glyphName="uni0302.case" x="378" y="105" flags="0x4"/>
    </TTGlyph>
    <TTGlyph name="Udieresis" xMin="7" yMin="-20" xMax="748" yMax="916">
      <component glyphName="U" x="0" y="0" flags="0x204"/>
      <component glyphName="uni0308.case" x="378" y="177" flags="0x4"/>
    </TTGlyph>
    <TTGlyph name="Ugrave" xMin="7" yMin="-20" xMax="748" yMax="910">
      <component glyphName="U" x="0" y="0" flags="0x204"/>
      <component glyphName="gravecomb.case" x="379" y="0" flags="0x4"/>
    </TTGlyph>
    <TTGlyph name="Uhungarumlaut" xMin="7" yMin="-20" xMax="748" yMax="934">
      <component glyphName="U" x="0" y="0" flags="0x204"/>
      <component glyphName="uni030B.case" x="379" y="177" flags="0x4"/>
    </TTGlyph>
    <TTGlyph name="Umacron" xMin="7" yMin="-20" xMax="748" yMax="841">
      <component glyphName="U" x="0" y="0" flags="0x204"/>
      <component glyphName="uni0304.case" x="377" y="0" flags="0x4"/>
    </TTGlyph>
    <TTGlyph name="Uogonek" xMin="7" yMin="-291" xMax="748" yMax="662">
      <component glyphName="U" x="0" y="0" flags="0x204"/>
      <component glyphName="uni0328.case" x="528" y="-9" flags="0x4"/>
    </TTGlyph>
    <TTGlyph name="Uring" xMin="7" yMin="-20" xMax="748" yMax="956">
      <component glyphName="U" x="0" y="0" flags="0x204"/>
      <component glyphName="uni030A.case" x="378" y="0" flags="0x4"/>
    </TTGlyph>
    <TTGlyph name="V" xMin="-3" yMin="-16" xMax="726" yMax="662">
      <contour>
        <pt x="286" y="-16" on="1"/>
        <pt x="69" y="598" on="1"/>
        <pt x="-3" y="609" on="1"/>
        <pt x="-2" y="662" on="1"/>
        <pt x="329" y="662" on="1"/>
        <pt x="335" y="630" on="1"/>
        <pt x="318" y="618" on="0"/>
        <pt x="277" y="596" on="0"/>
        <pt x="255" y="586" on="1"/>
        <pt x="358" y="260" on="1"/>
        <pt x="371" y="123" on="1"/>
        <pt x="379" y="123" on="1"/>
        <pt x="535" y="595" on="1"/>
        <pt x="447" y="609" on="1"/>
        <pt x="448" y="662" on="1"/>
        <pt x="720" y="662" on="1"/>
        <pt x="726" y="630" on="1"/>
        <pt x="710" y="618" on="0"/>
        <pt x="671" y="597" on="0"/>
        <pt x="649" y="587" on="1"/>
        <pt x="447" y="2" on="1"/>
        <pt x="448" y="1" on="1"/>
        <pt x="414" y="-5" on="0"/>
        <pt x="329" y="-14" on="0"/>
      </contour>
    </TTGlyph>
    <TTGlyph name="W" xMin="3" yMin="-16" xMax="1019" yMax="662">
      <contour>
        <pt x="777" y="1" on="1"/>
        <pt x="742" y="-6" on="0"/>
        <pt x="663" y="-14" on="0"/>
        <pt x="618" y="-16" on="1"/>
        <pt x="512" y="321" on="1"/>
        <pt x="489" y="204" on="1"/>
        <pt x="427" y="1" on="1"/>
        <pt x="426" y="1" on="1"/>
        <pt x="426" y="1" on="1"/>
        <pt x="392" y="-6" on="0"/>
        <pt x="313" y="-14" on="0"/>
        <pt x="268" y="-16" on="1"/>
        <pt x="71" y="598" on="1"/>
        <pt x="3" y="609" on="1"/>
        <pt x="4" y="662" on="1"/>
        <pt x="331" y="662" on="1"/>
        <pt x="337" y="630" on="1"/>
        <pt x="320" y="617" on="0"/>
        <pt x="279" y="595" on="0"/>
        <pt x="257" y="585" on="1"/>
        <pt x="344" y="264" on="1"/>
        <pt x="351" y="123" on="1"/>
        <pt x="357" y="123" on="1"/>
        <pt x="461" y="484" on="1"/>
        <pt x="418" y="621" on="1"/>
        <pt x="588" y="658" on="1"/>
        <pt x="693" y="280" on="1"/>
        <pt x="702" y="123" on="1"/>
        <pt x="704" y="123" on="1"/>
        <pt x="831" y="594" on="1"/>
        <pt x="736" y="609" on="1"/>
        <pt x="737" y="662" on="1"/>
        <pt x="1013" y="662" on="1"/>
        <pt x="1019" y="630" on="1"/>
        <pt x="1003" y="619" on="0"/>
        <pt x="966" y="598" on="0"/>
        <pt x="946" y="589" on="1"/>
      </contour>
    </TTGlyph>
    <TTGlyph name="X" xMin="-2" yMin="0" xMax="727" yMax="662">
      <contour>
        <pt x="4" y="0" on="1"/>
        <pt x="-2" y="32" on="1"/>
        <pt x="17" y="45" on="0"/>
        <pt x="60" y="69" on="0"/>
        <pt x="84" y="79" on="1"/>
        <pt x="265" y="339" on="1"/>
        <pt x="89" y="599" on="1"/>
        <pt x="24" y="609" on="1"/>
        <pt x="25" y="662" on="1"/>
        <pt x="334" y="662" on="1"/>
        <pt x="340" y="630" on="1"/>
        <pt x="329" y="622" on="0"/>
        <pt x="303" y="607" on="0"/>
        <pt x="289" y="600" on="1"/>
        <pt x="399" y="438" on="1"/>
        <pt x="498" y="597" on="1"/>
        <pt x="422" y="609" on="1"/>
        <pt x="423" y="662" on="1"/>
        <pt x="689" y="662" on="1"/>
        <pt x="695" y="630" on="1"/>
        <pt x="677" y="617" on="0"/>
        <pt x="635" y="594" on="0"/>
        <pt x="612" y="584" on="1"/>
        <pt x="459" y="351" on="1"/>
        <pt x="654" y="64" on="1"/>
        <pt x="727" y="53" on="1"/>
        <pt x="726" y="0" on="1"/>
        <pt x="400" y="0" on="1"/>
        <pt x="394" y="32" on="1"/>
        <pt x="407" y="41" on="0"/>
        <pt x="435" y="58" on="0"/>
        <pt x="451" y="65" on="1"/>
        <pt x="329" y="245" on="1"/>
        <pt x="212" y="66" on="1"/>
        <pt x="291" y="53" on="1"/>
        <pt x="290" y="0" on="1"/>
      </contour>
    </TTGlyph>
    <TTGlyph name="Y" xMin="-3" yMin="0" xMax="679" yMax="662">
      <contour>
        <pt x="173" y="0" on="1"/>
        <pt x="167" y="32" on="1"/>
        <pt x="185" y="45" on="0"/>
        <pt x="227" y="67" on="0"/>
        <pt x="249" y="77" on="1"/>
        <pt x="249" y="245" on="1"/>
        <pt x="61" y="599" on="1"/>
        <pt x="-3" y="609" on="1"/>
        <pt x="-2" y="662" on="1"/>
        <pt x="286" y="662" on="1"/>
        <pt x="292" y="630" on="1"/>
        <pt x="280" y="622" on="0"/>
        <pt x="254" y="606" on="0"/>
        <pt x="240" y="599" on="1"/>
        <pt x="327" y="436" on="1"/>
        <pt x="355" y="349" on="1"/>
        <pt x="361" y="349" on="1"/>
        <pt x="486" y="598" on="1"/>
        <pt x="415" y="609" on="1"/>
        <pt x="416" y="662" on="1"/>
        <pt x="673" y="662" on="1"/>
        <pt x="679" y="630" on="1"/>
        <pt x="660" y="617" on="0"/>
        <pt x="617" y="593" on="0"/>
        <pt x="592" y="582" on="1"/>
        <pt x="424" y="268" on="1"/>
        <pt x="424" y="66" on="1"/>
        <pt x="508" y="53" on="1"/>
        <pt x="507" y="0" on="1"/>
      </contour>
    </TTGlyph>
    <TTGlyph name="Yacute" xMin="-3" yMin="0" xMax="679" yMax="910">
      <component glyphName="Y" x="0" y="0" flags="0x204"/>
      <component glyphName="acutecomb.case" x="353" y="0" flags="0x4"/>
    </TTGlyph>
    <TTGlyph name="Ydieresis" xMin="-3" yMin="0" xMax="679" yMax="916">
      <component glyphName="Y" x="0" y="0" flags="0x204"/>
      <component glyphName="uni0308.case" x="354" y="177" flags="0x4"/>
    </TTGlyph>
    <TTGlyph name="Z" xMin="32" yMin="-1" xMax="624" yMax="662">
      <contour>
        <pt x="81" y="-1" on="1"/>
        <pt x="32" y="79" on="1"/>
        <pt x="408" y="578" on="1"/>
        <pt x="212" y="564" on="1"/>
        <pt x="172" y="429" on="1"/>
        <pt x="73" y="429" on="1"/>
        <pt x="64" y="483" on="0"/>
        <pt x="62" y="612" on="0"/>
        <pt x="66" y="662" on="1"/>
        <pt x="580" y="662" on="1"/>
        <pt x="619" y="585" on="1"/>
        <pt x="251" y="95" on="1"/>
        <pt x="465" y="103" on="1"/>
        <pt x="518" y="237" on="1"/>
        <pt x="624" y="223" on="1"/>
        <pt x="622" y="164" on="0"/>
        <pt x="609" y="61" on="0"/>
        <pt x="599" y="3" on="1"/>
        <pt x="599" y="0" on="1"/>
      </contour>
    </TTGlyph>
    <TTGlyph name="Zacute" xMin="32" yMin="-1" xMax="624" yMax="910">
      <component glyphName="Z" x="0" y="0" flags="0x204"/>
      <component glyphName="acutecomb.case" x="337" y="0" flags="0x4"/>
    </TTGlyph>
    <TTGlyph name="Zcaron" xMin="32" yMin="-1" xMax="624" yMax="921">
      <component glyphName="Z" x="0" y="0" flags="0x204"/>
      <component glyphName="uni030C.case" x="339" y="105" flags="0x4"/>
    </TTGlyph>
    <TTGlyph name="Zdotaccent" xMin="32" yMin="-1" xMax="624" yMax="917">
      <component glyphName="Z" x="0" y="0" flags="0x204"/>
      <component glyphName="uni0307.case" x="338" y="178" flags="0x4"/>
    </TTGlyph>
    <TTGlyph name="a" xMin="30" yMin="-20" xMax="556" yMax="502">
      <contour>
        <pt x="424" y="-17" on="1"/>
        <pt x="397" y="-16" on="0"/>
        <pt x="340" y="23" on="0"/>
        <pt x="322" y="56" on="1"/>
        <pt x="216" y="-13" on="1"/>
        <pt x="171" y="-20" on="0"/>
        <pt x="102" y="-1" on="0"/>
        <pt x="54" y="37" on="0"/>
        <pt x="30" y="89" on="0"/>
        <pt x="30" y="114" on="1"/>
        <pt x="30" y="145" on="0"/>
        <pt x="68" y="210" on="0"/>
        <pt x="111" y="232" on="1"/>
        <pt x="301" y="236" on="1"/>
        <pt x="301" y="318" on="1"/>
        <pt x="301" y="365" on="0"/>
        <pt x="274" y="409" on="0"/>
        <pt x="255" y="419" on="1"/>
        <pt x="241" y="418" on="0"/>
        <pt x="209" y="411" on="0"/>
        <pt x="199" y="407" on="1"/>
        <pt x="175" y="297" on="1"/>
        <pt x="77" y="295" on="1"/>
        <pt x="65" y="329" on="0"/>
        <pt x="56" y="409" on="0"/>
        <pt x="60" y="446" on="1"/>
        <pt x="91" y="458" on="0"/>
        <pt x="165" y="479" on="0"/>
        <pt x="237" y="493" on="0"/>
        <pt x="300" y="502" on="0"/>
        <pt x="321" y="502" on="1"/>
        <pt x="362" y="502" on="0"/>
        <pt x="437" y="465" on="0"/>
        <pt x="462" y="429" on="1"/>
        <pt x="469" y="417" on="0"/>
        <pt x="474" y="371" on="0"/>
        <pt x="474" y="327" on="1"/>
        <pt x="474" y="122" on="1"/>
        <pt x="474" y="112" on="0"/>
        <pt x="487" y="98" on="0"/>
        <pt x="499" y="98" on="1"/>
        <pt x="510" y="98" on="0"/>
        <pt x="534" y="100" on="0"/>
        <pt x="550" y="101" on="1"/>
        <pt x="556" y="57" on="1"/>
      </contour>
      <contour>
        <pt x="218" y="82" on="1"/>
        <pt x="239" y="83" on="0"/>
        <pt x="282" y="95" on="0"/>
        <pt x="301" y="101" on="1"/>
        <pt x="301" y="175" on="1"/>
        <pt x="265" y="176" on="0"/>
        <pt x="201" y="156" on="0"/>
        <pt x="201" y="125" on="1"/>
        <pt x="201" y="115" on="0"/>
        <pt x="209" y="90" on="0"/>
      </contour>
    </TTGlyph>
    <TTGlyph name="aacute" xMin="30" yMin="-20" xMax="556" yMax="785">
      <component glyphName="a" x="0" y="0" flags="0x204"/>
      <component glyphName="acutecomb" x="265" y="-5" flags="0x4"/>
    </TTGlyph>
    <TTGlyph name="abreve" xMin="30" yMin="-20" xMax="556" yMax="715">
      <component glyphName="a" x="0" y="0" flags="0x204"/>
      <component glyphName="uni0306" x="265" y="-5" flags="0x4"/>
    </TTGlyph>
    <TTGlyph name="acircumflex" xMin="30" yMin="-20" xMax="556" yMax="738">
      <component glyphName="a" x="0" y="0" flags="0x204"/>
      <component glyphName="uni0302" x="265" y="-5" flags="0x4"/>
    </TTGlyph>
    <TTGlyph name="acute" xMin="18" yMin="534" xMax="280" yMax="790">
      <component glyphName="acutecomb" x="117" y="0" flags="0x4"/>
    </TTGlyph>
    <TTGlyph name="acutecomb" xMin="-99" yMin="534" xMax="163" yMax="790">
      <contour>
        <pt x="163" y="695" on="1"/>
        <pt x="118" y="659" on="0"/>
        <pt x="30" y="574" on="0"/>
        <pt x="-12" y="534" on="1"/>
        <pt x="-99" y="602" on="1"/>
        <pt x="55" y="790" on="1"/>
      </contour>
    </TTGlyph>
    <TTGlyph name="acutecomb.case" xMin="-140" yMin="686" xMax="166" yMax="910">
      <contour>
        <pt x="-93" y="686" on="1"/>
        <pt x="-140" y="767" on="1"/>
        <pt x="104" y="910" on="1"/>
        <pt x="166" y="786" on="1"/>
        <pt x="103" y="762" on="0"/>
        <pt x="-31" y="712" on="0"/>
      </contour>
    </TTGlyph>
    <TTGlyph name="adieresis" xMin="30" yMin="-20" xMax="556" yMax="734">
      <component glyphName="a" x="0" y="0" flags="0x204"/>
      <component glyphName="uni0308" x="265" y="-5" flags="0x4"/>
    </TTGlyph>
    <TTGlyph name="ae" xMin="30" yMin="-22" xMax="778" yMax="500">
      <contour>
        <pt x="532" y="417" on="1"/>
        <pt x="506" y="401" on="0"/>
        <pt x="475" y="341" on="0"/>
        <pt x="469" y="307" on="1"/>
        <pt x="621" y="317" on="1"/>
        <pt x="615" y="356" on="0"/>
        <pt x="567" y="416" on="0"/>
      </contour>
      <contour>
        <pt x="218" y="82" on="1"/>
        <pt x="240" y="83" on="0"/>
        <pt x="308" y="104" on="0"/>
        <pt x="333" y="112" on="1"/>
        <pt x="326" y="126" on="0"/>
        <pt x="314" y="158" on="0"/>
        <pt x="310" y="175" on="1"/>
        <pt x="304" y="175" on="1"/>
        <pt x="267" y="176" on="0"/>
        <pt x="201" y="156" on="0"/>
        <pt x="201" y="125" on="1"/>
        <pt x="201" y="115" on="0"/>
        <pt x="209" y="90" on="0"/>
      </contour>
      <contour>
        <pt x="216" y="-13" on="1"/>
        <pt x="171" y="-20" on="0"/>
        <pt x="102" y="-1" on="0"/>
        <pt x="54" y="37" on="0"/>
        <pt x="30" y="89" on="0"/>
        <pt x="30" y="114" on="1"/>
        <pt x="30" y="145" on="0"/>
        <pt x="68" y="210" on="0"/>
        <pt x="111" y="232" on="1"/>
        <pt x="303" y="236" on="1"/>
        <pt x="302" y="314" on="1"/>
        <pt x="301" y="361" on="0"/>
        <pt x="275" y="404" on="0"/>
        <pt x="256" y="413" on="1"/>
        <pt x="242" y="412" on="0"/>
        <pt x="210" y="406" on="0"/>
        <pt x="200" y="402" on="1"/>
        <pt x="176" y="292" on="1"/>
        <pt x="72" y="295" on="1"/>
        <pt x="62" y="329" on="0"/>
        <pt x="57" y="404" on="0"/>
        <pt x="61" y="441" on="1"/>
        <pt x="124" y="466" on="0"/>
        <pt x="277" y="498" on="0"/>
        <pt x="334" y="498" on="1"/>
        <pt x="356" y="497" on="0"/>
        <pt x="398" y="472" on="0"/>
        <pt x="415" y="453" on="1"/>
        <pt x="446" y="475" on="0"/>
        <pt x="520" y="500" on="0"/>
        <pt x="559" y="500" on="1"/>
        <pt x="596" y="500" on="0"/>
        <pt x="675" y="476" on="0"/>
        <pt x="738" y="425" on="0"/>
        <pt x="778" y="344" on="0"/>
        <pt x="777" y="287" on="1"/>
        <pt x="770" y="286" on="1"/>
        <pt x="713" y="229" on="1"/>
        <pt x="465" y="231" on="1"/>
        <pt x="472" y="161" on="0"/>
        <pt x="554" y="96" on="0"/>
        <pt x="611" y="96" on="1"/>
        <pt x="645" y="96" on="0"/>
        <pt x="705" y="115" on="0"/>
        <pt x="740" y="134" on="1"/>
        <pt x="765" y="77" on="1"/>
        <pt x="608" y="-12" on="1"/>
        <pt x="534" y="-22" on="0"/>
        <pt x="406" y="21" on="0"/>
        <pt x="364" y="69" on="1"/>
      </contour>
    </TTGlyph>
    <TTGlyph name="agrave" xMin="30" yMin="-20" xMax="556" yMax="785">
      <component glyphName="a" x="0" y="0" flags="0x204"/>
      <component glyphName="gravecomb" x="265" y="-5" flags="0x4"/>
    </TTGlyph>
    <TTGlyph name="amacron" xMin="30" yMin="-20" xMax="556" yMax="661">
      <component glyphName="a" x="0" y="0" flags="0x204"/>
      <component glyphName="uni0304" x="264" y="-5" flags="0x4"/>
    </TTGlyph>
    <TTGlyph name="ampersand" xMin="12" yMin="-28" xMax="739" yMax="668">
      <contour>
        <pt x="612" y="225" on="1"/>
        <pt x="612" y="120" on="0"/>
        <pt x="457" y="-28" on="0"/>
        <pt x="318" y="-28" on="1"/>
        <pt x="254" y="-28" on="0"/>
        <pt x="142" y="6" on="0"/>
        <pt x="60" y="67" on="0"/>
        <pt x="12" y="153" on="0"/>
        <pt x="12" y="204" on="1"/>
        <pt x="12" y="264" on="0"/>
        <pt x="74" y="346" on="0"/>
        <pt x="119" y="366" on="1"/>
        <pt x="76" y="388" on="0"/>
        <pt x="33" y="457" on="0"/>
        <pt x="33" y="494" on="1"/>
        <pt x="33" y="557" on="0"/>
        <pt x="156" y="668" on="0"/>
        <pt x="275" y="668" on="1"/>
        <pt x="322" y="668" on="0"/>
        <pt x="435" y="646" on="0"/>
        <pt x="485" y="624" on="1"/>
        <pt x="432" y="488" on="1"/>
        <pt x="250" y="564" on="1"/>
        <pt x="224" y="554" on="0"/>
        <pt x="189" y="502" on="0"/>
        <pt x="189" y="472" on="1"/>
        <pt x="189" y="454" on="0"/>
        <pt x="204" y="415" on="0"/>
        <pt x="219" y="399" on="1"/>
        <pt x="324" y="361" on="1"/>
        <pt x="307" y="287" on="1"/>
        <pt x="243" y="288" on="0"/>
        <pt x="172" y="227" on="0"/>
        <pt x="172" y="181" on="1"/>
        <pt x="172" y="126" on="0"/>
        <pt x="260" y="70" on="0"/>
        <pt x="316" y="70" on="1"/>
        <pt x="339" y="70" on="0"/>
        <pt x="395" y="81" on="0"/>
        <pt x="416" y="93" on="1"/>
        <pt x="444" y="115" on="0"/>
        <pt x="471" y="180" on="0"/>
        <pt x="471" y="217" on="1"/>
        <pt x="471" y="243" on="0"/>
        <pt x="458" y="297" on="0"/>
        <pt x="446" y="321" on="1"/>
        <pt x="433" y="314" on="0"/>
        <pt x="405" y="297" on="0"/>
        <pt x="390" y="287" on="1"/>
        <pt x="352" y="358" on="1"/>
        <pt x="492" y="444" on="0"/>
        <pt x="678" y="491" on="0"/>
        <pt x="739" y="431" on="1"/>
        <pt x="696" y="308" on="1"/>
        <pt x="668" y="326" on="0"/>
        <pt x="613" y="354" on="0"/>
        <pt x="581" y="356" on="1"/>
        <pt x="597" y="324" on="0"/>
        <pt x="612" y="256" on="0"/>
      </contour>
    </TTGlyph>
    <TTGlyph name="aogonek" xMin="30" yMin="-261" xMax="556" yMax="502">
      <component glyphName="a" x="0" y="0" flags="0x204"/>
      <component glyphName="uni0328" x="499" y="2" flags="0x4"/>
    </TTGlyph>
    <TTGlyph name="approxequal" xMin="55" yMin="54" xMax="525" yMax="449">
      <component glyphName="tildecomb.case" x="281" y="-453" flags="0x4"/>
      <component glyphName="tildecomb.case" x="281" y="-647" flags="0x4"/>
    </TTGlyph>
    <TTGlyph name="aring" xMin="30" yMin="-20" xMax="556" yMax="774">
      <component glyphName="a" x="0" y="0" flags="0x204"/>
      <component glyphName="uni030A" x="265" y="-182" flags="0x4"/>
    </TTGlyph>
    <TTGlyph name="asciicircum" xMin="16" yMin="321" xMax="485" yMax="650">
      <contour>
        <pt x="16" y="374" on="1"/>
        <pt x="202" y="650" on="1"/>
        <pt x="292" y="650" on="1"/>
        <pt x="485" y="376" on="1"/>
        <pt x="404" y="323" on="1"/>
        <pt x="252" y="539" on="1"/>
        <pt x="245" y="539" on="1"/>
        <pt x="102" y="321" on="1"/>
      </contour>
    </TTGlyph>
    <TTGlyph name="asciitilde" xMin="70" yMin="167" xMax="540" yMax="368">
      <component glyphName="tildecomb.case" x="296" y="-534" flags="0x4"/>
    </TTGlyph>
    <TTGlyph name="asterisk" xMin="-4" yMin="394" xMax="390" yMax="784">
      <contour>
        <pt x="362" y="668" on="1"/>
        <pt x="390" y="538" on="1"/>
        <pt x="237" y="592" on="1"/>
        <pt x="228" y="653" on="1"/>
      </contour>
      <contour>
        <pt x="162" y="639" on="1"/>
        <pt x="132" y="584" on="1"/>
        <pt x="16" y="651" on="1"/>
        <pt x="69" y="775" on="1"/>
        <pt x="152" y="653" on="1"/>
        <pt x="182" y="784" on="1"/>
        <pt x="316" y="769" on="1"/>
        <pt x="214" y="640" on="1"/>
        <pt x="152" y="653" on="1"/>
      </contour>
      <contour>
        <pt x="95" y="454" on="1"/>
        <pt x="-4" y="547" on="1"/>
        <pt x="154" y="589" on="1"/>
        <pt x="196" y="543" on="1"/>
      </contour>
      <contour>
        <pt x="308" y="461" on="1"/>
        <pt x="192" y="394" on="1"/>
        <pt x="198" y="558" on="1"/>
        <pt x="255" y="584" on="1"/>
      </contour>
    </TTGlyph>
    <TTGlyph name="at" xMin="50" yMin="-48" xMax="1043" yMax="730">
      <contour>
        <pt x="215" y="-48" on="1"/>
        <pt x="131" y="30" on="0"/>
        <pt x="50" y="215" on="0"/>
        <pt x="50" y="305" on="1"/>
        <pt x="50" y="388" on="0"/>
        <pt x="117" y="542" on="0"/>
        <pt x="245" y="659" on="0"/>
        <pt x="435" y="730" on="0"/>
        <pt x="556" y="730" on="1"/>
        <pt x="680" y="730" on="0"/>
        <pt x="865" y="657" on="0"/>
        <pt x="984" y="539" on="0"/>
        <pt x="1043" y="391" on="0"/>
        <pt x="1043" y="316" on="1"/>
        <pt x="1043" y="258" on="0"/>
        <pt x="1008" y="147" on="0"/>
        <pt x="939" y="58" on="0"/>
        <pt x="837" y="-6" on="0"/>
        <pt x="770" y="-17" on="1"/>
        <pt x="702" y="-21" on="0"/>
        <pt x="629" y="22" on="0"/>
        <pt x="610" y="56" on="1"/>
        <pt x="504" y="-13" on="1"/>
        <pt x="459" y="-20" on="0"/>
        <pt x="390" y="-1" on="0"/>
        <pt x="342" y="37" on="0"/>
        <pt x="318" y="88" on="0"/>
        <pt x="318" y="113" on="1"/>
        <pt x="318" y="144" on="0"/>
        <pt x="356" y="210" on="0"/>
        <pt x="399" y="231" on="1"/>
        <pt x="589" y="236" on="1"/>
        <pt x="589" y="313" on="1"/>
        <pt x="589" y="360" on="0"/>
        <pt x="561" y="404" on="0"/>
        <pt x="543" y="413" on="1"/>
        <pt x="528" y="412" on="0"/>
        <pt x="497" y="406" on="0"/>
        <pt x="487" y="402" on="1"/>
        <pt x="463" y="290" on="1"/>
        <pt x="364" y="289" on="1"/>
        <pt x="353" y="326" on="0"/>
        <pt x="343" y="404" on="0"/>
        <pt x="346" y="441" on="1"/>
        <pt x="377" y="453" on="0"/>
        <pt x="451" y="473" on="0"/>
        <pt x="522" y="487" on="0"/>
        <pt x="586" y="496" on="0"/>
        <pt x="608" y="496" on="1"/>
        <pt x="649" y="496" on="0"/>
        <pt x="729" y="455" on="0"/>
        <pt x="750" y="424" on="1"/>
        <pt x="757" y="412" on="0"/>
        <pt x="762" y="366" on="0"/>
        <pt x="762" y="321" on="1"/>
        <pt x="762" y="124" on="1"/>
        <pt x="762" y="95" on="0"/>
        <pt x="796" y="98" on="0"/>
        <pt x="812" y="112" on="1"/>
        <pt x="843" y="140" on="0"/>
        <pt x="879" y="253" on="0"/>
        <pt x="879" y="309" on="1"/>
        <pt x="879" y="370" on="0"/>
        <pt x="837" y="477" on="0"/>
        <pt x="756" y="556" on="0"/>
        <pt x="637" y="601" on="0"/>
        <pt x="561" y="601" on="1"/>
        <pt x="478" y="601" on="0"/>
        <pt x="349" y="548" on="0"/>
        <pt x="262" y="458" on="0"/>
        <pt x="217" y="338" on="0"/>
        <pt x="217" y="272" on="1"/>
        <pt x="217" y="207" on="0"/>
        <pt x="262" y="72" on="0"/>
        <pt x="307" y="9" on="1"/>
      </contour>
      <contour>
        <pt x="506" y="81" on="1"/>
        <pt x="527" y="82" on="0"/>
        <pt x="570" y="94" on="0"/>
        <pt x="589" y="100" on="1"/>
        <pt x="589" y="174" on="1"/>
        <pt x="553" y="175" on="0"/>
        <pt x="489" y="155" on="0"/>
        <pt x="489" y="124" on="1"/>
        <pt x="489" y="114" on="0"/>
        <pt x="497" y="89" on="0"/>
      </contour>
    </TTGlyph>
    <TTGlyph name="atilde" xMin="30" yMin="-20" xMax="556" yMax="737">
      <component glyphName="a" x="0" y="0" flags="0x204"/>
      <component glyphName="tildecomb" x="265" y="-5" flags="0x4"/>
    </TTGlyph>
    <TTGlyph name="b" xMin="-23" yMin="-18" xMax="555" yMax="737">
      <contour>
        <pt x="264" y="-18" on="1"/>
        <pt x="217" y="-18" on="0"/>
        <pt x="107" y="2" on="0"/>
        <pt x="55" y="20" on="1"/>
        <pt x="56" y="21" on="1"/>
        <pt x="56" y="637" on="1"/>
        <pt x="-19" y="650" on="1"/>
        <pt x="-23" y="700" on="1"/>
        <pt x="20" y="716" on="0"/>
        <pt x="123" y="734" on="0"/>
        <pt x="175" y="737" on="1"/>
        <pt x="229" y="687" on="1"/>
        <pt x="229" y="414" on="1"/>
        <pt x="335" y="491" on="1"/>
        <pt x="386" y="500" on="0"/>
        <pt x="469" y="468" on="0"/>
        <pt x="525" y="403" on="0"/>
        <pt x="555" y="312" on="0"/>
        <pt x="555" y="262" on="1"/>
        <pt x="555" y="208" on="0"/>
        <pt x="519" y="107" on="0"/>
        <pt x="447" y="29" on="0"/>
        <pt x="337" y="-18" on="0"/>
      </contour>
      <contour>
        <pt x="278" y="373" on="1"/>
        <pt x="266" y="373" on="0"/>
        <pt x="242" y="367" on="0"/>
        <pt x="229" y="361" on="1"/>
        <pt x="229" y="83" on="1"/>
        <pt x="248" y="77" on="0"/>
        <pt x="292" y="72" on="0"/>
        <pt x="316" y="76" on="1"/>
        <pt x="345" y="101" on="0"/>
        <pt x="377" y="187" on="0"/>
        <pt x="377" y="232" on="1"/>
        <pt x="377" y="288" on="0"/>
        <pt x="324" y="373" on="0"/>
      </contour>
    </TTGlyph>
    <TTGlyph name="backslash" xMin="-29" yMin="-126" xMax="406" yMax="731">
      <contour>
        <pt x="406" y="-78" on="1"/>
        <pt x="278" y="-126" on="1"/>
        <pt x="-29" y="681" on="1"/>
        <pt x="98" y="731" on="1"/>
      </contour>
    </TTGlyph>
    <TTGlyph name="bar" xMin="96" yMin="-225" xMax="225" yMax="735">
      <contour>
        <pt x="225" y="-225" on="1"/>
        <pt x="96" y="-225" on="1"/>
        <pt x="96" y="735" on="1"/>
        <pt x="224" y="735" on="1"/>
      </contour>
    </TTGlyph>
    <TTGlyph name="braceleft" xMin="64" yMin="-145" xMax="446" yMax="729">
      <contour>
        <pt x="443" y="-36" on="1"/>
        <pt x="433" y="-145" on="1"/>
        <pt x="366" y="-141" on="0"/>
        <pt x="262" y="-106" on="0"/>
        <pt x="193" y="-56" on="0"/>
        <pt x="157" y="2" on="0"/>
        <pt x="157" y="28" on="1"/>
        <pt x="157" y="142" on="1"/>
        <pt x="157" y="202" on="0"/>
        <pt x="130" y="264" on="0"/>
        <pt x="64" y="268" on="1"/>
        <pt x="70" y="327" on="1"/>
        <pt x="130" y="331" on="0"/>
        <pt x="157" y="392" on="0"/>
        <pt x="157" y="443" on="1"/>
        <pt x="157" y="543" on="1"/>
        <pt x="157" y="602" on="0"/>
        <pt x="290" y="719" on="0"/>
        <pt x="440" y="729" on="1"/>
        <pt x="446" y="620" on="1"/>
        <pt x="329" y="620" on="1"/>
        <pt x="341" y="449" on="1"/>
        <pt x="345" y="410" on="0"/>
        <pt x="315" y="335" on="0"/>
        <pt x="285" y="304" on="1"/>
        <pt x="285" y="295" on="1"/>
        <pt x="315" y="263" on="0"/>
        <pt x="345" y="189" on="0"/>
        <pt x="341" y="149" on="1"/>
        <pt x="329" y="-24" on="1"/>
      </contour>
    </TTGlyph>
    <TTGlyph name="braceright" xMin="84" yMin="-145" xMax="466" yMax="729">
      <contour>
        <pt x="373" y="28" on="1"/>
        <pt x="373" y="2" on="0"/>
        <pt x="337" y="-56" on="0"/>
        <pt x="268" y="-106" on="0"/>
        <pt x="164" y="-141" on="0"/>
        <pt x="97" y="-145" on="1"/>
        <pt x="87" y="-36" on="1"/>
        <pt x="201" y="-24" on="1"/>
        <pt x="189" y="149" on="1"/>
        <pt x="186" y="189" on="0"/>
        <pt x="217" y="263" on="0"/>
        <pt x="245" y="295" on="1"/>
        <pt x="245" y="304" on="1"/>
        <pt x="217" y="335" on="0"/>
        <pt x="186" y="410" on="0"/>
        <pt x="189" y="449" on="1"/>
        <pt x="201" y="620" on="1"/>
        <pt x="84" y="620" on="1"/>
        <pt x="90" y="729" on="1"/>
        <pt x="240" y="719" on="0"/>
        <pt x="373" y="602" on="0"/>
        <pt x="373" y="543" on="1"/>
        <pt x="373" y="443" on="1"/>
        <pt x="373" y="392" on="0"/>
        <pt x="400" y="331" on="0"/>
        <pt x="460" y="327" on="1"/>
        <pt x="466" y="268" on="1"/>
        <pt x="400" y="264" on="0"/>
        <pt x="373" y="202" on="0"/>
        <pt x="373" y="142" on="1"/>
      </contour>
    </TTGlyph>
    <TTGlyph name="bracketleft" xMin="88" yMin="-122" xMax="389" yMax="712">
      <contour>
        <pt x="88" y="712" on="1"/>
        <pt x="383" y="712" on="1"/>
        <pt x="389" y="650" on="1"/>
        <pt x="259" y="616" on="1"/>
        <pt x="259" y="-26" on="1"/>
        <pt x="389" y="-60" on="1"/>
        <pt x="383" y="-122" on="1"/>
        <pt x="88" y="-122" on="1"/>
      </contour>
    </TTGlyph>
    <TTGlyph name="bracketright" xMin="28" yMin="-122" xMax="329" yMax="712">
      <contour>
        <pt x="28" y="650" on="1"/>
        <pt x="34" y="712" on="1"/>
        <pt x="329" y="712" on="1"/>
        <pt x="329" y="-122" on="1"/>
        <pt x="34" y="-122" on="1"/>
        <pt x="28" y="-60" on="1"/>
        <pt x="158" y="-26" on="1"/>
        <pt x="158" y="616" on="1"/>
      </contour>
    </TTGlyph>
    <TTGlyph name="breve" xMin="28" yMin="550" xMax="366" yMax="720">
      <component glyphName="uni0306" x="196" y="0" flags="0x4"/>
    </TTGlyph>
    <TTGlyph name="brokenbar" xMin="96" yMin="-76" xMax="224" yMax="616">
      <contour>
        <pt x="224" y="358" on="1"/>
        <pt x="96" y="358" on="1"/>
        <pt x="96" y="616" on="1"/>
        <pt x="224" y="616" on="1"/>
      </contour>
      <contour>
        <pt x="224" y="-76" on="1"/>
        <pt x="96" y="-76" on="1"/>
        <pt x="96" y="182" on="1"/>
        <pt x="224" y="182" on="1"/>
      </contour>
    </TTGlyph>
    <TTGlyph name="bullet" xMin="58" yMin="95" xMax="359" yMax="415">
      <contour>
        <pt x="199" y="415" on="1"/>
        <pt x="254" y="392" on="0"/>
        <pt x="340" y="309" on="0"/>
        <pt x="359" y="254" on="1"/>
        <pt x="343" y="203" on="0"/>
        <pt x="276" y="121" on="0"/>
        <pt x="224" y="95" on="1"/>
        <pt x="167" y="114" on="0"/>
        <pt x="83" y="180" on="0"/>
        <pt x="58" y="229" on="1"/>
        <pt x="68" y="293" on="0"/>
        <pt x="144" y="384" on="0"/>
      </contour>
    </TTGlyph>
    <TTGlyph name="bulletoperator" xMin="30" yMin="169" xMax="224" yMax="362">
      <contour>
        <pt x="224" y="277" on="1"/>
        <pt x="213" y="248" on="0"/>
        <pt x="165" y="186" on="0"/>
        <pt x="140" y="169" on="1"/>
        <pt x="114" y="179" on="0"/>
        <pt x="47" y="230" on="0"/>
        <pt x="30" y="254" on="1"/>
        <pt x="46" y="286" on="0"/>
        <pt x="94" y="348" on="0"/>
        <pt x="119" y="362" on="1"/>
        <pt x="148" y="350" on="0"/>
        <pt x="208" y="298" on="0"/>
      </contour>
    </TTGlyph>
    <TTGlyph name="c" xMin="11" yMin="-22" xMax="463" yMax="500">
      <contour>
        <pt x="427" y="126" on="1"/>
        <pt x="451" y="71" on="1"/>
        <pt x="306" y="-13" on="1"/>
        <pt x="248" y="-22" on="0"/>
        <pt x="141" y="6" on="0"/>
        <pt x="60" y="72" on="0"/>
        <pt x="11" y="174" on="0"/>
        <pt x="11" y="239" on="1"/>
        <pt x="11" y="355" on="0"/>
        <pt x="158" y="500" on="0"/>
        <pt x="264" y="500" on="1"/>
        <pt x="330" y="500" on="0"/>
        <pt x="444" y="436" on="0"/>
        <pt x="463" y="370" on="1"/>
        <pt x="326" y="293" on="1"/>
        <pt x="305" y="334" on="0"/>
        <pt x="256" y="393" on="0"/>
        <pt x="226" y="409" on="1"/>
        <pt x="198" y="379" on="0"/>
        <pt x="178" y="299" on="0"/>
        <pt x="178" y="265" on="1"/>
        <pt x="178" y="193" on="0"/>
        <pt x="249" y="96" on="0"/>
        <pt x="318" y="96" on="1"/>
        <pt x="343" y="96" on="0"/>
        <pt x="398" y="112" on="0"/>
      </contour>
    </TTGlyph>
    <TTGlyph name="cacute" xMin="11" yMin="-22" xMax="463" yMax="785">
      <component glyphName="c" x="0" y="0" flags="0x204"/>
      <component glyphName="acutecomb" x="262" y="-5" flags="0x4"/>
    </TTGlyph>
    <TTGlyph name="caron" xMin="29" yMin="541" xMax="433" yMax="775">
      <component glyphName="uni030C" x="237" y="0" flags="0x4"/>
    </TTGlyph>
    <TTGlyph name="ccaron" xMin="11" yMin="-22" xMax="463" yMax="770">
      <component glyphName="c" x="0" y="0" flags="0x204"/>
      <component glyphName="uni030C" x="262" y="-5" flags="0x4"/>
    </TTGlyph>
    <TTGlyph name="ccedilla" xMin="11" yMin="-271" xMax="463" yMax="500">
      <component glyphName="c" x="0" y="0" flags="0x204"/>
      <component glyphName="uni0327" x="250" y="0" flags="0x4"/>
    </TTGlyph>
    <TTGlyph name="cedilla" xMin="32" yMin="-271" xMax="259" yMax="6">
      <component glyphName="uni0327" x="131" y="0" flags="0x4"/>
    </TTGlyph>
    <TTGlyph name="cent" xMin="11" yMin="-117" xMax="463" yMax="599">
      <contour>
        <pt x="451" y="86" on="1"/>
        <pt x="314" y="11" on="1"/>
        <pt x="314" y="-117" on="1"/>
        <pt x="216" y="-117" on="1"/>
        <pt x="216" y="7" on="1"/>
        <pt x="130" y="20" on="0"/>
        <pt x="11" y="146" on="0"/>
        <pt x="11" y="243" on="1"/>
        <pt x="11" y="340" on="0"/>
        <pt x="128" y="470" on="0"/>
        <pt x="216" y="484" on="1"/>
        <pt x="216" y="599" on="1"/>
        <pt x="314" y="599" on="1"/>
        <pt x="314" y="484" on="1"/>
        <pt x="365" y="474" on="0"/>
        <pt x="447" y="416" on="0"/>
        <pt x="463" y="366" on="1"/>
        <pt x="326" y="294" on="1"/>
        <pt x="305" y="332" on="0"/>
        <pt x="256" y="387" on="0"/>
        <pt x="226" y="403" on="1"/>
        <pt x="198" y="375" on="0"/>
        <pt x="178" y="299" on="0"/>
        <pt x="178" y="268" on="1"/>
        <pt x="178" y="200" on="0"/>
        <pt x="249" y="109" on="0"/>
        <pt x="318" y="109" on="1"/>
        <pt x="343" y="109" on="0"/>
        <pt x="398" y="124" on="0"/>
        <pt x="427" y="137" on="1"/>
      </contour>
    </TTGlyph>
    <TTGlyph name="circumflex" xMin="27" yMin="529" xMax="407" yMax="743">
      <component glyphName="uni0302" x="213" y="0" flags="0x4"/>
    </TTGlyph>
    <TTGlyph name="colon" xMin="78" yMin="-20" xMax="268" yMax="491">
      <contour>
        <pt x="168" y="491" on="1"/>
        <pt x="204" y="475" on="0"/>
        <pt x="259" y="424" on="0"/>
        <pt x="268" y="390" on="1"/>
        <pt x="258" y="356" on="0"/>
        <pt x="215" y="305" on="0"/>
        <pt x="183" y="289" on="1"/>
        <pt x="147" y="300" on="0"/>
        <pt x="94" y="343" on="0"/>
        <pt x="78" y="374" on="1"/>
        <pt x="84" y="414" on="0"/>
        <pt x="132" y="472" on="0"/>
      </contour>
      <contour>
        <pt x="168" y="183" on="1"/>
        <pt x="204" y="167" on="0"/>
        <pt x="259" y="114" on="0"/>
        <pt x="268" y="81" on="1"/>
        <pt x="258" y="47" on="0"/>
        <pt x="215" y="-4" on="0"/>
        <pt x="183" y="-20" on="1"/>
        <pt x="147" y="-10" on="0"/>
        <pt x="94" y="33" on="0"/>
        <pt x="78" y="65" on="1"/>
        <pt x="84" y="105" on="0"/>
        <pt x="132" y="163" on="0"/>
      </contour>
    </TTGlyph>
    <TTGlyph name="comma" xMin="49" yMin="-142" xMax="250" yMax="181">
      <contour>
        <pt x="92" y="-142" on="1"/>
        <pt x="49" y="-91" on="1"/>
        <pt x="79" y="-66" on="0"/>
        <pt x="117" y="-5" on="0"/>
        <pt x="118" y="20" on="1"/>
        <pt x="64" y="66" on="1"/>
        <pt x="71" y="106" on="0"/>
        <pt x="119" y="163" on="0"/>
        <pt x="152" y="181" on="1"/>
        <pt x="202" y="162" on="0"/>
        <pt x="250" y="97" on="0"/>
        <pt x="250" y="59" on="1"/>
        <pt x="250" y="2" on="0"/>
        <pt x="155" y="-114" on="0"/>
      </contour>
    </TTGlyph>
    <TTGlyph name="copyright" xMin="33" yMin="-24" xMax="750" yMax="691">
      <contour>
        <pt x="750" y="331" on="1"/>
        <pt x="750" y="257" on="0"/>
        <pt x="694" y="127" on="0"/>
        <pt x="598" y="31" on="0"/>
        <pt x="467" y="-24" on="0"/>
        <pt x="392" y="-24" on="1"/>
        <pt x="318" y="-24" on="0"/>
        <pt x="186" y="31" on="0"/>
        <pt x="89" y="126" on="0"/>
        <pt x="33" y="257" on="0"/>
        <pt x="33" y="332" on="1"/>
        <pt x="33" y="407" on="0"/>
        <pt x="89" y="538" on="0"/>
        <pt x="185" y="635" on="0"/>
        <pt x="315" y="691" on="0"/>
        <pt x="389" y="691" on="1"/>
        <pt x="463" y="691" on="0"/>
        <pt x="595" y="635" on="0"/>
        <pt x="693" y="538" on="0"/>
        <pt x="750" y="406" on="0"/>
      </contour>
      <contour>
        <pt x="112" y="330" on="1"/>
        <pt x="112" y="213" on="0"/>
        <pt x="273" y="53" on="0"/>
        <pt x="389" y="53" on="1"/>
        <pt x="449" y="53" on="0"/>
        <pt x="553" y="97" on="0"/>
        <pt x="629" y="173" on="0"/>
        <pt x="672" y="276" on="0"/>
        <pt x="672" y="333" on="1"/>
        <pt x="672" y="391" on="0"/>
        <pt x="628" y="493" on="0"/>
        <pt x="552" y="569" on="0"/>
        <pt x="449" y="613" on="0"/>
        <pt x="392" y="613" on="1"/>
        <pt x="335" y="613" on="0"/>
        <pt x="232" y="569" on="0"/>
        <pt x="156" y="493" on="0"/>
        <pt x="112" y="389" on="0"/>
      </contour>
      <contour>
        <pt x="540" y="249" on="1"/>
        <pt x="558" y="204" on="1"/>
        <pt x="430" y="136" on="1"/>
        <pt x="337" y="128" on="0"/>
        <pt x="200" y="233" on="0"/>
        <pt x="200" y="330" on="1"/>
        <pt x="200" y="418" on="0"/>
        <pt x="317" y="529" on="0"/>
        <pt x="405" y="529" on="1"/>
        <pt x="455" y="529" on="0"/>
        <pt x="542" y="482" on="0"/>
        <pt x="570" y="420" on="1"/>
        <pt x="460" y="360" on="1"/>
        <pt x="444" y="395" on="0"/>
        <pt x="405" y="443" on="0"/>
        <pt x="374" y="458" on="1"/>
        <pt x="352" y="436" on="0"/>
        <pt x="331" y="375" on="0"/>
        <pt x="331" y="349" on="1"/>
        <pt x="331" y="300" on="0"/>
        <pt x="398" y="233" on="0"/>
        <pt x="461" y="233" on="1"/>
        <pt x="482" y="233" on="0"/>
        <pt x="518" y="242" on="0"/>
      </contour>
    </TTGlyph>
    <TTGlyph name="currency" xMin="48" yMin="123" xMax="462" yMax="585">
      <contour>
        <pt x="271" y="253" on="1"/>
        <pt x="277" y="253" on="0"/>
        <pt x="296" y="255" on="0"/>
        <pt x="305" y="257" on="1"/>
        <pt x="318" y="268" on="0"/>
        <pt x="337" y="319" on="0"/>
        <pt x="337" y="348" on="1"/>
        <pt x="337" y="388" on="0"/>
        <pt x="293" y="456" on="0"/>
        <pt x="238" y="456" on="1"/>
        <pt x="230" y="456" on="0"/>
        <pt x="215" y="454" on="0"/>
        <pt x="205" y="453" on="1"/>
        <pt x="190" y="440" on="0"/>
        <pt x="171" y="391" on="0"/>
        <pt x="171" y="363" on="1"/>
        <pt x="171" y="322" on="0"/>
        <pt x="219" y="253" on="0"/>
      </contour>
      <contour>
        <pt x="254" y="161" on="1"/>
        <pt x="228" y="161" on="0"/>
        <pt x="179" y="174" on="0"/>
        <pt x="159" y="187" on="1"/>
        <pt x="106" y="123" on="1"/>
        <pt x="54" y="170" on="1"/>
        <pt x="109" y="232" on="1"/>
        <pt x="90" y="257" on="0"/>
        <pt x="69" y="321" on="0"/>
        <pt x="69" y="357" on="1"/>
        <pt x="69" y="391" on="0"/>
        <pt x="89" y="450" on="0"/>
        <pt x="106" y="473" on="1"/>
        <pt x="48" y="538" on="1"/>
        <pt x="101" y="585" on="1"/>
        <pt x="158" y="521" on="1"/>
        <pt x="180" y="535" on="0"/>
        <pt x="232" y="550" on="0"/>
        <pt x="258" y="550" on="1"/>
        <pt x="284" y="550" on="0"/>
        <pt x="334" y="536" on="0"/>
        <pt x="356" y="523" on="1"/>
        <pt x="408" y="584" on="1"/>
        <pt x="462" y="539" on="1"/>
        <pt x="405" y="476" on="1"/>
        <pt x="421" y="453" on="0"/>
        <pt x="439" y="394" on="0"/>
        <pt x="439" y="357" on="1"/>
        <pt x="439" y="320" on="0"/>
        <pt x="419" y="260" on="0"/>
        <pt x="402" y="237" on="1"/>
        <pt x="460" y="174" on="1"/>
        <pt x="410" y="125" on="1"/>
        <pt x="351" y="189" on="1"/>
        <pt x="329" y="176" on="0"/>
        <pt x="279" y="161" on="0"/>
      </contour>
    </TTGlyph>
    <TTGlyph name="d" xMin="11" yMin="-18" xMax="588" yMax="737">
      <contour>
        <pt x="290" y="110" on="1"/>
        <pt x="299" y="110" on="0"/>
        <pt x="321" y="114" on="0"/>
        <pt x="333" y="118" on="1"/>
        <pt x="333" y="389" on="1"/>
        <pt x="314" y="398" on="0"/>
        <pt x="270" y="407" on="0"/>
        <pt x="247" y="406" on="1"/>
        <pt x="220" y="381" on="0"/>
        <pt x="191" y="296" on="0"/>
        <pt x="191" y="252" on="1"/>
        <pt x="191" y="194" on="0"/>
        <pt x="242" y="110" on="0"/>
      </contour>
      <contour>
        <pt x="234" y="-17" on="1"/>
        <pt x="182" y="-18" on="0"/>
        <pt x="99" y="23" on="0"/>
        <pt x="42" y="92" on="0"/>
        <pt x="11" y="184" on="0"/>
        <pt x="11" y="234" on="1"/>
        <pt x="11" y="285" on="0"/>
        <pt x="46" y="381" on="0"/>
        <pt x="114" y="453" on="0"/>
        <pt x="213" y="497" on="0"/>
        <pt x="277" y="497" on="1"/>
        <pt x="291" y="497" on="0"/>
        <pt x="320" y="494" on="0"/>
        <pt x="333" y="492" on="1"/>
        <pt x="333" y="637" on="1"/>
        <pt x="259" y="650" on="1"/>
        <pt x="254" y="700" on="1"/>
        <pt x="297" y="716" on="0"/>
        <pt x="400" y="734" on="0"/>
        <pt x="452" y="737" on="1"/>
        <pt x="506" y="687" on="1"/>
        <pt x="506" y="122" on="1"/>
        <pt x="506" y="112" on="0"/>
        <pt x="520" y="98" on="0"/>
        <pt x="531" y="98" on="1"/>
        <pt x="542" y="98" on="0"/>
        <pt x="566" y="100" on="0"/>
        <pt x="582" y="101" on="1"/>
        <pt x="588" y="57" on="1"/>
        <pt x="455" y="-17" on="1"/>
        <pt x="425" y="-16" on="0"/>
        <pt x="364" y="31" on="0"/>
        <pt x="348" y="68" on="1"/>
      </contour>
    </TTGlyph>
    <TTGlyph name="dagger" xMin="38" yMin="-180" xMax="529" yMax="689">
      <contour>
        <pt x="486" y="377" on="1"/>
        <pt x="362" y="377" on="1"/>
        <pt x="336" y="-180" on="1"/>
        <pt x="215" y="-180" on="1"/>
        <pt x="195" y="377" on="1"/>
        <pt x="44" y="377" on="1"/>
        <pt x="38" y="412" on="1"/>
        <pt x="81" y="469" on="1"/>
        <pt x="191" y="469" on="1"/>
        <pt x="185" y="645" on="1"/>
        <pt x="225" y="689" on="1"/>
        <pt x="376" y="685" on="1"/>
        <pt x="366" y="469" on="1"/>
        <pt x="523" y="469" on="1"/>
        <pt x="529" y="434" on="1"/>
      </contour>
    </TTGlyph>
    <TTGlyph name="daggerdbl" xMin="38" yMin="-180" xMax="533" yMax="689">
      <contour>
        <pt x="486" y="135" on="1"/>
        <pt x="355" y="135" on="1"/>
        <pt x="340" y="-180" on="1"/>
        <pt x="219" y="-180" on="1"/>
        <pt x="208" y="135" on="1"/>
        <pt x="44" y="135" on="1"/>
        <pt x="38" y="170" on="1"/>
        <pt x="81" y="226" on="1"/>
        <pt x="204" y="226" on="1"/>
        <pt x="199" y="377" on="1"/>
        <pt x="48" y="377" on="1"/>
        <pt x="42" y="412" on="1"/>
        <pt x="85" y="469" on="1"/>
        <pt x="195" y="469" on="1"/>
        <pt x="189" y="645" on="1"/>
        <pt x="229" y="689" on="1"/>
        <pt x="380" y="685" on="1"/>
        <pt x="370" y="469" on="1"/>
        <pt x="527" y="469" on="1"/>
        <pt x="533" y="434" on="1"/>
        <pt x="490" y="377" on="1"/>
        <pt x="366" y="377" on="1"/>
        <pt x="359" y="226" on="1"/>
        <pt x="523" y="226" on="1"/>
        <pt x="529" y="191" on="1"/>
      </contour>
    </TTGlyph>
    <TTGlyph name="dcaron" xMin="11" yMin="-18" xMax="767" yMax="810">
      <component glyphName="d" x="0" y="0" flags="0x204"/>
      <component glyphName="uni030C.calt" x="585" y="53" flags="0x4"/>
    </TTGlyph>
    <TTGlyph name="dcroat" xMin="11" yMin="-18" xMax="599" yMax="737">
      <contour>
        <pt x="290" y="110" on="1"/>
        <pt x="299" y="110" on="0"/>
        <pt x="321" y="114" on="0"/>
        <pt x="333" y="118" on="1"/>
        <pt x="333" y="389" on="1"/>
        <pt x="314" y="398" on="0"/>
        <pt x="270" y="407" on="0"/>
        <pt x="247" y="406" on="1"/>
        <pt x="220" y="381" on="0"/>
        <pt x="191" y="296" on="0"/>
        <pt x="191" y="252" on="1"/>
        <pt x="191" y="194" on="0"/>
        <pt x="242" y="110" on="0"/>
      </contour>
      <contour>
        <pt x="234" y="-17" on="1"/>
        <pt x="182" y="-18" on="0"/>
        <pt x="99" y="23" on="0"/>
        <pt x="42" y="92" on="0"/>
        <pt x="11" y="184" on="0"/>
        <pt x="11" y="234" on="1"/>
        <pt x="11" y="285" on="0"/>
        <pt x="46" y="381" on="0"/>
        <pt x="114" y="453" on="0"/>
        <pt x="213" y="497" on="0"/>
        <pt x="277" y="497" on="1"/>
        <pt x="291" y="497" on="0"/>
        <pt x="320" y="494" on="0"/>
        <pt x="333" y="492" on="1"/>
        <pt x="333" y="532" on="1"/>
        <pt x="224" y="532" on="1"/>
        <pt x="218" y="567" on="1"/>
        <pt x="261" y="603" on="1"/>
        <pt x="333" y="603" on="1"/>
        <pt x="333" y="637" on="1"/>
        <pt x="259" y="650" on="1"/>
        <pt x="254" y="700" on="1"/>
        <pt x="297" y="716" on="0"/>
        <pt x="400" y="734" on="0"/>
        <pt x="452" y="737" on="1"/>
        <pt x="506" y="687" on="1"/>
        <pt x="506" y="603" on="1"/>
        <pt x="593" y="603" on="1"/>
        <pt x="599" y="568" on="1"/>
        <pt x="556" y="532" on="1"/>
        <pt x="506" y="532" on="1"/>
        <pt x="506" y="122" on="1"/>
        <pt x="506" y="112" on="0"/>
        <pt x="520" y="98" on="0"/>
        <pt x="531" y="98" on="1"/>
        <pt x="542" y="98" on="0"/>
        <pt x="566" y="100" on="0"/>
        <pt x="582" y="101" on="1"/>
        <pt x="588" y="57" on="1"/>
        <pt x="455" y="-17" on="1"/>
        <pt x="425" y="-16" on="0"/>
        <pt x="364" y="31" on="0"/>
        <pt x="348" y="68" on="1"/>
      </contour>
    </TTGlyph>
    <TTGlyph name="degree" xMin="30" yMin="379" xMax="309" yMax="657">
      <contour>
        <pt x="172" y="379" on="1"/>
        <pt x="115" y="379" on="0"/>
        <pt x="30" y="455" on="0"/>
        <pt x="30" y="517" on="1"/>
        <pt x="30" y="576" on="0"/>
        <pt x="110" y="657" on="0"/>
        <pt x="168" y="657" on="1"/>
        <pt x="228" y="657" on="0"/>
        <pt x="309" y="576" on="0"/>
        <pt x="309" y="517" on="1"/>
        <pt x="309" y="454" on="0"/>
        <pt x="232" y="379" on="0"/>
      </contour>
      <contour>
        <pt x="175" y="455" on="1"/>
        <pt x="181" y="455" on="0"/>
        <pt x="194" y="457" on="0"/>
        <pt x="201" y="459" on="1"/>
        <pt x="210" y="469" on="0"/>
        <pt x="219" y="495" on="0"/>
        <pt x="219" y="509" on="1"/>
        <pt x="219" y="534" on="0"/>
        <pt x="190" y="578" on="0"/>
        <pt x="162" y="578" on="1"/>
        <pt x="155" y="578" on="0"/>
        <pt x="139" y="575" on="0"/>
        <pt x="132" y="571" on="1"/>
        <pt x="125" y="561" on="0"/>
        <pt x="116" y="535" on="0"/>
        <pt x="116" y="522" on="1"/>
        <pt x="116" y="497" on="0"/>
        <pt x="145" y="455" on="0"/>
      </contour>
    </TTGlyph>
    <TTGlyph name="dieresis" xMin="46" yMin="549" xMax="469" yMax="739">
      <component glyphName="uni0308" x="257" y="0" flags="0x4"/>
    </TTGlyph>
    <TTGlyph name="divide" xMin="54" yMin="-20" xMax="542" yMax="531">
      <contour>
        <pt x="295" y="531" on="1"/>
        <pt x="336" y="513" on="0"/>
        <pt x="379" y="460" on="0"/>
        <pt x="386" y="438" on="1"/>
        <pt x="379" y="418" on="0"/>
        <pt x="344" y="364" on="0"/>
        <pt x="310" y="348" on="1"/>
        <pt x="270" y="358" on="0"/>
        <pt x="224" y="405" on="0"/>
        <pt x="214" y="425" on="1"/>
        <pt x="220" y="467" on="0"/>
        <pt x="273" y="518" on="0"/>
      </contour>
      <contour>
        <pt x="54" y="306" on="1"/>
        <pt x="542" y="306" on="1"/>
        <pt x="542" y="207" on="1"/>
        <pt x="54" y="207" on="1"/>
      </contour>
      <contour>
        <pt x="294" y="163" on="1"/>
        <pt x="335" y="145" on="0"/>
        <pt x="378" y="92" on="0"/>
        <pt x="385" y="71" on="1"/>
        <pt x="378" y="51" on="0"/>
        <pt x="343" y="-4" on="0"/>
        <pt x="309" y="-20" on="1"/>
        <pt x="269" y="-10" on="0"/>
        <pt x="223" y="38" on="0"/>
        <pt x="213" y="57" on="1"/>
        <pt x="219" y="100" on="0"/>
        <pt x="272" y="150" on="0"/>
      </contour>
    </TTGlyph>
    <TTGlyph name="dollar" xMin="51" yMin="-145" xMax="564" yMax="785">
      <contour>
        <pt x="374" y="-145" on="1"/>
        <pt x="251" y="-145" on="1"/>
        <pt x="251" y="-16" on="1"/>
        <pt x="200" y="-11" on="0"/>
        <pt x="92" y="19" on="0"/>
        <pt x="52" y="42" on="1"/>
        <pt x="53" y="44" on="1"/>
        <pt x="51" y="60" on="0"/>
        <pt x="52" y="109" on="0"/>
        <pt x="57" y="163" on="0"/>
        <pt x="65" y="216" on="0"/>
        <pt x="70" y="235" on="1"/>
        <pt x="151" y="235" on="1"/>
        <pt x="216" y="90" on="1"/>
        <pt x="245" y="80" on="0"/>
        <pt x="304" y="69" on="0"/>
        <pt x="332" y="68" on="1"/>
        <pt x="361" y="81" on="0"/>
        <pt x="386" y="123" on="0"/>
        <pt x="386" y="143" on="1"/>
        <pt x="386" y="187" on="0"/>
        <pt x="300" y="239" on="0"/>
        <pt x="239" y="267" on="1"/>
        <pt x="206" y="282" on="0"/>
        <pt x="138" y="319" on="0"/>
        <pt x="85" y="368" on="0"/>
        <pt x="51" y="434" on="0"/>
        <pt x="51" y="477" on="1"/>
        <pt x="51" y="555" on="0"/>
        <pt x="161" y="661" on="0"/>
        <pt x="251" y="676" on="1"/>
        <pt x="251" y="785" on="1"/>
        <pt x="373" y="785" on="1"/>
        <pt x="373" y="679" on="1"/>
        <pt x="417" y="675" on="0"/>
        <pt x="503" y="655" on="0"/>
        <pt x="534" y="644" on="1"/>
        <pt x="533" y="603" on="0"/>
        <pt x="523" y="497" on="0"/>
        <pt x="513" y="453" on="1"/>
        <pt x="421" y="453" on="1"/>
        <pt x="382" y="575" on="1"/>
        <pt x="354" y="586" on="0"/>
        <pt x="296" y="596" on="0"/>
        <pt x="266" y="597" on="1"/>
        <pt x="242" y="584" on="0"/>
        <pt x="221" y="541" on="0"/>
        <pt x="221" y="522" on="1"/>
        <pt x="221" y="481" on="0"/>
        <pt x="316" y="431" on="0"/>
        <pt x="379" y="402" on="1"/>
        <pt x="413" y="386" on="0"/>
        <pt x="480" y="349" on="0"/>
        <pt x="532" y="299" on="0"/>
        <pt x="564" y="232" on="0"/>
        <pt x="564" y="186" on="1"/>
        <pt x="564" y="105" on="0"/>
        <pt x="455" y="3" on="0"/>
        <pt x="374" y="-12" on="1"/>
      </contour>
    </TTGlyph>
    <TTGlyph name="dotaccent" xMin="29" yMin="549" xMax="208" yMax="739">
      <component glyphName="uni0307" x="116" y="0" flags="0x4"/>
    </TTGlyph>
    <TTGlyph name="dotbelowcomb" xMin="-87" yMin="-289" xMax="92" yMax="-98">
      <contour>
        <pt x="-3" y="-98" on="1"/>
        <pt x="31" y="-112" on="0"/>
        <pt x="85" y="-163" on="0"/>
        <pt x="92" y="-194" on="1"/>
        <pt x="82" y="-225" on="0"/>
        <pt x="43" y="-273" on="0"/>
        <pt x="13" y="-289" on="1"/>
        <pt x="-22" y="-278" on="0"/>
        <pt x="-71" y="-238" on="0"/>
        <pt x="-87" y="-209" on="1"/>
        <pt x="-82" y="-171" on="0"/>
        <pt x="-35" y="-115" on="0"/>
      </contour>
    </TTGlyph>
    <TTGlyph name="dotbelowcomb.case" xMin="-87" yMin="-289" xMax="92" yMax="-98">
      <component glyphName="dotbelowcomb" x="0" y="0" flags="0x204"/>
    </TTGlyph>
    <TTGlyph name="dotlessi" xMin="7" yMin="0" xMax="317" yMax="492">
      <contour>
        <pt x="14" y="0" on="1"/>
        <pt x="12" y="35" on="1"/>
        <pt x="29" y="45" on="0"/>
        <pt x="67" y="61" on="0"/>
        <pt x="86" y="68" on="1"/>
        <pt x="86" y="393" on="1"/>
        <pt x="12" y="407" on="1"/>
        <pt x="7" y="455" on="1"/>
        <pt x="50" y="471" on="0"/>
        <pt x="153" y="491" on="0"/>
        <pt x="205" y="492" on="1"/>
        <pt x="259" y="444" on="1"/>
        <pt x="259" y="81" on="1"/>
        <pt x="274" y="74" on="0"/>
        <pt x="304" y="59" on="0"/>
        <pt x="317" y="49" on="1"/>
        <pt x="315" y="0" on="1"/>
      </contour>
    </TTGlyph>
    <TTGlyph name="dvKSPLa" xMin="-57" yMin="-64" xMax="2219" yMax="655">
      <component glyphName="uni0915094D" x="0" y="0" flags="0x204"/>
      <component glyphName="uni0938094D" x="616" y="0" flags="0x4"/>
      <component glyphName="uni092A094D" x="1082" y="0" flags="0x4"/>
      <component glyphName="uni0932" x="1401" y="0" flags="0x4"/>
    </TTGlyph>
    <TTGlyph name="dvKSPLa.MAR" xMin="-57" yMin="-64" xMax="2247" yMax="655">
      <component glyphName="uni0915094D" x="0" y="0" flags="0x204"/>
      <component glyphName="uni0938094D" x="645" y="0" flags="0x4"/>
      <component glyphName="uni092A094D" x="1107" y="0" flags="0x4"/>
      <component glyphName="uni0932.MAR" x="1426" y="0" flags="0x4"/>
    </TTGlyph>
    <TTGlyph name="e" xMin="11" yMin="-21" xMax="485" yMax="500">
      <contour>
        <pt x="239" y="417" on="1"/>
        <pt x="214" y="401" on="0"/>
        <pt x="184" y="341" on="0"/>
        <pt x="178" y="307" on="1"/>
        <pt x="328" y="316" on="1"/>
        <pt x="322" y="356" on="0"/>
        <pt x="274" y="416" on="0"/>
      </contour>
      <contour>
        <pt x="315" y="-12" on="1"/>
        <pt x="254" y="-21" on="0"/>
        <pt x="143" y="7" on="0"/>
        <pt x="60" y="72" on="0"/>
        <pt x="11" y="172" on="0"/>
        <pt x="11" y="234" on="1"/>
        <pt x="11" y="293" on="0"/>
        <pt x="53" y="391" on="0"/>
        <pt x="123" y="461" on="0"/>
        <pt x="216" y="500" on="0"/>
        <pt x="266" y="500" on="1"/>
        <pt x="303" y="500" on="0"/>
        <pt x="382" y="476" on="0"/>
        <pt x="445" y="425" on="0"/>
        <pt x="485" y="344" on="0"/>
        <pt x="484" y="287" on="1"/>
        <pt x="426" y="229" on="1"/>
        <pt x="174" y="231" on="1"/>
        <pt x="181" y="165" on="0"/>
        <pt x="262" y="96" on="0"/>
        <pt x="320" y="96" on="1"/>
        <pt x="351" y="96" on="0"/>
        <pt x="412" y="115" on="0"/>
        <pt x="447" y="134" on="1"/>
        <pt x="472" y="77" on="1"/>
      </contour>
    </TTGlyph>
    <TTGlyph name="eacute" xMin="11" yMin="-21" xMax="485" yMax="785">
      <component glyphName="e" x="0" y="0" flags="0x204"/>
      <component glyphName="acutecomb" x="261" y="-5" flags="0x4"/>
    </TTGlyph>
    <TTGlyph name="ecaron" xMin="11" yMin="-21" xMax="485" yMax="770">
      <component glyphName="e" x="0" y="0" flags="0x204"/>
      <component glyphName="uni030C" x="261" y="-5" flags="0x4"/>
    </TTGlyph>
    <TTGlyph name="ecircumflex" xMin="11" yMin="-21" xMax="485" yMax="738">
      <component glyphName="e" x="0" y="0" flags="0x204"/>
      <component glyphName="uni0302" x="261" y="-5" flags="0x4"/>
    </TTGlyph>
    <TTGlyph name="edieresis" xMin="11" yMin="-21" xMax="485" yMax="734">
      <component glyphName="e" x="0" y="0" flags="0x204"/>
      <component glyphName="uni0308" x="261" y="-5" flags="0x4"/>
    </TTGlyph>
    <TTGlyph name="edotaccent" xMin="11" yMin="-21" xMax="485" yMax="734">
      <component glyphName="e" x="0" y="0" flags="0x204"/>
      <component glyphName="uni0307" x="261" y="-5" flags="0x4"/>
    </TTGlyph>
    <TTGlyph name="egrave" xMin="11" yMin="-21" xMax="485" yMax="785">
      <component glyphName="e" x="0" y="0" flags="0x204"/>
      <component glyphName="gravecomb" x="261" y="-5" flags="0x4"/>
    </TTGlyph>
    <TTGlyph name="eight" xMin="37" yMin="-22" xMax="533" yMax="668">
      <contour>
        <pt x="286" y="-22" on="1"/>
        <pt x="180" y="-22" on="0"/>
        <pt x="37" y="79" on="0"/>
        <pt x="37" y="161" on="1"/>
        <pt x="37" y="211" on="0"/>
        <pt x="97" y="301" on="0"/>
        <pt x="152" y="330" on="1"/>
        <pt x="109" y="359" on="0"/>
        <pt x="57" y="434" on="0"/>
        <pt x="57" y="483" on="1"/>
        <pt x="57" y="555" on="0"/>
        <pt x="178" y="668" on="0"/>
        <pt x="288" y="668" on="1"/>
        <pt x="392" y="668" on="0"/>
        <pt x="507" y="566" on="0"/>
        <pt x="507" y="502" on="1"/>
        <pt x="507" y="462" on="0"/>
        <pt x="459" y="380" on="0"/>
        <pt x="408" y="352" on="1"/>
        <pt x="460" y="319" on="0"/>
        <pt x="533" y="232" on="0"/>
        <pt x="533" y="169" on="1"/>
        <pt x="533" y="82" on="0"/>
        <pt x="391" y="-22" on="0"/>
      </contour>
      <contour>
        <pt x="211" y="514" on="1"/>
        <pt x="211" y="476" on="0"/>
        <pt x="274" y="426" on="0"/>
        <pt x="319" y="402" on="1"/>
        <pt x="347" y="426" on="0"/>
        <pt x="367" y="478" on="0"/>
        <pt x="367" y="497" on="1"/>
        <pt x="367" y="535" on="0"/>
        <pt x="319" y="585" on="0"/>
        <pt x="281" y="585" on="1"/>
        <pt x="271" y="585" on="0"/>
        <pt x="247" y="580" on="0"/>
        <pt x="235" y="575" on="1"/>
        <pt x="222" y="560" on="0"/>
        <pt x="211" y="527" on="0"/>
      </contour>
      <contour>
        <pt x="299" y="58" on="1"/>
        <pt x="310" y="58" on="0"/>
        <pt x="337" y="62" on="0"/>
        <pt x="351" y="67" on="1"/>
        <pt x="363" y="86" on="0"/>
        <pt x="373" y="116" on="0"/>
        <pt x="373" y="134" on="1"/>
        <pt x="373" y="175" on="0"/>
        <pt x="321" y="233" on="0"/>
        <pt x="260" y="268" on="1"/>
        <pt x="229" y="246" on="0"/>
        <pt x="201" y="185" on="0"/>
        <pt x="201" y="155" on="1"/>
        <pt x="201" y="116" on="0"/>
        <pt x="251" y="58" on="0"/>
      </contour>
    </TTGlyph>
    <TTGlyph name="ellipsis" xMin="97" yMin="-20" xMax="899" yMax="183">
      <contour>
        <pt x="799" y="183" on="1"/>
        <pt x="835" y="167" on="0"/>
        <pt x="890" y="116" on="0"/>
        <pt x="899" y="82" on="1"/>
        <pt x="889" y="48" on="0"/>
        <pt x="846" y="-3" on="0"/>
        <pt x="814" y="-20" on="1"/>
        <pt x="778" y="-8" on="0"/>
        <pt x="725" y="35" on="0"/>
        <pt x="709" y="66" on="1"/>
        <pt x="715" y="106" on="0"/>
        <pt x="763" y="164" on="0"/>
      </contour>
      <contour>
        <pt x="493" y="183" on="1"/>
        <pt x="529" y="167" on="0"/>
        <pt x="584" y="116" on="0"/>
        <pt x="593" y="82" on="1"/>
        <pt x="583" y="48" on="0"/>
        <pt x="540" y="-3" on="0"/>
        <pt x="508" y="-20" on="1"/>
        <pt x="472" y="-8" on="0"/>
        <pt x="419" y="35" on="0"/>
        <pt x="403" y="66" on="1"/>
        <pt x="409" y="106" on="0"/>
        <pt x="457" y="164" on="0"/>
      </contour>
      <contour>
        <pt x="187" y="183" on="1"/>
        <pt x="223" y="167" on="0"/>
        <pt x="278" y="116" on="0"/>
        <pt x="287" y="82" on="1"/>
        <pt x="277" y="48" on="0"/>
        <pt x="234" y="-3" on="0"/>
        <pt x="202" y="-20" on="1"/>
        <pt x="166" y="-8" on="0"/>
        <pt x="113" y="35" on="0"/>
        <pt x="97" y="66" on="1"/>
        <pt x="103" y="106" on="0"/>
        <pt x="151" y="164" on="0"/>
      </contour>
    </TTGlyph>
    <TTGlyph name="emacron" xMin="11" yMin="-21" xMax="485" yMax="661">
      <component glyphName="e" x="0" y="0" flags="0x204"/>
      <component glyphName="uni0304" x="260" y="-5" flags="0x4"/>
    </TTGlyph>
    <TTGlyph name="emdash" xMin="36" yMin="218" xMax="979" yMax="320">
      <contour>
        <pt x="36" y="293" on="1"/>
        <pt x="65" y="308" on="0"/>
        <pt x="126" y="320" on="0"/>
        <pt x="149" y="320" on="1"/>
        <pt x="974" y="320" on="1"/>
        <pt x="979" y="269" on="1"/>
        <pt x="932" y="218" on="1"/>
        <pt x="42" y="218" on="1"/>
      </contour>
    </TTGlyph>
    <TTGlyph name="endash" xMin="36" yMin="218" xMax="527" yMax="320">
      <contour>
        <pt x="36" y="293" on="1"/>
        <pt x="65" y="308" on="0"/>
        <pt x="126" y="320" on="0"/>
        <pt x="149" y="320" on="1"/>
        <pt x="523" y="320" on="1"/>
        <pt x="527" y="269" on="1"/>
        <pt x="480" y="218" on="1"/>
        <pt x="42" y="218" on="1"/>
      </contour>
    </TTGlyph>
    <TTGlyph name="eogonek" xMin="11" yMin="-241" xMax="485" yMax="500">
      <contour>
        <pt x="239" y="417" on="1"/>
        <pt x="214" y="401" on="0"/>
        <pt x="184" y="341" on="0"/>
        <pt x="178" y="307" on="1"/>
        <pt x="328" y="316" on="1"/>
        <pt x="322" y="356" on="0"/>
        <pt x="274" y="416" on="0"/>
      </contour>
      <contour>
        <pt x="330" y="-234" on="1"/>
        <pt x="263" y="-241" on="0"/>
        <pt x="180" y="-169" on="0"/>
        <pt x="180" y="-121" on="1"/>
        <pt x="180" y="-94" on="0"/>
        <pt x="209" y="-39" on="0"/>
        <pt x="237" y="-13" on="1"/>
        <pt x="141" y="-3" on="0"/>
        <pt x="11" y="130" on="0"/>
        <pt x="11" y="234" on="1"/>
        <pt x="11" y="293" on="0"/>
        <pt x="53" y="391" on="0"/>
        <pt x="123" y="461" on="0"/>
        <pt x="216" y="500" on="0"/>
        <pt x="266" y="500" on="1"/>
        <pt x="303" y="500" on="0"/>
        <pt x="382" y="476" on="0"/>
        <pt x="445" y="425" on="0"/>
        <pt x="485" y="344" on="0"/>
        <pt x="484" y="287" on="1"/>
        <pt x="426" y="229" on="1"/>
        <pt x="174" y="231" on="1"/>
        <pt x="181" y="165" on="0"/>
        <pt x="262" y="96" on="0"/>
        <pt x="320" y="96" on="1"/>
        <pt x="351" y="96" on="0"/>
        <pt x="412" y="115" on="0"/>
        <pt x="447" y="134" on="1"/>
        <pt x="472" y="77" on="1"/>
        <pt x="431" y="52" on="1"/>
        <pt x="374" y="18" on="0"/>
        <pt x="299" y="-49" on="0"/>
        <pt x="299" y="-88" on="1"/>
        <pt x="299" y="-127" on="0"/>
        <pt x="373" y="-151" on="0"/>
        <pt x="432" y="-117" on="1"/>
        <pt x="456" y="-167" on="1"/>
      </contour>
    </TTGlyph>
    <TTGlyph name="equal" xMin="54" yMin="118" xMax="526" yMax="393">
      <contour>
        <pt x="54" y="393" on="1"/>
        <pt x="526" y="393" on="1"/>
        <pt x="526" y="304" on="1"/>
        <pt x="54" y="304" on="1"/>
      </contour>
      <contour>
        <pt x="54" y="207" on="1"/>
        <pt x="526" y="207" on="1"/>
        <pt x="526" y="118" on="1"/>
        <pt x="54" y="118" on="1"/>
      </contour>
    </TTGlyph>
    <TTGlyph name="eth" xMin="17" yMin="-27" xMax="530" yMax="775">
      <contour>
        <pt x="281" y="-27" on="1"/>
        <pt x="231" y="-27" on="0"/>
        <pt x="136" y="9" on="0"/>
        <pt x="62" y="76" on="0"/>
        <pt x="17" y="175" on="0"/>
        <pt x="17" y="238" on="1"/>
        <pt x="17" y="294" on="0"/>
        <pt x="54" y="384" on="0"/>
        <pt x="116" y="445" on="0"/>
        <pt x="196" y="477" on="0"/>
        <pt x="239" y="477" on="1"/>
        <pt x="263" y="477" on="0"/>
        <pt x="308" y="466" on="0"/>
        <pt x="328" y="456" on="1"/>
        <pt x="319" y="478" on="0"/>
        <pt x="300" y="525" on="0"/>
        <pt x="289" y="549" on="1"/>
        <pt x="222" y="521" on="1"/>
        <pt x="155" y="564" on="1"/>
        <pt x="147" y="604" on="1"/>
        <pt x="238" y="644" on="1"/>
        <pt x="228" y="661" on="0"/>
        <pt x="206" y="696" on="0"/>
        <pt x="193" y="714" on="1"/>
        <pt x="314" y="775" on="1"/>
        <pt x="329" y="758" on="0"/>
        <pt x="357" y="722" on="0"/>
        <pt x="370" y="703" on="1"/>
        <pt x="454" y="740" on="1"/>
        <pt x="505" y="641" on="1"/>
        <pt x="427" y="608" on="1"/>
        <pt x="475" y="519" on="0"/>
        <pt x="530" y="335" on="0"/>
        <pt x="530" y="257" on="1"/>
        <pt x="530" y="123" on="0"/>
        <pt x="384" y="-27" on="0"/>
      </contour>
      <contour>
        <pt x="194" y="227" on="1"/>
        <pt x="194" y="167" on="0"/>
        <pt x="253" y="66" on="0"/>
        <pt x="315" y="68" on="1"/>
        <pt x="350" y="106" on="0"/>
        <pt x="373" y="263" on="0"/>
        <pt x="357" y="338" on="1"/>
        <pt x="332" y="359" on="0"/>
        <pt x="283" y="383" on="0"/>
        <pt x="252" y="387" on="1"/>
        <pt x="226" y="365" on="0"/>
        <pt x="194" y="275" on="0"/>
      </contour>
    </TTGlyph>
    <TTGlyph name="exclam" xMin="71" yMin="-20" xMax="278" yMax="716">
      <contour>
        <pt x="232" y="252" on="1"/>
        <pt x="115" y="252" on="1"/>
        <pt x="71" y="697" on="1"/>
        <pt x="92" y="706" on="0"/>
        <pt x="148" y="716" on="0"/>
        <pt x="206" y="716" on="0"/>
        <pt x="260" y="705" on="0"/>
        <pt x="278" y="695" on="1"/>
      </contour>
      <contour>
        <pt x="81" y="65" on="1"/>
        <pt x="87" y="105" on="0"/>
        <pt x="135" y="163" on="0"/>
        <pt x="171" y="183" on="1"/>
        <pt x="207" y="167" on="0"/>
        <pt x="262" y="114" on="0"/>
        <pt x="271" y="81" on="1"/>
        <pt x="261" y="47" on="0"/>
        <pt x="218" y="-4" on="0"/>
        <pt x="186" y="-20" on="1"/>
        <pt x="150" y="-10" on="0"/>
        <pt x="97" y="33" on="0"/>
      </contour>
    </TTGlyph>
    <TTGlyph name="exclamdown" xMin="71" yMin="-220" xMax="278" yMax="516">
      <contour>
        <pt x="171" y="313" on="1"/>
        <pt x="135" y="333" on="0"/>
        <pt x="87" y="391" on="0"/>
        <pt x="81" y="431" on="1"/>
        <pt x="97" y="463" on="0"/>
        <pt x="150" y="506" on="0"/>
        <pt x="186" y="516" on="1"/>
        <pt x="218" y="500" on="0"/>
        <pt x="261" y="449" on="0"/>
        <pt x="271" y="415" on="1"/>
        <pt x="262" y="382" on="0"/>
        <pt x="207" y="329" on="0"/>
      </contour>
      <contour>
        <pt x="115" y="244" on="1"/>
        <pt x="232" y="244" on="1"/>
        <pt x="278" y="-199" on="1"/>
        <pt x="260" y="-209" on="0"/>
        <pt x="206" y="-220" on="0"/>
        <pt x="148" y="-220" on="0"/>
        <pt x="92" y="-210" on="0"/>
        <pt x="71" y="-201" on="1"/>
      </contour>
    </TTGlyph>
    <TTGlyph name="f" xMin="6" yMin="0" xMax="435" yMax="751">
      <contour>
        <pt x="18" y="0" on="1"/>
        <pt x="16" y="35" on="1"/>
        <pt x="31" y="44" on="0"/>
        <pt x="65" y="59" on="0"/>
        <pt x="82" y="65" on="1"/>
        <pt x="82" y="361" on="1"/>
        <pt x="8" y="360" on="1"/>
        <pt x="6" y="415" on="1"/>
        <pt x="25" y="427" on="0"/>
        <pt x="63" y="449" on="0"/>
        <pt x="82" y="459" on="1"/>
        <pt x="82" y="535" on="1"/>
        <pt x="82" y="628" on="0"/>
        <pt x="203" y="751" on="0"/>
        <pt x="286" y="751" on="1"/>
        <pt x="320" y="751" on="0"/>
        <pt x="399" y="727" on="0"/>
        <pt x="435" y="702" on="1"/>
        <pt x="345" y="551" on="1"/>
        <pt x="313" y="582" on="0"/>
        <pt x="237" y="628" on="0"/>
        <pt x="194" y="641" on="1"/>
        <pt x="255" y="473" on="1"/>
        <pt x="367" y="473" on="1"/>
        <pt x="369" y="424" on="1"/>
        <pt x="318" y="360" on="1"/>
        <pt x="256" y="360" on="1"/>
        <pt x="256" y="88" on="1"/>
        <pt x="280" y="81" on="0"/>
        <pt x="326" y="62" on="0"/>
        <pt x="347" y="49" on="1"/>
        <pt x="345" y="0" on="1"/>
      </contour>
    </TTGlyph>
    <TTGlyph name="f_b.liga" xMin="6" yMin="-18" xMax="943" yMax="737">
      <contour>
        <pt x="652" y="-18" on="1"/>
        <pt x="605" y="-18" on="0"/>
        <pt x="495" y="2" on="0"/>
        <pt x="443" y="20" on="1"/>
        <pt x="444" y="21" on="1"/>
        <pt x="444" y="601" on="1"/>
        <pt x="211" y="624" on="1"/>
        <pt x="256" y="473" on="1"/>
        <pt x="361" y="473" on="1"/>
        <pt x="363" y="424" on="1"/>
        <pt x="312" y="360" on="1"/>
        <pt x="256" y="360" on="1"/>
        <pt x="256" y="92" on="1"/>
        <pt x="278" y="85" on="0"/>
        <pt x="322" y="62" on="0"/>
        <pt x="341" y="49" on="1"/>
        <pt x="339" y="0" on="1"/>
        <pt x="18" y="0" on="1"/>
        <pt x="16" y="35" on="1"/>
        <pt x="31" y="44" on="0"/>
        <pt x="65" y="59" on="0"/>
        <pt x="82" y="65" on="1"/>
        <pt x="82" y="361" on="1"/>
        <pt x="8" y="360" on="1"/>
        <pt x="6" y="415" on="1"/>
        <pt x="25" y="427" on="0"/>
        <pt x="63" y="449" on="0"/>
        <pt x="82" y="459" on="1"/>
        <pt x="82" y="529" on="1"/>
        <pt x="82" y="624" on="0"/>
        <pt x="210" y="737" on="0"/>
        <pt x="295" y="737" on="1"/>
        <pt x="563" y="737" on="1"/>
        <pt x="617" y="687" on="1"/>
        <pt x="617" y="414" on="1"/>
        <pt x="723" y="491" on="1"/>
        <pt x="774" y="500" on="0"/>
        <pt x="857" y="468" on="0"/>
        <pt x="913" y="403" on="0"/>
        <pt x="943" y="312" on="0"/>
        <pt x="943" y="262" on="1"/>
        <pt x="943" y="208" on="0"/>
        <pt x="907" y="107" on="0"/>
        <pt x="835" y="29" on="0"/>
        <pt x="725" y="-18" on="0"/>
      </contour>
      <contour>
        <pt x="666" y="373" on="1"/>
        <pt x="654" y="373" on="0"/>
        <pt x="630" y="367" on="0"/>
        <pt x="617" y="361" on="1"/>
        <pt x="617" y="83" on="1"/>
        <pt x="636" y="77" on="0"/>
        <pt x="680" y="72" on="0"/>
        <pt x="704" y="76" on="1"/>
        <pt x="733" y="101" on="0"/>
        <pt x="765" y="187" on="0"/>
        <pt x="765" y="232" on="1"/>
        <pt x="765" y="288" on="0"/>
        <pt x="712" y="373" on="0"/>
      </contour>
    </TTGlyph>
    <TTGlyph name="f_f.liga" xMin="6" yMin="0" xMax="820" yMax="751">
      <component glyphName="f" x="0" y="0" flags="0x204"/>
      <component glyphName="f" x="385" y="0" flags="0x4"/>
    </TTGlyph>
    <TTGlyph name="f_h.liga" xMin="6" yMin="0" xMax="1014" yMax="737">
      <contour>
        <pt x="18" y="0" on="1"/>
        <pt x="16" y="35" on="1"/>
        <pt x="31" y="44" on="0"/>
        <pt x="65" y="59" on="0"/>
        <pt x="82" y="65" on="1"/>
        <pt x="82" y="361" on="1"/>
        <pt x="8" y="360" on="1"/>
        <pt x="6" y="415" on="1"/>
        <pt x="25" y="427" on="0"/>
        <pt x="63" y="449" on="0"/>
        <pt x="82" y="459" on="1"/>
        <pt x="82" y="529" on="1"/>
        <pt x="82" y="624" on="0"/>
        <pt x="210" y="737" on="0"/>
        <pt x="295" y="737" on="1"/>
        <pt x="589" y="737" on="1"/>
        <pt x="589" y="737" on="1"/>
        <pt x="594" y="737" on="1"/>
        <pt x="648" y="687" on="1"/>
        <pt x="648" y="413" on="1"/>
        <pt x="688" y="443" on="0"/>
        <pt x="763" y="485" on="0"/>
        <pt x="797" y="495" on="1"/>
        <pt x="826" y="494" on="0"/>
        <pt x="910" y="464" on="0"/>
        <pt x="936" y="423" on="1"/>
        <pt x="943" y="410" on="0"/>
        <pt x="948" y="359" on="0"/>
        <pt x="948" y="296" on="1"/>
        <pt x="948" y="85" on="1"/>
        <pt x="965" y="78" on="0"/>
        <pt x="999" y="59" on="0"/>
        <pt x="1014" y="49" on="1"/>
        <pt x="1012" y="0" on="1"/>
        <pt x="775" y="0" on="1"/>
        <pt x="775" y="285" on="1"/>
        <pt x="775" y="331" on="0"/>
        <pt x="739" y="379" on="0"/>
        <pt x="707" y="378" on="1"/>
        <pt x="694" y="377" on="0"/>
        <pt x="664" y="368" on="0"/>
        <pt x="648" y="361" on="1"/>
        <pt x="648" y="80" on="1"/>
        <pt x="662" y="73" on="0"/>
        <pt x="689" y="58" on="0"/>
        <pt x="702" y="49" on="1"/>
        <pt x="700" y="0" on="1"/>
        <pt x="402" y="0" on="1"/>
        <pt x="400" y="35" on="1"/>
        <pt x="417" y="45" on="0"/>
        <pt x="456" y="62" on="0"/>
        <pt x="475" y="69" on="1"/>
        <pt x="475" y="599" on="1"/>
        <pt x="211" y="624" on="1"/>
        <pt x="256" y="473" on="1"/>
        <pt x="361" y="473" on="1"/>
        <pt x="363" y="424" on="1"/>
        <pt x="312" y="360" on="1"/>
        <pt x="256" y="360" on="1"/>
        <pt x="256" y="92" on="1"/>
        <pt x="278" y="85" on="0"/>
        <pt x="322" y="62" on="0"/>
        <pt x="341" y="49" on="1"/>
        <pt x="339" y="0" on="1"/>
      </contour>
    </TTGlyph>
    <TTGlyph name="f_i.liga" xMin="6" yMin="0" xMax="716" yMax="762">
      <component glyphName="f" x="0" y="0" flags="0x204"/>
      <component glyphName="i" x="385" y="0" flags="0x4"/>
    </TTGlyph>
    <TTGlyph name="f_j.liga" xMin="6" yMin="-219" xMax="661" yMax="762">
      <component glyphName="f" x="0" y="0" flags="0x204"/>
      <component glyphName="j" x="385" y="0" flags="0x4"/>
    </TTGlyph>
    <TTGlyph name="f_k.liga" xMin="6" yMin="-6" xMax="973" yMax="737">
      <contour>
        <pt x="965" y="-6" on="1"/>
        <pt x="794" y="-6" on="1"/>
        <pt x="780" y="3" on="0"/>
        <pt x="759" y="30" on="0"/>
        <pt x="746" y="49" on="1"/>
        <pt x="646" y="210" on="1"/>
        <pt x="646" y="0" on="1"/>
        <pt x="399" y="0" on="1"/>
        <pt x="397" y="35" on="1"/>
        <pt x="414" y="45" on="0"/>
        <pt x="454" y="62" on="0"/>
        <pt x="473" y="69" on="1"/>
        <pt x="473" y="599" on="1"/>
        <pt x="211" y="624" on="1"/>
        <pt x="256" y="473" on="1"/>
        <pt x="361" y="473" on="1"/>
        <pt x="363" y="424" on="1"/>
        <pt x="312" y="360" on="1"/>
        <pt x="256" y="360" on="1"/>
        <pt x="256" y="92" on="1"/>
        <pt x="278" y="85" on="0"/>
        <pt x="322" y="62" on="0"/>
        <pt x="341" y="49" on="1"/>
        <pt x="339" y="0" on="1"/>
        <pt x="18" y="0" on="1"/>
        <pt x="16" y="35" on="1"/>
        <pt x="31" y="44" on="0"/>
        <pt x="65" y="59" on="0"/>
        <pt x="82" y="65" on="1"/>
        <pt x="82" y="361" on="1"/>
        <pt x="8" y="360" on="1"/>
        <pt x="6" y="415" on="1"/>
        <pt x="25" y="427" on="0"/>
        <pt x="63" y="449" on="0"/>
        <pt x="82" y="459" on="1"/>
        <pt x="82" y="529" on="1"/>
        <pt x="82" y="624" on="0"/>
        <pt x="210" y="737" on="0"/>
        <pt x="295" y="737" on="1"/>
        <pt x="588" y="737" on="1"/>
        <pt x="588" y="737" on="1"/>
        <pt x="590" y="737" on="1"/>
        <pt x="590" y="736" on="1"/>
        <pt x="592" y="737" on="1"/>
        <pt x="646" y="687" on="1"/>
        <pt x="646" y="258" on="1"/>
        <pt x="756" y="404" on="1"/>
        <pt x="704" y="413" on="1"/>
        <pt x="699" y="462" on="1"/>
        <pt x="742" y="478" on="0"/>
        <pt x="849" y="497" on="0"/>
        <pt x="901" y="498" on="1"/>
        <pt x="948" y="431" on="1"/>
        <pt x="802" y="252" on="1"/>
        <pt x="927" y="76" on="1"/>
        <pt x="936" y="68" on="0"/>
        <pt x="957" y="50" on="0"/>
        <pt x="973" y="41" on="1"/>
      </contour>
      <contour>
        <pt x="647" y="214" on="1"/>
        <pt x="646" y="214" on="1"/>
        <pt x="646" y="214" on="1"/>
      </contour>
    </TTGlyph>
    <TTGlyph name="f_l.liga" xMin="6" yMin="0" xMax="716" yMax="737">
      <contour>
        <pt x="18" y="0" on="1"/>
        <pt x="16" y="35" on="1"/>
        <pt x="31" y="44" on="0"/>
        <pt x="65" y="59" on="0"/>
        <pt x="82" y="65" on="1"/>
        <pt x="82" y="361" on="1"/>
        <pt x="8" y="360" on="1"/>
        <pt x="6" y="415" on="1"/>
        <pt x="25" y="427" on="0"/>
        <pt x="63" y="449" on="0"/>
        <pt x="82" y="459" on="1"/>
        <pt x="82" y="529" on="1"/>
        <pt x="82" y="624" on="0"/>
        <pt x="210" y="737" on="0"/>
        <pt x="295" y="737" on="1"/>
        <pt x="589" y="737" on="1"/>
        <pt x="589" y="737" on="1"/>
        <pt x="590" y="737" on="1"/>
        <pt x="644" y="687" on="1"/>
        <pt x="644" y="84" on="1"/>
        <pt x="663" y="77" on="0"/>
        <pt x="701" y="59" on="0"/>
        <pt x="716" y="49" on="1"/>
        <pt x="714" y="0" on="1"/>
        <pt x="397" y="0" on="1"/>
        <pt x="395" y="35" on="1"/>
        <pt x="412" y="45" on="0"/>
        <pt x="452" y="62" on="0"/>
        <pt x="471" y="69" on="1"/>
        <pt x="471" y="599" on="1"/>
        <pt x="211" y="624" on="1"/>
        <pt x="256" y="473" on="1"/>
        <pt x="361" y="473" on="1"/>
        <pt x="363" y="424" on="1"/>
        <pt x="312" y="360" on="1"/>
        <pt x="256" y="360" on="1"/>
        <pt x="256" y="92" on="1"/>
        <pt x="278" y="85" on="0"/>
        <pt x="322" y="62" on="0"/>
        <pt x="341" y="49" on="1"/>
        <pt x="339" y="0" on="1"/>
      </contour>
    </TTGlyph>
    <TTGlyph name="f_t.liga" xMin="6" yMin="-19" xMax="770" yMax="751">
      <component glyphName="f" x="0" y="0" flags="0x204"/>
      <component glyphName="t" x="385" y="0" flags="0x4"/>
    </TTGlyph>
    <TTGlyph name="five" xMin="35" yMin="-23" xMax="537" yMax="650">
      <contour>
        <pt x="284" y="-23" on="1"/>
        <pt x="227" y="-23" on="0"/>
        <pt x="91" y="13" on="0"/>
        <pt x="35" y="47" on="1"/>
        <pt x="88" y="204" on="1"/>
        <pt x="147" y="154" on="0"/>
        <pt x="285" y="87" on="0"/>
        <pt x="342" y="80" on="1"/>
        <pt x="365" y="104" on="0"/>
        <pt x="379" y="146" on="0"/>
        <pt x="379" y="164" on="1"/>
        <pt x="379" y="224" on="0"/>
        <pt x="280" y="280" on="0"/>
        <pt x="208" y="280" on="1"/>
        <pt x="189" y="280" on="0"/>
        <pt x="143" y="272" on="0"/>
        <pt x="120" y="265" on="1"/>
        <pt x="67" y="321" on="1"/>
        <pt x="97" y="650" on="1"/>
        <pt x="457" y="650" on="1"/>
        <pt x="457" y="649" on="1"/>
        <pt x="505" y="650" on="1"/>
        <pt x="506" y="632" on="0"/>
        <pt x="504" y="578" on="0"/>
        <pt x="499" y="521" on="0"/>
        <pt x="491" y="467" on="0"/>
        <pt x="486" y="448" on="1"/>
        <pt x="380" y="448" on="1"/>
        <pt x="357" y="554" on="1"/>
        <pt x="234" y="561" on="1"/>
        <pt x="220" y="394" on="1"/>
        <pt x="236" y="401" on="0"/>
        <pt x="277" y="404" on="0"/>
        <pt x="296" y="404" on="1"/>
        <pt x="338" y="403" on="0"/>
        <pt x="424" y="377" on="0"/>
        <pt x="493" y="326" on="0"/>
        <pt x="537" y="248" on="0"/>
        <pt x="537" y="196" on="1"/>
        <pt x="537" y="108" on="0"/>
        <pt x="403" y="-23" on="0"/>
      </contour>
    </TTGlyph>
    <TTGlyph name="four" xMin="13" yMin="0" xMax="594" yMax="670">
      <contour>
        <pt x="313" y="401" on="1"/>
        <pt x="320" y="485" on="1"/>
        <pt x="164" y="257" on="1"/>
        <pt x="313" y="260" on="1"/>
      </contour>
      <contour>
        <pt x="200" y="0" on="1"/>
        <pt x="194" y="33" on="1"/>
        <pt x="217" y="47" on="0"/>
        <pt x="282" y="74" on="0"/>
        <pt x="313" y="84" on="1"/>
        <pt x="313" y="157" on="1"/>
        <pt x="48" y="157" on="1"/>
        <pt x="13" y="250" on="1"/>
        <pt x="350" y="670" on="1"/>
        <pt x="417" y="655" on="1"/>
        <pt x="480" y="654" on="1"/>
        <pt x="480" y="264" on="1"/>
        <pt x="590" y="267" on="1"/>
        <pt x="594" y="187" on="1"/>
        <pt x="563" y="157" on="1"/>
        <pt x="480" y="157" on="1"/>
        <pt x="480" y="66" on="1"/>
        <pt x="553" y="53" on="1"/>
        <pt x="550" y="0" on="1"/>
      </contour>
    </TTGlyph>
    <TTGlyph name="four.dnom" xMin="-2" yMin="0" xMax="310" yMax="333">
      <component glyphName="foursuperior" x="0" y="-418" flags="0x4"/>
    </TTGlyph>
    <TTGlyph name="four.numr" xMin="-2" yMin="337" xMax="310" yMax="670">
      <component glyphName="foursuperior" x="0" y="-81" flags="0x4"/>
    </TTGlyph>
    <TTGlyph name="foursuperior" xMin="-2" yMin="418" xMax="310" yMax="751">
      <contour>
        <pt x="155" y="582" on="1"/>
        <pt x="168" y="654" on="1"/>
        <pt x="89" y="544" on="1"/>
        <pt x="155" y="545" on="1"/>
      </contour>
      <contour>
        <pt x="90" y="418" on="1"/>
        <pt x="87" y="433" on="1"/>
        <pt x="100" y="441" on="0"/>
        <pt x="138" y="458" on="0"/>
        <pt x="155" y="462" on="1"/>
        <pt x="155" y="489" on="1"/>
        <pt x="19" y="489" on="1"/>
        <pt x="-2" y="537" on="1"/>
        <pt x="166" y="750" on="1"/>
        <pt x="166" y="751" on="1"/>
        <pt x="167" y="751" on="1"/>
        <pt x="167" y="751" on="1"/>
        <pt x="168" y="751" on="1"/>
        <pt x="253" y="736" on="1"/>
        <pt x="253" y="546" on="1"/>
        <pt x="310" y="547" on="1"/>
        <pt x="310" y="510" on="1"/>
        <pt x="292" y="489" on="1"/>
        <pt x="253" y="489" on="1"/>
        <pt x="253" y="455" on="1"/>
        <pt x="290" y="447" on="1"/>
        <pt x="290" y="418" on="1"/>
      </contour>
    </TTGlyph>
    <TTGlyph name="fraction" xMin="-211" yMin="13" xMax="441" yMax="690">
      <contour>
        <pt x="-145" y="13" on="1"/>
        <pt x="-211" y="75" on="1"/>
        <pt x="377" y="690" on="1"/>
        <pt x="441" y="626" on="1"/>
      </contour>
    </TTGlyph>
    <TTGlyph name="g" xMin="14" yMin="-247" xMax="572" yMax="561">
      <contour>
        <pt x="335" y="319" on="1"/>
        <pt x="335" y="365" on="0"/>
        <pt x="274" y="439" on="0"/>
        <pt x="224" y="420" on="1"/>
        <pt x="211" y="410" on="0"/>
        <pt x="198" y="356" on="0"/>
        <pt x="198" y="330" on="1"/>
        <pt x="198" y="281" on="0"/>
        <pt x="251" y="218" on="0"/>
        <pt x="302" y="232" on="1"/>
        <pt x="318" y="243" on="0"/>
        <pt x="335" y="293" on="0"/>
      </contour>
      <contour>
        <pt x="531" y="63" on="1"/>
        <pt x="554" y="9" on="0"/>
        <pt x="523" y="-102" on="0"/>
        <pt x="438" y="-191" on="0"/>
        <pt x="307" y="-247" on="0"/>
        <pt x="232" y="-247" on="1"/>
        <pt x="196" y="-247" on="0"/>
        <pt x="121" y="-231" on="0"/>
        <pt x="59" y="-195" on="0"/>
        <pt x="17" y="-136" on="0"/>
        <pt x="14" y="-93" on="1"/>
        <pt x="118" y="0" on="1"/>
        <pt x="105" y="1" on="0"/>
        <pt x="78" y="2" on="0"/>
        <pt x="65" y="3" on="1"/>
        <pt x="44" y="77" on="1"/>
        <pt x="70" y="104" on="0"/>
        <pt x="127" y="152" on="0"/>
        <pt x="158" y="171" on="1"/>
        <pt x="96" y="192" on="0"/>
        <pt x="30" y="277" on="0"/>
        <pt x="30" y="326" on="1"/>
        <pt x="30" y="395" on="0"/>
        <pt x="159" y="504" on="0"/>
        <pt x="267" y="504" on="1"/>
        <pt x="308" y="504" on="0"/>
        <pt x="380" y="487" on="0"/>
        <pt x="409" y="471" on="1"/>
        <pt x="422" y="508" on="0"/>
        <pt x="488" y="558" on="0"/>
        <pt x="544" y="561" on="1"/>
        <pt x="572" y="419" on="1"/>
        <pt x="546" y="423" on="0"/>
        <pt x="498" y="419" on="0"/>
        <pt x="477" y="411" on="1"/>
        <pt x="489" y="393" on="0"/>
        <pt x="502" y="351" on="0"/>
        <pt x="502" y="329" on="1"/>
        <pt x="502" y="257" on="0"/>
        <pt x="373" y="156" on="0"/>
        <pt x="263" y="156" on="1"/>
        <pt x="256" y="156" on="0"/>
        <pt x="240" y="156" on="0"/>
        <pt x="233" y="157" on="1"/>
        <pt x="220" y="148" on="0"/>
        <pt x="198" y="128" on="0"/>
        <pt x="189" y="119" on="1"/>
        <pt x="273" y="118" on="0"/>
        <pt x="459" y="86" on="0"/>
      </contour>
      <contour>
        <pt x="259" y="-119" on="1"/>
        <pt x="306" y="-119" on="0"/>
        <pt x="401" y="-88" on="0"/>
        <pt x="423" y="-58" on="1"/>
        <pt x="380" y="-41" on="0"/>
        <pt x="253" y="-14" on="0"/>
        <pt x="181" y="-6" on="1"/>
        <pt x="165" y="-20" on="0"/>
        <pt x="148" y="-48" on="0"/>
        <pt x="148" y="-61" on="1"/>
        <pt x="148" y="-91" on="0"/>
        <pt x="213" y="-119" on="0"/>
      </contour>
    </TTGlyph>
    <TTGlyph name="gbreve" xMin="14" yMin="-247" xMax="572" yMax="715">
      <component glyphName="g" x="0" y="0" flags="0x204"/>
      <component glyphName="uni0306" x="265" y="-5" flags="0x4"/>
    </TTGlyph>
    <TTGlyph name="gcommaaccent" xMin="14" yMin="-247" xMax="572" yMax="775">
      <component glyphName="g" x="0" y="0" flags="0x204"/>
      <component glyphName="uni00200326" x="301" y="842" flags="0x4"/>
    </TTGlyph>
    <TTGlyph name="germandbls" xMin="0" yMin="-18" xMax="631" yMax="687">
      <contour>
        <pt x="439" y="-18" on="1"/>
        <pt x="405" y="-18" on="0"/>
        <pt x="328" y="-4" on="0"/>
        <pt x="294" y="8" on="1"/>
        <pt x="335" y="152" on="1"/>
        <pt x="357" y="132" on="0"/>
        <pt x="418" y="95" on="0"/>
        <pt x="449" y="88" on="1"/>
        <pt x="458" y="98" on="0"/>
        <pt x="467" y="120" on="0"/>
        <pt x="467" y="130" on="1"/>
        <pt x="467" y="160" on="0"/>
        <pt x="420" y="200" on="0"/>
        <pt x="361" y="241" on="0"/>
        <pt x="309" y="295" on="0"/>
        <pt x="305" y="339" on="1"/>
        <pt x="323" y="366" on="0"/>
        <pt x="359" y="429" on="0"/>
        <pt x="378" y="492" on="0"/>
        <pt x="372" y="555" on="0"/>
        <pt x="349" y="582" on="1"/>
        <pt x="330" y="586" on="0"/>
        <pt x="270" y="580" on="0"/>
        <pt x="248" y="567" on="1"/>
        <pt x="254" y="436" on="1"/>
        <pt x="254" y="0" on="1"/>
        <pt x="12" y="0" on="1"/>
        <pt x="10" y="35" on="1"/>
        <pt x="26" y="45" on="0"/>
        <pt x="63" y="61" on="0"/>
        <pt x="82" y="68" on="1"/>
        <pt x="82" y="355" on="1"/>
        <pt x="2" y="354" on="1"/>
        <pt x="0" y="409" on="1"/>
        <pt x="19" y="425" on="0"/>
        <pt x="60" y="453" on="0"/>
        <pt x="82" y="463" on="1"/>
        <pt x="82" y="478" on="1"/>
        <pt x="82" y="538" on="0"/>
        <pt x="133" y="619" on="0"/>
        <pt x="206" y="667" on="0"/>
        <pt x="288" y="687" on="0"/>
        <pt x="317" y="687" on="1"/>
        <pt x="413" y="687" on="0"/>
        <pt x="537" y="578" on="0"/>
        <pt x="537" y="510" on="1"/>
        <pt x="537" y="474" on="0"/>
        <pt x="497" y="407" on="0"/>
        <pt x="453" y="374" on="1"/>
        <pt x="459" y="349" on="0"/>
        <pt x="517" y="306" on="0"/>
        <pt x="580" y="255" on="0"/>
        <pt x="631" y="187" on="0"/>
        <pt x="631" y="137" on="1"/>
        <pt x="631" y="64" on="0"/>
        <pt x="520" y="-18" on="0"/>
      </contour>
    </TTGlyph>
    <TTGlyph name="grave" xMin="19" yMin="534" xMax="281" yMax="790">
      <component glyphName="gravecomb" x="181" y="0" flags="0x4"/>
    </TTGlyph>
    <TTGlyph name="gravecomb" xMin="-162" yMin="534" xMax="100" yMax="790">
      <contour>
        <pt x="100" y="602" on="1"/>
        <pt x="13" y="534" on="1"/>
        <pt x="-29" y="574" on="0"/>
        <pt x="-117" y="659" on="0"/>
        <pt x="-162" y="695" on="1"/>
        <pt x="-54" y="790" on="1"/>
      </contour>
    </TTGlyph>
    <TTGlyph name="gravecomb.case" xMin="-156" yMin="686" xMax="150" yMax="910">
      <contour>
        <pt x="-94" y="910" on="1"/>
        <pt x="150" y="767" on="1"/>
        <pt x="103" y="686" on="1"/>
        <pt x="41" y="712" on="0"/>
        <pt x="-93" y="762" on="0"/>
        <pt x="-156" y="786" on="1"/>
      </contour>
    </TTGlyph>
    <TTGlyph name="greater" xMin="63" yMin="-6" xMax="514" yMax="500">
      <contour>
        <pt x="364" y="245" on="1"/>
        <pt x="65" y="412" on="1"/>
        <pt x="112" y="500" on="1"/>
        <pt x="514" y="272" on="1"/>
        <pt x="511" y="202" on="1"/>
        <pt x="112" y="-6" on="1"/>
        <pt x="63" y="86" on="1"/>
        <pt x="363" y="239" on="1"/>
      </contour>
    </TTGlyph>
    <TTGlyph name="greaterequal" xMin="54" yMin="0" xMax="542" yMax="610">
      <contour>
        <pt x="75" y="534" on="1"/>
        <pt x="121" y="610" on="1"/>
        <pt x="526" y="402" on="1"/>
        <pt x="518" y="332" on="1"/>
        <pt x="119" y="144" on="1"/>
        <pt x="76" y="223" on="1"/>
        <pt x="389" y="368" on="1"/>
        <pt x="390" y="374" on="1"/>
      </contour>
      <contour>
        <pt x="54" y="0" on="1"/>
        <pt x="54" y="89" on="1"/>
        <pt x="542" y="89" on="1"/>
        <pt x="542" y="0" on="1"/>
      </contour>
    </TTGlyph>
    <TTGlyph name="guillemotleft" xMin="54" yMin="33" xMax="565" yMax="476">
      <contour>
        <pt x="310" y="214" on="1"/>
        <pt x="310" y="293" on="1"/>
        <pt x="476" y="476" on="1"/>
        <pt x="559" y="420" on="1"/>
        <pt x="471" y="253" on="1"/>
        <pt x="565" y="95" on="1"/>
        <pt x="477" y="33" on="1"/>
      </contour>
      <contour>
        <pt x="54" y="214" on="1"/>
        <pt x="54" y="293" on="1"/>
        <pt x="220" y="476" on="1"/>
        <pt x="303" y="420" on="1"/>
        <pt x="215" y="253" on="1"/>
        <pt x="309" y="95" on="1"/>
        <pt x="221" y="33" on="1"/>
      </contour>
    </TTGlyph>
    <TTGlyph name="guillemotright" xMin="54" yMin="33" xMax="565" yMax="476">
      <contour>
        <pt x="309" y="293" on="1"/>
        <pt x="309" y="214" on="1"/>
        <pt x="142" y="33" on="1"/>
        <pt x="54" y="95" on="1"/>
        <pt x="149" y="253" on="1"/>
        <pt x="61" y="420" on="1"/>
        <pt x="144" y="476" on="1"/>
      </contour>
      <contour>
        <pt x="565" y="293" on="1"/>
        <pt x="565" y="214" on="1"/>
        <pt x="398" y="33" on="1"/>
        <pt x="310" y="95" on="1"/>
        <pt x="405" y="253" on="1"/>
        <pt x="317" y="420" on="1"/>
        <pt x="400" y="476" on="1"/>
      </contour>
    </TTGlyph>
    <TTGlyph name="guilsinglleft" xMin="54" yMin="33" xMax="309" yMax="476">
      <contour>
        <pt x="54" y="214" on="1"/>
        <pt x="54" y="293" on="1"/>
        <pt x="220" y="476" on="1"/>
        <pt x="303" y="420" on="1"/>
        <pt x="211" y="253" on="1"/>
        <pt x="309" y="95" on="1"/>
        <pt x="221" y="33" on="1"/>
      </contour>
    </TTGlyph>
    <TTGlyph name="guilsinglright" xMin="54" yMin="33" xMax="309" yMax="476">
      <contour>
        <pt x="144" y="476" on="1"/>
        <pt x="309" y="293" on="1"/>
        <pt x="309" y="214" on="1"/>
        <pt x="142" y="33" on="1"/>
        <pt x="54" y="95" on="1"/>
        <pt x="153" y="253" on="1"/>
        <pt x="61" y="420" on="1"/>
      </contour>
    </TTGlyph>
    <TTGlyph name="h" xMin="11" yMin="0" xMax="629" yMax="737">
      <contour>
        <pt x="17" y="0" on="1"/>
        <pt x="15" y="35" on="1"/>
        <pt x="32" y="45" on="0"/>
        <pt x="71" y="62" on="0"/>
        <pt x="90" y="69" on="1"/>
        <pt x="90" y="637" on="1"/>
        <pt x="16" y="650" on="1"/>
        <pt x="11" y="700" on="1"/>
        <pt x="54" y="716" on="0"/>
        <pt x="157" y="734" on="0"/>
        <pt x="209" y="737" on="1"/>
        <pt x="263" y="687" on="1"/>
        <pt x="263" y="413" on="1"/>
        <pt x="303" y="443" on="0"/>
        <pt x="378" y="485" on="0"/>
        <pt x="412" y="495" on="1"/>
        <pt x="441" y="494" on="0"/>
        <pt x="525" y="464" on="0"/>
        <pt x="551" y="423" on="1"/>
        <pt x="558" y="410" on="0"/>
        <pt x="563" y="359" on="0"/>
        <pt x="563" y="296" on="1"/>
        <pt x="563" y="85" on="1"/>
        <pt x="580" y="78" on="0"/>
        <pt x="614" y="59" on="0"/>
        <pt x="629" y="49" on="1"/>
        <pt x="627" y="0" on="1"/>
        <pt x="390" y="0" on="1"/>
        <pt x="390" y="285" on="1"/>
        <pt x="390" y="331" on="0"/>
        <pt x="354" y="379" on="0"/>
        <pt x="322" y="378" on="1"/>
        <pt x="309" y="377" on="0"/>
        <pt x="279" y="368" on="0"/>
        <pt x="263" y="361" on="1"/>
        <pt x="263" y="80" on="1"/>
        <pt x="277" y="73" on="0"/>
        <pt x="304" y="58" on="0"/>
        <pt x="317" y="49" on="1"/>
        <pt x="315" y="0" on="1"/>
      </contour>
    </TTGlyph>
    <TTGlyph name="hungarumlaut" xMin="30" yMin="534" xMax="486" yMax="774">
      <component glyphName="uni030B" x="212" y="0" flags="0x4"/>
    </TTGlyph>
    <TTGlyph name="hyphen" xMin="33" yMin="222" xMax="414" yMax="354">
      <contour>
        <pt x="393" y="222" on="1"/>
        <pt x="89" y="222" on="1"/>
        <pt x="33" y="312" on="1"/>
        <pt x="54" y="354" on="1"/>
        <pt x="358" y="354" on="1"/>
        <pt x="414" y="264" on="1"/>
      </contour>
    </TTGlyph>
    <TTGlyph name="hyphen.deva" xMin="33" yMin="222" xMax="414" yMax="354">
      <contour>
        <pt x="393" y="222" on="1"/>
        <pt x="89" y="222" on="1"/>
        <pt x="33" y="312" on="1"/>
        <pt x="54" y="354" on="1"/>
        <pt x="358" y="354" on="1"/>
        <pt x="414" y="264" on="1"/>
      </contour>
    </TTGlyph>
    <TTGlyph name="i" xMin="7" yMin="0" xMax="331" yMax="762">
      <contour>
        <pt x="275" y="660" on="1"/>
        <pt x="259" y="629" on="0"/>
        <pt x="210" y="571" on="0"/>
        <pt x="182" y="551" on="1"/>
        <pt x="148" y="566" on="0"/>
        <pt x="85" y="614" on="0"/>
        <pt x="63" y="642" on="1"/>
        <pt x="82" y="678" on="0"/>
        <pt x="132" y="740" on="0"/>
        <pt x="162" y="762" on="1"/>
        <pt x="195" y="745" on="0"/>
        <pt x="254" y="691" on="0"/>
      </contour>
      <contour>
        <pt x="12" y="0" on="1"/>
        <pt x="10" y="35" on="1"/>
        <pt x="27" y="45" on="0"/>
        <pt x="67" y="62" on="0"/>
        <pt x="86" y="69" on="1"/>
        <pt x="86" y="399" on="1"/>
        <pt x="12" y="413" on="1"/>
        <pt x="7" y="461" on="1"/>
        <pt x="50" y="477" on="0"/>
        <pt x="153" y="497" on="0"/>
        <pt x="205" y="498" on="1"/>
        <pt x="259" y="450" on="1"/>
        <pt x="259" y="84" on="1"/>
        <pt x="278" y="77" on="0"/>
        <pt x="316" y="59" on="0"/>
        <pt x="331" y="49" on="1"/>
        <pt x="329" y="0" on="1"/>
      </contour>
    </TTGlyph>
    <TTGlyph name="iacute" xMin="7" yMin="0" xMax="322" yMax="785">
      <component glyphName="dotlessi" x="0" y="0" flags="0x204"/>
      <component glyphName="acutecomb" x="159" y="-5" flags="0x4"/>
    </TTGlyph>
    <TTGlyph name="icircumflex" xMin="-27" yMin="0" xMax="353" yMax="738">
      <component glyphName="dotlessi" x="0" y="0" flags="0x204"/>
      <component glyphName="uni0302" x="159" y="-5" flags="0x4"/>
    </TTGlyph>
    <TTGlyph name="idieresis" xMin="-52" yMin="0" xMax="371" yMax="734">
      <component glyphName="dotlessi" x="0" y="0" flags="0x204"/>
      <component glyphName="uni0308" x="159" y="-5" flags="0x4"/>
    </TTGlyph>
    <TTGlyph name="igrave" xMin="-3" yMin="0" xMax="317" yMax="785">
      <component glyphName="dotlessi" x="0" y="0" flags="0x204"/>
      <component glyphName="gravecomb" x="159" y="-5" flags="0x4"/>
    </TTGlyph>
    <TTGlyph name="imacron" xMin="13" yMin="0" xMax="338" yMax="668">
      <contour>
        <pt x="13" y="643" on="1"/>
        <pt x="42" y="657" on="0"/>
        <pt x="103" y="668" on="0"/>
        <pt x="126" y="668" on="1"/>
        <pt x="333" y="668" on="1"/>
        <pt x="338" y="615" on="1"/>
        <pt x="291" y="569" on="1"/>
        <pt x="19" y="569" on="1"/>
      </contour>
      <contour>
        <pt x="24" y="0" on="1"/>
        <pt x="22" y="35" on="1"/>
        <pt x="39" y="45" on="0"/>
        <pt x="77" y="61" on="0"/>
        <pt x="96" y="68" on="1"/>
        <pt x="96" y="393" on="1"/>
        <pt x="22" y="407" on="1"/>
        <pt x="17" y="455" on="1"/>
        <pt x="60" y="471" on="0"/>
        <pt x="163" y="491" on="0"/>
        <pt x="215" y="492" on="1"/>
        <pt x="269" y="444" on="1"/>
        <pt x="269" y="81" on="1"/>
        <pt x="284" y="74" on="0"/>
        <pt x="314" y="59" on="0"/>
        <pt x="327" y="49" on="1"/>
        <pt x="325" y="0" on="1"/>
      </contour>
    </TTGlyph>
    <TTGlyph name="infinity" xMin="30" yMin="140" xMax="744" yMax="529">
      <contour>
        <pt x="557" y="140" on="1"/>
        <pt x="497" y="140" on="0"/>
        <pt x="411" y="209" on="0"/>
        <pt x="375" y="253" on="1"/>
        <pt x="342" y="204" on="0"/>
        <pt x="257" y="142" on="0"/>
        <pt x="206" y="142" on="1"/>
        <pt x="177" y="142" on="0"/>
        <pt x="114" y="165" on="0"/>
        <pt x="63" y="210" on="0"/>
        <pt x="30" y="280" on="0"/>
        <pt x="30" y="326" on="1"/>
        <pt x="30" y="373" on="0"/>
        <pt x="63" y="448" on="0"/>
        <pt x="117" y="501" on="0"/>
        <pt x="186" y="529" on="0"/>
        <pt x="221" y="529" on="1"/>
        <pt x="281" y="529" on="0"/>
        <pt x="373" y="460" on="0"/>
        <pt x="410" y="417" on="1"/>
        <pt x="444" y="463" on="0"/>
        <pt x="529" y="528" on="0"/>
        <pt x="580" y="528" on="1"/>
        <pt x="643" y="528" on="0"/>
        <pt x="744" y="424" on="0"/>
        <pt x="744" y="336" on="1"/>
        <pt x="744" y="287" on="0"/>
        <pt x="710" y="213" on="0"/>
        <pt x="657" y="165" on="0"/>
        <pt x="590" y="140" on="0"/>
      </contour>
      <contour>
        <pt x="247" y="273" on="1"/>
        <pt x="270" y="273" on="0"/>
        <pt x="312" y="292" on="0"/>
        <pt x="331" y="310" on="1"/>
        <pt x="290" y="365" on="0"/>
        <pt x="207" y="430" on="0"/>
        <pt x="167" y="408" on="1"/>
        <pt x="161" y="399" on="0"/>
        <pt x="153" y="380" on="0"/>
        <pt x="153" y="368" on="1"/>
        <pt x="153" y="326" on="0"/>
        <pt x="206" y="273" on="0"/>
      </contour>
      <contour>
        <pt x="551" y="407" on="1"/>
        <pt x="529" y="407" on="0"/>
        <pt x="478" y="384" on="0"/>
        <pt x="454" y="365" on="1"/>
        <pt x="495" y="314" on="0"/>
        <pt x="567" y="252" on="0"/>
        <pt x="608" y="271" on="1"/>
        <pt x="618" y="281" on="0"/>
        <pt x="627" y="311" on="0"/>
        <pt x="627" y="324" on="1"/>
        <pt x="627" y="352" on="0"/>
        <pt x="587" y="407" on="0"/>
      </contour>
    </TTGlyph>
    <TTGlyph name="integral" xMin="-36" yMin="-179" xMax="463" yMax="751">
      <contour>
        <pt x="385" y="92" on="1"/>
        <pt x="385" y="37" on="0"/>
        <pt x="339" y="-61" on="0"/>
        <pt x="266" y="-135" on="0"/>
        <pt x="175" y="-178" on="0"/>
        <pt x="129" y="-178" on="1"/>
        <pt x="94" y="-179" on="0"/>
        <pt x="15" y="-154" on="0"/>
        <pt x="-36" y="-129" on="1"/>
        <pt x="49" y="22" on="1"/>
        <pt x="77" y="-6" on="0"/>
        <pt x="160" y="-68" on="0"/>
        <pt x="211" y="-75" on="1"/>
        <pt x="44" y="481" on="1"/>
        <pt x="44" y="536" on="0"/>
        <pt x="90" y="634" on="0"/>
        <pt x="162" y="707" on="0"/>
        <pt x="254" y="751" on="0"/>
        <pt x="300" y="751" on="1"/>
        <pt x="338" y="751" on="0"/>
        <pt x="414" y="728" on="0"/>
        <pt x="463" y="702" on="1"/>
        <pt x="378" y="551" on="1"/>
        <pt x="351" y="579" on="0"/>
        <pt x="269" y="640" on="0"/>
        <pt x="218" y="647" on="1"/>
      </contour>
    </TTGlyph>
    <TTGlyph name="iogonek" xMin="7" yMin="-285" xMax="331" yMax="762">
      <component glyphName="i" x="0" y="0" flags="0x204"/>
      <component glyphName="ogonek" x="25" y="-22" flags="0x4"/>
    </TTGlyph>
    <TTGlyph name="j" xMin="-10" yMin="-219" xMax="276" yMax="762">
      <contour>
        <pt x="276" y="660" on="1"/>
        <pt x="260" y="628" on="0"/>
        <pt x="211" y="571" on="0"/>
        <pt x="183" y="550" on="1"/>
        <pt x="149" y="566" on="0"/>
        <pt x="86" y="614" on="0"/>
        <pt x="64" y="642" on="1"/>
        <pt x="83" y="678" on="0"/>
        <pt x="133" y="740" on="0"/>
        <pt x="163" y="762" on="1"/>
        <pt x="196" y="744" on="0"/>
        <pt x="255" y="690" on="0"/>
      </contour>
      <contour>
        <pt x="7" y="-219" on="1"/>
        <pt x="-10" y="-177" on="1"/>
        <pt x="35" y="-162" on="0"/>
        <pt x="88" y="-106" on="0"/>
        <pt x="88" y="-55" on="1"/>
        <pt x="88" y="399" on="1"/>
        <pt x="13" y="413" on="1"/>
        <pt x="8" y="461" on="1"/>
        <pt x="51" y="477" on="0"/>
        <pt x="154" y="497" on="0"/>
        <pt x="206" y="498" on="1"/>
        <pt x="206" y="498" on="1"/>
        <pt x="207" y="498" on="1"/>
        <pt x="261" y="450" on="1"/>
        <pt x="261" y="-45" on="1"/>
        <pt x="261" y="-70" on="0"/>
        <pt x="235" y="-126" on="0"/>
        <pt x="175" y="-175" on="0"/>
        <pt x="78" y="-213" on="0"/>
      </contour>
    </TTGlyph>
    <TTGlyph name="k" xMin="9" yMin="-6" xMax="590" yMax="737">
      <contour>
        <pt x="582" y="-6" on="1"/>
        <pt x="411" y="-6" on="1"/>
        <pt x="397" y="3" on="0"/>
        <pt x="376" y="30" on="0"/>
        <pt x="363" y="49" on="1"/>
        <pt x="263" y="210" on="1"/>
        <pt x="263" y="0" on="1"/>
        <pt x="16" y="0" on="1"/>
        <pt x="14" y="35" on="1"/>
        <pt x="31" y="45" on="0"/>
        <pt x="71" y="62" on="0"/>
        <pt x="90" y="69" on="1"/>
        <pt x="90" y="636" on="1"/>
        <pt x="14" y="650" on="1"/>
        <pt x="9" y="700" on="1"/>
        <pt x="52" y="716" on="0"/>
        <pt x="155" y="734" on="0"/>
        <pt x="207" y="737" on="1"/>
        <pt x="207" y="736" on="1"/>
        <pt x="209" y="737" on="1"/>
        <pt x="263" y="687" on="1"/>
        <pt x="263" y="258" on="1"/>
        <pt x="373" y="404" on="1"/>
        <pt x="321" y="413" on="1"/>
        <pt x="316" y="462" on="1"/>
        <pt x="359" y="478" on="0"/>
        <pt x="466" y="497" on="0"/>
        <pt x="518" y="498" on="1"/>
        <pt x="565" y="431" on="1"/>
        <pt x="419" y="252" on="1"/>
        <pt x="544" y="76" on="1"/>
        <pt x="553" y="68" on="0"/>
        <pt x="574" y="50" on="0"/>
        <pt x="590" y="41" on="1"/>
      </contour>
      <contour>
        <pt x="264" y="214" on="1"/>
        <pt x="263" y="214" on="1"/>
        <pt x="263" y="214" on="1"/>
      </contour>
    </TTGlyph>
    <TTGlyph name="kcommaaccent" xMin="9" yMin="-314" xMax="590" yMax="737">
      <component glyphName="k" x="0" y="0" flags="0x204"/>
      <component glyphName="uni0326" x="316" y="0" flags="0x4"/>
    </TTGlyph>
    <TTGlyph name="l" xMin="7" yMin="0" xMax="331" yMax="737">
      <contour>
        <pt x="12" y="0" on="1"/>
        <pt x="10" y="35" on="1"/>
        <pt x="27" y="45" on="0"/>
        <pt x="67" y="62" on="0"/>
        <pt x="86" y="69" on="1"/>
        <pt x="86" y="637" on="1"/>
        <pt x="12" y="650" on="1"/>
        <pt x="7" y="700" on="1"/>
        <pt x="50" y="716" on="0"/>
        <pt x="153" y="734" on="0"/>
        <pt x="205" y="737" on="1"/>
        <pt x="259" y="687" on="1"/>
        <pt x="259" y="84" on="1"/>
        <pt x="278" y="77" on="0"/>
        <pt x="316" y="59" on="0"/>
        <pt x="331" y="49" on="1"/>
        <pt x="329" y="0" on="1"/>
      </contour>
    </TTGlyph>
    <TTGlyph name="lacute" xMin="7" yMin="0" xMax="332" yMax="995">
      <component glyphName="l" x="0" y="0" flags="0x204"/>
      <component glyphName="acutecomb.case" x="166" y="85" flags="0x4"/>
    </TTGlyph>
    <TTGlyph name="lcaron" xMin="7" yMin="0" xMax="519" yMax="800">
      <component glyphName="l" x="0" y="0" flags="0x204"/>
      <component glyphName="uni030C.calt" x="337" y="43" flags="0x4"/>
    </TTGlyph>
    <TTGlyph name="lcommaaccent" xMin="7" yMin="-314" xMax="331" yMax="737">
      <component glyphName="l" x="0" y="0" flags="0x204"/>
      <component glyphName="uni0326" x="182" y="0" flags="0x4"/>
    </TTGlyph>
    <TTGlyph name="less" xMin="62" yMin="-6" xMax="513" yMax="500">
      <contour>
        <pt x="62" y="272" on="1"/>
        <pt x="464" y="500" on="1"/>
        <pt x="511" y="412" on="1"/>
        <pt x="213" y="245" on="1"/>
        <pt x="214" y="239" on="1"/>
        <pt x="513" y="86" on="1"/>
        <pt x="465" y="-6" on="1"/>
        <pt x="66" y="202" on="1"/>
      </contour>
    </TTGlyph>
    <TTGlyph name="lessequal" xMin="54" yMin="0" xMax="542" yMax="610">
      <contour>
        <pt x="70" y="402" on="1"/>
        <pt x="477" y="610" on="1"/>
        <pt x="521" y="534" on="1"/>
        <pt x="207" y="374" on="1"/>
        <pt x="208" y="368" on="1"/>
        <pt x="521" y="223" on="1"/>
        <pt x="477" y="144" on="1"/>
        <pt x="78" y="332" on="1"/>
      </contour>
      <contour>
        <pt x="54" y="89" on="1"/>
        <pt x="542" y="89" on="1"/>
        <pt x="542" y="0" on="1"/>
        <pt x="54" y="0" on="1"/>
      </contour>
    </TTGlyph>
    <TTGlyph name="logicalnot" xMin="54" yMin="0" xMax="538" yMax="278">
      <contour>
        <pt x="538" y="0" on="1"/>
        <pt x="431" y="0" on="1"/>
        <pt x="431" y="179" on="1"/>
        <pt x="54" y="179" on="1"/>
        <pt x="54" y="278" on="1"/>
        <pt x="538" y="278" on="1"/>
      </contour>
    </TTGlyph>
    <TTGlyph name="lslash" xMin="6" yMin="0" xMax="374" yMax="737">
      <contour>
        <pt x="35" y="0" on="1"/>
        <pt x="33" y="35" on="1"/>
        <pt x="50" y="45" on="0"/>
        <pt x="90" y="62" on="0"/>
        <pt x="109" y="69" on="1"/>
        <pt x="109" y="292" on="1"/>
        <pt x="41" y="258" on="1"/>
        <pt x="6" y="325" on="1"/>
        <pt x="109" y="377" on="1"/>
        <pt x="109" y="637" on="1"/>
        <pt x="35" y="650" on="1"/>
        <pt x="30" y="700" on="1"/>
        <pt x="73" y="716" on="0"/>
        <pt x="176" y="734" on="0"/>
        <pt x="228" y="737" on="1"/>
        <pt x="282" y="687" on="1"/>
        <pt x="282" y="465" on="1"/>
        <pt x="348" y="498" on="1"/>
        <pt x="374" y="482" on="1"/>
        <pt x="374" y="426" on="1"/>
        <pt x="282" y="380" on="1"/>
        <pt x="282" y="84" on="1"/>
        <pt x="301" y="77" on="0"/>
        <pt x="339" y="59" on="0"/>
        <pt x="354" y="49" on="1"/>
        <pt x="352" y="0" on="1"/>
      </contour>
    </TTGlyph>
    <TTGlyph name="m" xMin="11" yMin="0" xMax="935" yMax="498">
      <contour>
        <pt x="18" y="0" on="1"/>
        <pt x="16" y="35" on="1"/>
        <pt x="33" y="45" on="0"/>
        <pt x="71" y="61" on="0"/>
        <pt x="90" y="68" on="1"/>
        <pt x="90" y="399" on="1"/>
        <pt x="16" y="413" on="1"/>
        <pt x="11" y="461" on="1"/>
        <pt x="54" y="477" on="0"/>
        <pt x="157" y="497" on="0"/>
        <pt x="209" y="498" on="1"/>
        <pt x="263" y="444" on="1"/>
        <pt x="263" y="416" on="1"/>
        <pt x="302" y="444" on="0"/>
        <pt x="376" y="485" on="0"/>
        <pt x="409" y="495" on="1"/>
        <pt x="438" y="494" on="0"/>
        <pt x="522" y="464" on="0"/>
        <pt x="548" y="423" on="1"/>
        <pt x="549" y="420" on="0"/>
        <pt x="553" y="414" on="0"/>
        <pt x="554" y="410" on="1"/>
        <pt x="594" y="441" on="0"/>
        <pt x="673" y="484" on="0"/>
        <pt x="707" y="495" on="1"/>
        <pt x="736" y="494" on="0"/>
        <pt x="820" y="464" on="0"/>
        <pt x="846" y="423" on="1"/>
        <pt x="853" y="410" on="0"/>
        <pt x="858" y="359" on="0"/>
        <pt x="858" y="296" on="1"/>
        <pt x="858" y="86" on="1"/>
        <pt x="879" y="79" on="0"/>
        <pt x="919" y="60" on="0"/>
        <pt x="935" y="49" on="1"/>
        <pt x="932" y="0" on="1"/>
        <pt x="685" y="0" on="1"/>
        <pt x="685" y="285" on="1"/>
        <pt x="685" y="331" on="0"/>
        <pt x="649" y="379" on="0"/>
        <pt x="617" y="378" on="1"/>
        <pt x="604" y="377" on="0"/>
        <pt x="574" y="369" on="0"/>
        <pt x="559" y="362" on="1"/>
        <pt x="560" y="349" on="0"/>
        <pt x="560" y="317" on="0"/>
        <pt x="560" y="296" on="1"/>
        <pt x="560" y="82" on="1"/>
        <pt x="576" y="75" on="0"/>
        <pt x="606" y="59" on="0"/>
        <pt x="620" y="49" on="1"/>
        <pt x="617" y="0" on="1"/>
        <pt x="387" y="0" on="1"/>
        <pt x="387" y="285" on="1"/>
        <pt x="387" y="331" on="0"/>
        <pt x="351" y="379" on="0"/>
        <pt x="319" y="378" on="1"/>
        <pt x="306" y="377" on="0"/>
        <pt x="278" y="369" on="0"/>
        <pt x="263" y="363" on="1"/>
        <pt x="263" y="81" on="1"/>
        <pt x="278" y="74" on="0"/>
        <pt x="308" y="59" on="0"/>
        <pt x="321" y="49" on="1"/>
        <pt x="319" y="0" on="1"/>
      </contour>
    </TTGlyph>
    <TTGlyph name="macron" xMin="59" yMin="567" xMax="423" yMax="666">
      <component glyphName="uni0304" x="225" y="0" flags="0x4"/>
    </TTGlyph>
    <TTGlyph name="minus" xMin="54" yMin="207" xMax="542" yMax="306">
      <contour>
        <pt x="54" y="306" on="1"/>
        <pt x="542" y="306" on="1"/>
        <pt x="542" y="207" on="1"/>
        <pt x="54" y="207" on="1"/>
      </contour>
    </TTGlyph>
    <TTGlyph name="multiply" xMin="60" yMin="18" xMax="497" yMax="461">
      <contour>
        <pt x="281" y="311" on="1"/>
        <pt x="424" y="460" on="1"/>
        <pt x="497" y="390" on="1"/>
        <pt x="350" y="240" on="1"/>
        <pt x="497" y="92" on="1"/>
        <pt x="423" y="18" on="1"/>
        <pt x="278" y="168" on="1"/>
        <pt x="134" y="19" on="1"/>
        <pt x="62" y="90" on="1"/>
        <pt x="207" y="238" on="1"/>
        <pt x="60" y="389" on="1"/>
        <pt x="135" y="461" on="1"/>
      </contour>
    </TTGlyph>
    <TTGlyph name="n" xMin="11" yMin="0" xMax="637" yMax="498">
      <contour>
        <pt x="18" y="0" on="1"/>
        <pt x="16" y="35" on="1"/>
        <pt x="33" y="45" on="0"/>
        <pt x="71" y="61" on="0"/>
        <pt x="90" y="68" on="1"/>
        <pt x="90" y="399" on="1"/>
        <pt x="16" y="413" on="1"/>
        <pt x="11" y="461" on="1"/>
        <pt x="54" y="477" on="0"/>
        <pt x="157" y="497" on="0"/>
        <pt x="209" y="498" on="1"/>
        <pt x="263" y="444" on="1"/>
        <pt x="263" y="412" on="1"/>
        <pt x="303" y="442" on="0"/>
        <pt x="380" y="485" on="0"/>
        <pt x="414" y="495" on="1"/>
        <pt x="443" y="494" on="0"/>
        <pt x="527" y="464" on="0"/>
        <pt x="553" y="423" on="1"/>
        <pt x="560" y="410" on="0"/>
        <pt x="565" y="359" on="0"/>
        <pt x="565" y="296" on="1"/>
        <pt x="565" y="84" on="1"/>
        <pt x="584" y="77" on="0"/>
        <pt x="622" y="59" on="0"/>
        <pt x="637" y="49" on="1"/>
        <pt x="634" y="0" on="1"/>
        <pt x="392" y="0" on="1"/>
        <pt x="392" y="285" on="1"/>
        <pt x="392" y="331" on="0"/>
        <pt x="356" y="379" on="0"/>
        <pt x="324" y="378" on="1"/>
        <pt x="310" y="377" on="0"/>
        <pt x="279" y="367" on="0"/>
        <pt x="263" y="360" on="1"/>
        <pt x="263" y="81" on="1"/>
        <pt x="278" y="74" on="0"/>
        <pt x="308" y="59" on="0"/>
        <pt x="321" y="49" on="1"/>
        <pt x="319" y="0" on="1"/>
      </contour>
    </TTGlyph>
    <TTGlyph name="nacute" xMin="11" yMin="0" xMax="637" yMax="785">
      <component glyphName="n" x="0" y="0" flags="0x204"/>
      <component glyphName="acutecomb" x="325" y="-5" flags="0x4"/>
    </TTGlyph>
    <TTGlyph name="ncaron" xMin="11" yMin="0" xMax="637" yMax="770">
      <component glyphName="n" x="0" y="0" flags="0x204"/>
      <component glyphName="uni030C" x="325" y="-5" flags="0x4"/>
    </TTGlyph>
    <TTGlyph name="ncommaaccent" xMin="11" yMin="-314" xMax="637" yMax="498">
      <component glyphName="n" x="0" y="0" flags="0x204"/>
      <component glyphName="uni0326" x="333" y="0" flags="0x4"/>
    </TTGlyph>
    <TTGlyph name="nine" xMin="27" yMin="-16" xMax="543" yMax="670">
      <contour>
        <pt x="202" y="460" on="1"/>
        <pt x="202" y="403" on="0"/>
        <pt x="269" y="327" on="0"/>
        <pt x="328" y="340" on="1"/>
        <pt x="338" y="248" on="1"/>
        <pt x="280" y="224" on="0"/>
        <pt x="167" y="235" on="0"/>
        <pt x="81" y="291" on="0"/>
        <pt x="27" y="386" on="0"/>
        <pt x="27" y="446" on="1"/>
        <pt x="27" y="542" on="0"/>
        <pt x="164" y="670" on="0"/>
        <pt x="271" y="670" on="1"/>
        <pt x="334" y="670" on="0"/>
        <pt x="436" y="624" on="0"/>
        <pt x="506" y="543" on="0"/>
        <pt x="543" y="432" on="0"/>
        <pt x="543" y="368" on="1"/>
        <pt x="543" y="281" on="0"/>
        <pt x="476" y="136" on="0"/>
        <pt x="360" y="36" on="0"/>
        <pt x="201" y="-16" on="0"/>
        <pt x="110" y="-10" on="1"/>
        <pt x="82" y="159" on="1"/>
        <pt x="276" y="113" on="1"/>
        <pt x="330" y="144" on="0"/>
        <pt x="377" y="289" on="0"/>
        <pt x="377" y="367" on="1"/>
        <pt x="377" y="409" on="0"/>
        <pt x="363" y="489" on="0"/>
        <pt x="334" y="548" on="0"/>
        <pt x="286" y="580" on="0"/>
        <pt x="253" y="574" on="1"/>
        <pt x="228" y="562" on="0"/>
        <pt x="202" y="497" on="0"/>
      </contour>
    </TTGlyph>
    <TTGlyph name="notequal" xMin="54" yMin="-12" xMax="526" yMax="517">
      <contour>
        <pt x="526" y="118" on="1"/>
        <pt x="248" y="118" on="1"/>
        <pt x="168" y="-12" on="1"/>
        <pt x="118" y="18" on="1"/>
        <pt x="180" y="118" on="1"/>
        <pt x="54" y="118" on="1"/>
        <pt x="54" y="207" on="1"/>
        <pt x="235" y="207" on="1"/>
        <pt x="295" y="304" on="1"/>
        <pt x="54" y="304" on="1"/>
        <pt x="54" y="393" on="1"/>
        <pt x="350" y="393" on="1"/>
        <pt x="427" y="517" on="1"/>
        <pt x="477" y="489" on="1"/>
        <pt x="418" y="393" on="1"/>
        <pt x="526" y="393" on="1"/>
        <pt x="526" y="304" on="1"/>
        <pt x="363" y="304" on="1"/>
        <pt x="303" y="207" on="1"/>
        <pt x="526" y="207" on="1"/>
      </contour>
    </TTGlyph>
    <TTGlyph name="ntilde" xMin="11" yMin="0" xMax="637" yMax="737">
      <component glyphName="n" x="0" y="0" flags="0x204"/>
      <component glyphName="tildecomb" x="325" y="-5" flags="0x4"/>
    </TTGlyph>
    <TTGlyph name="numbersign" xMin="54" yMin="-11" xMax="567" yMax="530">
      <contour>
        <pt x="358" y="207" on="1"/>
        <pt x="376" y="324" on="1"/>
        <pt x="268" y="324" on="1"/>
        <pt x="250" y="207" on="1"/>
      </contour>
      <contour>
        <pt x="538" y="122" on="1"/>
        <pt x="436" y="122" on="1"/>
        <pt x="416" y="-11" on="1"/>
        <pt x="326" y="0" on="1"/>
        <pt x="345" y="122" on="1"/>
        <pt x="237" y="122" on="1"/>
        <pt x="217" y="-11" on="1"/>
        <pt x="127" y="0" on="1"/>
        <pt x="146" y="122" on="1"/>
        <pt x="54" y="122" on="1"/>
        <pt x="54" y="207" on="1"/>
        <pt x="159" y="207" on="1"/>
        <pt x="177" y="324" on="1"/>
        <pt x="83" y="324" on="1"/>
        <pt x="83" y="407" on="1"/>
        <pt x="189" y="407" on="1"/>
        <pt x="208" y="530" on="1"/>
        <pt x="298" y="520" on="1"/>
        <pt x="281" y="407" on="1"/>
        <pt x="388" y="407" on="1"/>
        <pt x="407" y="530" on="1"/>
        <pt x="497" y="520" on="1"/>
        <pt x="480" y="407" on="1"/>
        <pt x="567" y="407" on="1"/>
        <pt x="567" y="324" on="1"/>
        <pt x="467" y="324" on="1"/>
        <pt x="449" y="207" on="1"/>
        <pt x="538" y="207" on="1"/>
      </contour>
    </TTGlyph>
    <TTGlyph name="o" xMin="11" yMin="-20" xMax="511" yMax="500">
      <contour>
        <pt x="266" y="-20" on="1"/>
        <pt x="216" y="-20" on="0"/>
        <pt x="124" y="16" on="0"/>
        <pt x="53" y="83" on="0"/>
        <pt x="11" y="181" on="0"/>
        <pt x="11" y="243" on="1"/>
        <pt x="11" y="305" on="0"/>
        <pt x="53" y="401" on="0"/>
        <pt x="122" y="466" on="0"/>
        <pt x="213" y="500" on="0"/>
        <pt x="262" y="500" on="1"/>
        <pt x="311" y="500" on="0"/>
        <pt x="401" y="466" on="0"/>
        <pt x="470" y="400" on="0"/>
        <pt x="511" y="301" on="0"/>
        <pt x="511" y="238" on="1"/>
        <pt x="511" y="176" on="0"/>
        <pt x="471" y="79" on="0"/>
        <pt x="404" y="14" on="0"/>
        <pt x="315" y="-20" on="0"/>
      </contour>
      <contour>
        <pt x="271" y="70" on="1"/>
        <pt x="278" y="70" on="0"/>
        <pt x="291" y="72" on="0"/>
        <pt x="299" y="75" on="1"/>
        <pt x="321" y="91" on="0"/>
        <pt x="336" y="177" on="0"/>
        <pt x="336" y="227" on="1"/>
        <pt x="336" y="299" on="0"/>
        <pt x="299" y="404" on="0"/>
        <pt x="255" y="404" on="1"/>
        <pt x="244" y="404" on="0"/>
        <pt x="223" y="398" on="0"/>
        <pt x="216" y="393" on="1"/>
        <pt x="201" y="372" on="0"/>
        <pt x="186" y="290" on="0"/>
        <pt x="186" y="241" on="1"/>
        <pt x="186" y="171" on="0"/>
        <pt x="225" y="70" on="0"/>
      </contour>
    </TTGlyph>
    <TTGlyph name="oacute" xMin="11" yMin="-20" xMax="511" yMax="785">
      <component glyphName="o" x="0" y="0" flags="0x204"/>
      <component glyphName="acutecomb" x="261" y="-5" flags="0x4"/>
    </TTGlyph>
    <TTGlyph name="ocircumflex" xMin="11" yMin="-20" xMax="511" yMax="738">
      <component glyphName="o" x="0" y="0" flags="0x204"/>
      <component glyphName="uni0302" x="261" y="-5" flags="0x4"/>
    </TTGlyph>
    <TTGlyph name="odieresis" xMin="11" yMin="-20" xMax="511" yMax="734">
      <component glyphName="o" x="0" y="0" flags="0x204"/>
      <component glyphName="uni0308" x="261" y="-5" flags="0x4"/>
    </TTGlyph>
    <TTGlyph name="oe" xMin="11" yMin="-21" xMax="813" yMax="500">
      <contour>
        <pt x="567" y="417" on="1"/>
        <pt x="542" y="401" on="0"/>
        <pt x="510" y="341" on="0"/>
        <pt x="503" y="307" on="1"/>
        <pt x="656" y="316" on="1"/>
        <pt x="650" y="356" on="0"/>
        <pt x="602" y="416" on="0"/>
      </contour>
      <contour>
        <pt x="271" y="70" on="1"/>
        <pt x="278" y="70" on="0"/>
        <pt x="291" y="72" on="0"/>
        <pt x="299" y="75" on="1"/>
        <pt x="321" y="91" on="0"/>
        <pt x="336" y="177" on="0"/>
        <pt x="336" y="227" on="1"/>
        <pt x="336" y="299" on="0"/>
        <pt x="299" y="404" on="0"/>
        <pt x="254" y="404" on="1"/>
        <pt x="244" y="404" on="0"/>
        <pt x="223" y="398" on="0"/>
        <pt x="216" y="393" on="1"/>
        <pt x="201" y="372" on="0"/>
        <pt x="186" y="290" on="0"/>
        <pt x="186" y="240" on="1"/>
        <pt x="186" y="171" on="0"/>
        <pt x="225" y="70" on="0"/>
      </contour>
      <contour>
        <pt x="644" y="-12" on="1"/>
        <pt x="582" y="-21" on="0"/>
        <pt x="473" y="11" on="0"/>
        <pt x="433" y="44" on="1"/>
        <pt x="400" y="13" on="0"/>
        <pt x="312" y="-20" on="0"/>
        <pt x="266" y="-20" on="1"/>
        <pt x="216" y="-20" on="0"/>
        <pt x="124" y="16" on="0"/>
        <pt x="53" y="83" on="0"/>
        <pt x="11" y="181" on="0"/>
        <pt x="11" y="243" on="1"/>
        <pt x="11" y="305" on="0"/>
        <pt x="53" y="401" on="0"/>
        <pt x="122" y="466" on="0"/>
        <pt x="213" y="500" on="0"/>
        <pt x="262" y="500" on="1"/>
        <pt x="309" y="500" on="0"/>
        <pt x="395" y="468" on="0"/>
        <pt x="429" y="436" on="1"/>
        <pt x="463" y="467" on="0"/>
        <pt x="549" y="500" on="0"/>
        <pt x="595" y="500" on="1"/>
        <pt x="632" y="500" on="0"/>
        <pt x="710" y="476" on="0"/>
        <pt x="773" y="425" on="0"/>
        <pt x="813" y="344" on="0"/>
        <pt x="813" y="287" on="1"/>
        <pt x="755" y="229" on="1"/>
        <pt x="498" y="231" on="1"/>
        <pt x="503" y="164" on="0"/>
        <pt x="586" y="96" on="0"/>
        <pt x="647" y="96" on="1"/>
        <pt x="681" y="96" on="0"/>
        <pt x="740" y="115" on="0"/>
        <pt x="776" y="134" on="1"/>
        <pt x="800" y="77" on="1"/>
      </contour>
    </TTGlyph>
    <TTGlyph name="ogonek" xMin="26" yMin="-263" xMax="303" yMax="51">
      <component glyphName="uni0328" x="267" y="0" flags="0x4"/>
    </TTGlyph>
    <TTGlyph name="ograve" xMin="11" yMin="-20" xMax="511" yMax="785">
      <component glyphName="o" x="0" y="0" flags="0x204"/>
      <component glyphName="gravecomb" x="261" y="-5" flags="0x4"/>
    </TTGlyph>
    <TTGlyph name="ohungarumlaut" xMin="11" yMin="-20" xMax="535" yMax="769">
      <component glyphName="o" x="0" y="0" flags="0x204"/>
      <component glyphName="uni030B" x="261" y="-5" flags="0x4"/>
    </TTGlyph>
    <TTGlyph name="omacron" xMin="11" yMin="-20" xMax="511" yMax="661">
      <component glyphName="o" x="0" y="0" flags="0x204"/>
      <component glyphName="uni0304" x="260" y="-5" flags="0x4"/>
    </TTGlyph>
    <TTGlyph name="one" xMin="10" yMin="0" xMax="454" yMax="670">
      <contour>
        <pt x="33" y="0" on="1"/>
        <pt x="27" y="33" on="1"/>
        <pt x="52" y="48" on="0"/>
        <pt x="127" y="76" on="0"/>
        <pt x="163" y="86" on="1"/>
        <pt x="163" y="501" on="1"/>
        <pt x="45" y="453" on="1"/>
        <pt x="10" y="519" on="1"/>
        <pt x="262" y="670" on="1"/>
        <pt x="336" y="618" on="1"/>
        <pt x="336" y="74" on="1"/>
        <pt x="454" y="53" on="1"/>
        <pt x="451" y="0" on="1"/>
      </contour>
    </TTGlyph>
    <TTGlyph name="one.dnom" xMin="12" yMin="0" xMax="253" yMax="327">
      <component glyphName="onesuperior" x="0" y="-418" flags="0x4"/>
    </TTGlyph>
    <TTGlyph name="one.numr" xMin="12" yMin="337" xMax="253" yMax="664">
      <component glyphName="onesuperior" x="0" y="-81" flags="0x4"/>
    </TTGlyph>
    <TTGlyph name="onehalf" xMin="12" yMin="0" xMax="753" yMax="690">
      <component glyphName="one.numr" x="0" y="0" flags="0x204"/>
      <component glyphName="fraction" x="272" y="0" flags="0x4"/>
      <component glyphName="two.dnom" x="456" y="0" flags="0x4"/>
    </TTGlyph>
    <TTGlyph name="onequarter" xMin="12" yMin="0" xMax="766" yMax="690">
      <component glyphName="one.numr" x="0" y="0" flags="0x204"/>
      <component glyphName="fraction" x="272" y="0" flags="0x4"/>
      <component glyphName="four.dnom" x="456" y="0" flags="0x4"/>
    </TTGlyph>
    <TTGlyph name="onesuperior" xMin="12" yMin="418" xMax="253" yMax="745">
      <contour>
        <pt x="28" y="418" on="1"/>
        <pt x="25" y="433" on="1"/>
        <pt x="35" y="441" on="0"/>
        <pt x="73" y="460" on="0"/>
        <pt x="90" y="465" on="1"/>
        <pt x="90" y="652" on="1"/>
        <pt x="31" y="629" on="1"/>
        <pt x="12" y="667" on="1"/>
        <pt x="150" y="744" on="1"/>
        <pt x="150" y="745" on="1"/>
        <pt x="151" y="744" on="1"/>
        <pt x="152" y="745" on="1"/>
        <pt x="153" y="743" on="1"/>
        <pt x="196" y="716" on="1"/>
        <pt x="195" y="716" on="1"/>
        <pt x="197" y="716" on="1"/>
        <pt x="197" y="462" on="1"/>
        <pt x="253" y="446" on="1"/>
        <pt x="253" y="418" on="1"/>
      </contour>
    </TTGlyph>
    <TTGlyph name="ordfeminine" xMin="31" yMin="192" xMax="411" yMax="628">
      <contour>
        <pt x="307" y="295" on="1"/>
        <pt x="285" y="296" on="0"/>
        <pt x="244" y="324" on="0"/>
        <pt x="234" y="346" on="1"/>
        <pt x="163" y="298" on="1"/>
        <pt x="103" y="289" on="0"/>
        <pt x="38" y="342" on="0"/>
        <pt x="38" y="378" on="1"/>
        <pt x="38" y="397" on="0"/>
        <pt x="61" y="440" on="0"/>
        <pt x="89" y="456" on="1"/>
        <pt x="225" y="458" on="1"/>
        <pt x="225" y="507" on="1"/>
        <pt x="225" y="535" on="0"/>
        <pt x="206" y="565" on="0"/>
        <pt x="194" y="570" on="1"/>
        <pt x="182" y="570" on="0"/>
        <pt x="161" y="567" on="0"/>
        <pt x="154" y="566" on="1"/>
        <pt x="137" y="491" on="1"/>
        <pt x="65" y="489" on="1"/>
        <pt x="60" y="511" on="0"/>
        <pt x="55" y="568" on="0"/>
        <pt x="56" y="591" on="1"/>
        <pt x="97" y="608" on="0"/>
        <pt x="204" y="628" on="0"/>
        <pt x="245" y="628" on="1"/>
        <pt x="276" y="626" on="0"/>
        <pt x="323" y="597" on="0"/>
        <pt x="338" y="575" on="1"/>
        <pt x="342" y="566" on="0"/>
        <pt x="345" y="538" on="0"/>
        <pt x="345" y="510" on="1"/>
        <pt x="345" y="391" on="1"/>
        <pt x="345" y="384" on="0"/>
        <pt x="353" y="374" on="0"/>
        <pt x="361" y="374" on="1"/>
        <pt x="369" y="374" on="0"/>
        <pt x="385" y="375" on="0"/>
        <pt x="396" y="376" on="1"/>
        <pt x="399" y="347" on="1"/>
      </contour>
      <contour>
        <pt x="161" y="362" on="1"/>
        <pt x="174" y="363" on="0"/>
        <pt x="211" y="370" on="0"/>
        <pt x="225" y="374" on="1"/>
        <pt x="225" y="416" on="1"/>
        <pt x="214" y="417" on="1"/>
        <pt x="192" y="418" on="0"/>
        <pt x="149" y="405" on="0"/>
        <pt x="149" y="385" on="1"/>
        <pt x="149" y="378" on="0"/>
        <pt x="155" y="366" on="0"/>
      </contour>
      <contour>
        <pt x="31" y="255" on="1"/>
        <pt x="411" y="255" on="1"/>
        <pt x="411" y="192" on="1"/>
        <pt x="31" y="192" on="1"/>
      </contour>
    </TTGlyph>
    <TTGlyph name="ordmasculine" xMin="17" yMin="192" xMax="391" yMax="631">
      <contour>
        <pt x="204" y="285" on="1"/>
        <pt x="135" y="285" on="0"/>
        <pt x="30" y="378" on="0"/>
        <pt x="30" y="457" on="1"/>
        <pt x="30" y="499" on="0"/>
        <pt x="62" y="564" on="0"/>
        <pt x="112" y="608" on="0"/>
        <pt x="175" y="631" on="0"/>
        <pt x="206" y="631" on="1"/>
        <pt x="272" y="631" on="0"/>
        <pt x="375" y="537" on="0"/>
        <pt x="375" y="455" on="1"/>
        <pt x="375" y="373" on="0"/>
        <pt x="270" y="285" on="0"/>
      </contour>
      <contour>
        <pt x="213" y="355" on="1"/>
        <pt x="218" y="355" on="0"/>
        <pt x="227" y="356" on="0"/>
        <pt x="231" y="356" on="1"/>
        <pt x="237" y="360" on="0"/>
        <pt x="252" y="402" on="0"/>
        <pt x="252" y="441" on="1"/>
        <pt x="252" y="490" on="0"/>
        <pt x="226" y="553" on="0"/>
        <pt x="196" y="553" on="1"/>
        <pt x="190" y="553" on="0"/>
        <pt x="181" y="550" on="0"/>
        <pt x="177" y="549" on="1"/>
        <pt x="167" y="543" on="0"/>
        <pt x="154" y="491" on="0"/>
        <pt x="154" y="457" on="1"/>
        <pt x="154" y="406" on="0"/>
        <pt x="184" y="355" on="0"/>
      </contour>
      <contour>
        <pt x="17" y="255" on="1"/>
        <pt x="391" y="255" on="1"/>
        <pt x="391" y="192" on="1"/>
        <pt x="17" y="192" on="1"/>
      </contour>
    </TTGlyph>
    <TTGlyph name="oslash" xMin="11" yMin="-88" xMax="511" yMax="539">
      <contour>
        <pt x="186" y="241" on="1"/>
        <pt x="186" y="233" on="0"/>
        <pt x="186" y="216" on="0"/>
        <pt x="187" y="208" on="1"/>
        <pt x="303" y="379" on="1"/>
        <pt x="294" y="391" on="0"/>
        <pt x="270" y="404" on="0"/>
        <pt x="255" y="404" on="1"/>
        <pt x="244" y="404" on="0"/>
        <pt x="223" y="398" on="0"/>
        <pt x="216" y="393" on="1"/>
        <pt x="201" y="372" on="0"/>
        <pt x="186" y="290" on="0"/>
      </contour>
      <contour>
        <pt x="271" y="70" on="1"/>
        <pt x="278" y="70" on="0"/>
        <pt x="291" y="72" on="0"/>
        <pt x="299" y="75" on="1"/>
        <pt x="321" y="91" on="0"/>
        <pt x="336" y="177" on="0"/>
        <pt x="336" y="227" on="1"/>
        <pt x="336" y="231" on="0"/>
        <pt x="336" y="238" on="0"/>
        <pt x="336" y="241" on="1"/>
        <pt x="230" y="85" on="1"/>
        <pt x="238" y="78" on="0"/>
        <pt x="259" y="70" on="0"/>
      </contour>
      <contour>
        <pt x="266" y="-20" on="1"/>
        <pt x="241" y="-20" on="0"/>
        <pt x="193" y="-11" on="0"/>
        <pt x="171" y="-3" on="1"/>
        <pt x="113" y="-88" on="1"/>
        <pt x="27" y="-28" on="1"/>
        <pt x="83" y="55" on="1"/>
        <pt x="50" y="89" on="0"/>
        <pt x="11" y="183" on="0"/>
        <pt x="11" y="243" on="1"/>
        <pt x="11" y="305" on="0"/>
        <pt x="53" y="401" on="0"/>
        <pt x="122" y="466" on="0"/>
        <pt x="213" y="500" on="0"/>
        <pt x="262" y="500" on="1"/>
        <pt x="290" y="500" on="0"/>
        <pt x="344" y="488" on="0"/>
        <pt x="369" y="477" on="1"/>
        <pt x="411" y="539" on="1"/>
        <pt x="499" y="482" on="1"/>
        <pt x="453" y="414" on="1"/>
        <pt x="480" y="382" on="0"/>
        <pt x="511" y="293" on="0"/>
        <pt x="511" y="238" on="1"/>
        <pt x="511" y="176" on="0"/>
        <pt x="471" y="79" on="0"/>
        <pt x="404" y="14" on="0"/>
        <pt x="315" y="-20" on="0"/>
      </contour>
    </TTGlyph>
    <TTGlyph name="otilde" xMin="11" yMin="-20" xMax="511" yMax="737">
      <component glyphName="o" x="0" y="0" flags="0x204"/>
      <component glyphName="tildecomb" x="261" y="-5" flags="0x4"/>
    </TTGlyph>
    <TTGlyph name="p" xMin="6" yMin="-202" xMax="583" yMax="500">
      <contour>
        <pt x="305" y="373" on="1"/>
        <pt x="294" y="373" on="0"/>
        <pt x="270" y="367" on="0"/>
        <pt x="257" y="361" on="1"/>
        <pt x="257" y="87" on="1"/>
        <pt x="277" y="82" on="0"/>
        <pt x="321" y="77" on="0"/>
        <pt x="343" y="78" on="1"/>
        <pt x="368" y="102" on="0"/>
        <pt x="399" y="187" on="0"/>
        <pt x="399" y="232" on="1"/>
        <pt x="399" y="286" on="0"/>
        <pt x="351" y="373" on="0"/>
      </contour>
      <contour>
        <pt x="20" y="-202" on="1"/>
        <pt x="18" y="-167" on="1"/>
        <pt x="33" y="-161" on="0"/>
        <pt x="67" y="-148" on="0"/>
        <pt x="84" y="-141" on="1"/>
        <pt x="84" y="399" on="1"/>
        <pt x="11" y="413" on="1"/>
        <pt x="6" y="461" on="1"/>
        <pt x="49" y="477" on="0"/>
        <pt x="152" y="497" on="0"/>
        <pt x="203" y="498" on="1"/>
        <pt x="203" y="498" on="1"/>
        <pt x="203" y="498" on="1"/>
        <pt x="204" y="498" on="1"/>
        <pt x="204" y="497" on="1"/>
        <pt x="257" y="450" on="1"/>
        <pt x="257" y="413" on="1"/>
        <pt x="362" y="491" on="1"/>
        <pt x="413" y="500" on="0"/>
        <pt x="496" y="468" on="0"/>
        <pt x="553" y="403" on="0"/>
        <pt x="583" y="311" on="0"/>
        <pt x="583" y="261" on="1"/>
        <pt x="583" y="210" on="0"/>
        <pt x="550" y="113" on="0"/>
        <pt x="486" y="39" on="0"/>
        <pt x="390" y="-6" on="0"/>
        <pt x="328" y="-6" on="1"/>
        <pt x="312" y="-6" on="0"/>
        <pt x="276" y="-3" on="0"/>
        <pt x="257" y="1" on="1"/>
        <pt x="257" y="-110" on="1"/>
        <pt x="282" y="-120" on="0"/>
        <pt x="330" y="-141" on="0"/>
        <pt x="352" y="-153" on="1"/>
        <pt x="350" y="-202" on="1"/>
      </contour>
    </TTGlyph>
    <TTGlyph name="paragraph" xMin="0" yMin="-166" xMax="667" yMax="695">
      <contour>
        <pt x="471" y="-166" on="1"/>
        <pt x="471" y="587" on="1"/>
        <pt x="397" y="591" on="1"/>
        <pt x="397" y="-166" on="1"/>
        <pt x="288" y="-166" on="1"/>
        <pt x="288" y="-165" on="1"/>
        <pt x="184" y="-165" on="1"/>
        <pt x="178" y="-123" on="1"/>
        <pt x="203" y="-112" on="0"/>
        <pt x="268" y="-93" on="0"/>
        <pt x="288" y="-89" on="1"/>
        <pt x="288" y="579" on="1"/>
        <pt x="239" y="560" on="0"/>
        <pt x="180" y="477" on="0"/>
        <pt x="180" y="417" on="1"/>
        <pt x="180" y="383" on="0"/>
        <pt x="200" y="321" on="0"/>
        <pt x="219" y="290" on="1"/>
        <pt x="181" y="253" on="1"/>
        <pt x="97" y="278" on="0"/>
        <pt x="0" y="403" on="0"/>
        <pt x="0" y="473" on="1"/>
        <pt x="0" y="515" on="0"/>
        <pt x="38" y="598" on="0"/>
        <pt x="117" y="660" on="0"/>
        <pt x="241" y="695" on="0"/>
        <pt x="326" y="690" on="1"/>
        <pt x="667" y="646" on="1"/>
        <pt x="660" y="577" on="1"/>
        <pt x="580" y="581" on="1"/>
        <pt x="580" y="-104" on="1"/>
        <pt x="663" y="-114" on="1"/>
        <pt x="662" y="-165" on="1"/>
        <pt x="580" y="-165" on="1"/>
        <pt x="580" y="-166" on="1"/>
      </contour>
    </TTGlyph>
    <TTGlyph name="parenleft" xMin="31" yMin="-155" xMax="322" yMax="732">
      <contour>
        <pt x="319" y="-98" on="1"/>
        <pt x="217" y="-155" on="1"/>
        <pt x="130" y="-51" on="0"/>
        <pt x="31" y="179" on="0"/>
        <pt x="31" y="303" on="1"/>
        <pt x="31" y="415" on="0"/>
        <pt x="123" y="631" on="0"/>
        <pt x="222" y="732" on="1"/>
        <pt x="322" y="676" on="1"/>
        <pt x="264" y="582" on="0"/>
        <pt x="206" y="398" on="0"/>
        <pt x="206" y="307" on="1"/>
        <pt x="206" y="206" on="0"/>
        <pt x="268" y="4" on="0"/>
      </contour>
    </TTGlyph>
    <TTGlyph name="parenright" xMin="36" yMin="-155" xMax="327" yMax="732">
      <contour>
        <pt x="327" y="303" on="1"/>
        <pt x="327" y="179" on="0"/>
        <pt x="228" y="-51" on="0"/>
        <pt x="141" y="-155" on="1"/>
        <pt x="39" y="-98" on="1"/>
        <pt x="90" y="4" on="0"/>
        <pt x="152" y="206" on="0"/>
        <pt x="152" y="307" on="1"/>
        <pt x="152" y="398" on="0"/>
        <pt x="94" y="582" on="0"/>
        <pt x="36" y="676" on="1"/>
        <pt x="136" y="732" on="1"/>
        <pt x="235" y="631" on="0"/>
        <pt x="327" y="415" on="0"/>
      </contour>
    </TTGlyph>
    <TTGlyph name="partialdiff" xMin="55" yMin="-33" xMax="556" yMax="761">
      <contour>
        <pt x="296" y="-33" on="1"/>
        <pt x="186" y="-33" on="0"/>
        <pt x="55" y="108" on="0"/>
        <pt x="55" y="212" on="1"/>
        <pt x="55" y="265" on="0"/>
        <pt x="91" y="361" on="0"/>
        <pt x="153" y="432" on="0"/>
        <pt x="236" y="474" on="0"/>
        <pt x="282" y="474" on="1"/>
        <pt x="382" y="430" on="1"/>
        <pt x="360" y="517" on="0"/>
        <pt x="249" y="655" on="0"/>
        <pt x="166" y="684" on="1"/>
        <pt x="201" y="761" on="1"/>
        <pt x="295" y="732" on="0"/>
        <pt x="431" y="632" on="0"/>
        <pt x="516" y="507" on="0"/>
        <pt x="556" y="363" on="0"/>
        <pt x="556" y="290" on="1"/>
        <pt x="556" y="142" on="0"/>
        <pt x="409" y="-33" on="0"/>
      </contour>
      <contour>
        <pt x="298" y="60" on="1"/>
        <pt x="346" y="93" on="0"/>
        <pt x="396" y="234" on="0"/>
        <pt x="396" y="314" on="1"/>
        <pt x="396" y="327" on="0"/>
        <pt x="394" y="354" on="0"/>
        <pt x="393" y="367" on="1"/>
        <pt x="350" y="367" on="0"/>
        <pt x="284" y="337" on="0"/>
        <pt x="241" y="287" on="0"/>
        <pt x="217" y="224" on="0"/>
        <pt x="216" y="192" on="1"/>
        <pt x="215" y="144" on="0"/>
        <pt x="254" y="66" on="0"/>
      </contour>
    </TTGlyph>
    <TTGlyph name="percent" xMin="42" yMin="-30" xMax="788" yMax="607">
      <contour>
        <pt x="206" y="265" on="1"/>
        <pt x="140" y="265" on="0"/>
        <pt x="42" y="364" on="0"/>
        <pt x="42" y="433" on="1"/>
        <pt x="42" y="502" on="0"/>
        <pt x="135" y="607" on="0"/>
        <pt x="201" y="607" on="1"/>
        <pt x="267" y="607" on="0"/>
        <pt x="361" y="502" on="0"/>
        <pt x="361" y="431" on="1"/>
        <pt x="361" y="363" on="0"/>
        <pt x="273" y="265" on="0"/>
      </contour>
      <contour>
        <pt x="216" y="-30" on="1"/>
        <pt x="144" y="29" on="1"/>
        <pt x="600" y="602" on="1"/>
        <pt x="671" y="544" on="1"/>
      </contour>
      <contour>
        <pt x="144" y="435" on="1"/>
        <pt x="144" y="401" on="0"/>
        <pt x="183" y="347" on="0"/>
        <pt x="225" y="354" on="1"/>
        <pt x="240" y="367" on="0"/>
        <pt x="255" y="411" on="0"/>
        <pt x="255" y="433" on="1"/>
        <pt x="255" y="470" on="0"/>
        <pt x="214" y="525" on="0"/>
        <pt x="171" y="512" on="1"/>
        <pt x="158" y="498" on="0"/>
        <pt x="144" y="456" on="0"/>
      </contour>
      <contour>
        <pt x="633" y="-20" on="1"/>
        <pt x="567" y="-20" on="0"/>
        <pt x="469" y="78" on="0"/>
        <pt x="469" y="149" on="1"/>
        <pt x="469" y="217" on="0"/>
        <pt x="562" y="321" on="0"/>
        <pt x="628" y="321" on="1"/>
        <pt x="694" y="321" on="0"/>
        <pt x="788" y="217" on="0"/>
        <pt x="788" y="147" on="1"/>
        <pt x="788" y="79" on="0"/>
        <pt x="700" y="-20" on="0"/>
      </contour>
      <contour>
        <pt x="572" y="150" on="1"/>
        <pt x="572" y="116" on="0"/>
        <pt x="611" y="63" on="0"/>
        <pt x="653" y="69" on="1"/>
        <pt x="668" y="82" on="0"/>
        <pt x="683" y="126" on="0"/>
        <pt x="683" y="148" on="1"/>
        <pt x="683" y="185" on="0"/>
        <pt x="642" y="240" on="0"/>
        <pt x="599" y="227" on="1"/>
        <pt x="586" y="212" on="0"/>
        <pt x="572" y="172" on="0"/>
      </contour>
    </TTGlyph>
    <TTGlyph name="period" xMin="96" yMin="-42" xMax="290" yMax="151">
      <contour>
        <pt x="290" y="66" on="1"/>
        <pt x="279" y="37" on="0"/>
        <pt x="231" y="-25" on="0"/>
        <pt x="206" y="-42" on="1"/>
        <pt x="180" y="-32" on="0"/>
        <pt x="113" y="19" on="0"/>
        <pt x="96" y="43" on="1"/>
        <pt x="112" y="75" on="0"/>
        <pt x="160" y="137" on="0"/>
        <pt x="185" y="151" on="1"/>
        <pt x="214" y="139" on="0"/>
        <pt x="274" y="87" on="0"/>
      </contour>
    </TTGlyph>
    <TTGlyph name="period.deva" xMin="96" yMin="-42" xMax="290" yMax="151">
      <contour>
        <pt x="290" y="66" on="1"/>
        <pt x="279" y="37" on="0"/>
        <pt x="231" y="-25" on="0"/>
        <pt x="206" y="-42" on="1"/>
        <pt x="180" y="-32" on="0"/>
        <pt x="113" y="19" on="0"/>
        <pt x="96" y="43" on="1"/>
        <pt x="112" y="75" on="0"/>
        <pt x="160" y="137" on="0"/>
        <pt x="185" y="151" on="1"/>
        <pt x="214" y="139" on="0"/>
        <pt x="274" y="87" on="0"/>
      </contour>
    </TTGlyph>
    <TTGlyph name="periodcentered" xMin="30" yMin="182" xMax="224" yMax="375">
      <contour>
        <pt x="224" y="290" on="1"/>
        <pt x="213" y="261" on="0"/>
        <pt x="165" y="199" on="0"/>
        <pt x="140" y="182" on="1"/>
        <pt x="114" y="192" on="0"/>
        <pt x="47" y="243" on="0"/>
        <pt x="30" y="267" on="1"/>
        <pt x="46" y="299" on="0"/>
        <pt x="94" y="361" on="0"/>
        <pt x="119" y="375" on="1"/>
        <pt x="148" y="363" on="0"/>
        <pt x="208" y="311" on="0"/>
      </contour>
    </TTGlyph>
    <TTGlyph name="perthousand" xMin="42" yMin="-38" xMax="1152" yMax="607">
      <contour>
        <pt x="205" y="265" on="1"/>
        <pt x="139" y="265" on="0"/>
        <pt x="42" y="364" on="0"/>
        <pt x="42" y="435" on="1"/>
        <pt x="42" y="501" on="0"/>
        <pt x="134" y="607" on="0"/>
        <pt x="200" y="607" on="1"/>
        <pt x="267" y="607" on="0"/>
        <pt x="361" y="501" on="0"/>
        <pt x="361" y="435" on="1"/>
        <pt x="361" y="363" on="0"/>
        <pt x="273" y="265" on="0"/>
      </contour>
      <contour>
        <pt x="232" y="-38" on="1"/>
        <pt x="163" y="17" on="1"/>
        <pt x="571" y="591" on="1"/>
        <pt x="641" y="538" on="1"/>
      </contour>
      <contour>
        <pt x="214" y="353" on="1"/>
        <pt x="219" y="353" on="0"/>
        <pt x="229" y="354" on="0"/>
        <pt x="233" y="355" on="1"/>
        <pt x="247" y="370" on="0"/>
        <pt x="257" y="407" on="0"/>
        <pt x="257" y="423" on="1"/>
        <pt x="257" y="460" on="0"/>
        <pt x="219" y="515" on="0"/>
        <pt x="189" y="515" on="1"/>
        <pt x="184" y="515" on="0"/>
        <pt x="172" y="512" on="0"/>
        <pt x="165" y="510" on="1"/>
        <pt x="155" y="497" on="0"/>
        <pt x="144" y="465" on="0"/>
        <pt x="144" y="448" on="1"/>
        <pt x="144" y="417" on="0"/>
        <pt x="178" y="353" on="0"/>
      </contour>
      <contour>
        <pt x="996" y="-23" on="1"/>
        <pt x="930" y="-23" on="0"/>
        <pt x="833" y="76" on="0"/>
        <pt x="833" y="147" on="1"/>
        <pt x="833" y="213" on="0"/>
        <pt x="925" y="319" on="0"/>
        <pt x="991" y="319" on="1"/>
        <pt x="1058" y="319" on="0"/>
        <pt x="1152" y="213" on="0"/>
        <pt x="1152" y="147" on="1"/>
        <pt x="1152" y="75" on="0"/>
        <pt x="1064" y="-23" on="0"/>
      </contour>
      <contour>
        <pt x="632" y="-23" on="1"/>
        <pt x="566" y="-23" on="0"/>
        <pt x="469" y="76" on="0"/>
        <pt x="469" y="147" on="1"/>
        <pt x="469" y="213" on="0"/>
        <pt x="561" y="319" on="0"/>
        <pt x="627" y="319" on="1"/>
        <pt x="694" y="319" on="0"/>
        <pt x="788" y="213" on="0"/>
        <pt x="788" y="147" on="1"/>
        <pt x="788" y="75" on="0"/>
        <pt x="700" y="-23" on="0"/>
      </contour>
      <contour>
        <pt x="1007" y="65" on="1"/>
        <pt x="1011" y="65" on="0"/>
        <pt x="1020" y="66" on="0"/>
        <pt x="1024" y="67" on="1"/>
        <pt x="1038" y="82" on="0"/>
        <pt x="1048" y="119" on="0"/>
        <pt x="1048" y="135" on="1"/>
        <pt x="1048" y="169" on="0"/>
        <pt x="1011" y="228" on="0"/>
        <pt x="980" y="228" on="1"/>
        <pt x="975" y="228" on="0"/>
        <pt x="963" y="225" on="0"/>
        <pt x="956" y="222" on="1"/>
        <pt x="944" y="208" on="0"/>
        <pt x="935" y="172" on="0"/>
        <pt x="935" y="158" on="1"/>
        <pt x="935" y="124" on="0"/>
        <pt x="973" y="65" on="0"/>
      </contour>
      <contour>
        <pt x="643" y="65" on="1"/>
        <pt x="647" y="65" on="0"/>
        <pt x="656" y="66" on="0"/>
        <pt x="660" y="67" on="1"/>
        <pt x="674" y="82" on="0"/>
        <pt x="684" y="118" on="0"/>
        <pt x="684" y="135" on="1"/>
        <pt x="684" y="169" on="0"/>
        <pt x="647" y="228" on="0"/>
        <pt x="616" y="228" on="1"/>
        <pt x="611" y="228" on="0"/>
        <pt x="599" y="225" on="0"/>
        <pt x="592" y="222" on="1"/>
        <pt x="580" y="208" on="0"/>
        <pt x="571" y="173" on="0"/>
        <pt x="571" y="158" on="1"/>
        <pt x="571" y="124" on="0"/>
        <pt x="609" y="65" on="0"/>
      </contour>
    </TTGlyph>
    <TTGlyph name="pi" xMin="30" yMin="-18" xMax="748" yMax="473">
      <contour>
        <pt x="378" y="231" on="1"/>
        <pt x="375" y="124" on="0"/>
        <pt x="313" y="-18" on="0"/>
        <pt x="209" y="-18" on="1"/>
        <pt x="178" y="-18" on="0"/>
        <pt x="90" y="-2" on="0"/>
        <pt x="42" y="17" on="1"/>
        <pt x="93" y="143" on="1"/>
        <pt x="115" y="123" on="0"/>
        <pt x="166" y="82" on="0"/>
        <pt x="191" y="63" on="1"/>
        <pt x="200" y="78" on="0"/>
        <pt x="206" y="155" on="0"/>
        <pt x="207" y="194" on="1"/>
        <pt x="214" y="382" on="1"/>
        <pt x="161" y="385" on="1"/>
        <pt x="66" y="320" on="1"/>
        <pt x="30" y="374" on="1"/>
        <pt x="49" y="399" on="0"/>
        <pt x="130" y="465" on="0"/>
        <pt x="159" y="473" on="1"/>
        <pt x="744" y="473" on="1"/>
        <pt x="748" y="383" on="1"/>
        <pt x="709" y="354" on="1"/>
        <pt x="621" y="359" on="1"/>
        <pt x="653" y="0" on="1"/>
        <pt x="525" y="-2" on="1"/>
        <pt x="473" y="33" on="1"/>
        <pt x="470" y="368" on="1"/>
        <pt x="383" y="372" on="1"/>
      </contour>
    </TTGlyph>
    <TTGlyph name="plus" xMin="54" yMin="24" xMax="516" yMax="491">
      <contour>
        <pt x="338" y="306" on="1"/>
        <pt x="516" y="306" on="1"/>
        <pt x="516" y="207" on="1"/>
        <pt x="338" y="207" on="1"/>
        <pt x="338" y="24" on="1"/>
        <pt x="231" y="24" on="1"/>
        <pt x="231" y="207" on="1"/>
        <pt x="54" y="207" on="1"/>
        <pt x="54" y="306" on="1"/>
        <pt x="231" y="306" on="1"/>
        <pt x="231" y="491" on="1"/>
        <pt x="338" y="491" on="1"/>
      </contour>
    </TTGlyph>
    <TTGlyph name="plusminus" xMin="54" yMin="0" xMax="500" yMax="610">
      <contour>
        <pt x="330" y="434" on="1"/>
        <pt x="500" y="434" on="1"/>
        <pt x="500" y="337" on="1"/>
        <pt x="330" y="337" on="1"/>
        <pt x="330" y="160" on="1"/>
        <pt x="223" y="160" on="1"/>
        <pt x="223" y="337" on="1"/>
        <pt x="54" y="337" on="1"/>
        <pt x="54" y="434" on="1"/>
        <pt x="223" y="434" on="1"/>
        <pt x="223" y="610" on="1"/>
        <pt x="330" y="610" on="1"/>
      </contour>
      <contour>
        <pt x="56" y="97" on="1"/>
        <pt x="495" y="97" on="1"/>
        <pt x="495" y="0" on="1"/>
        <pt x="56" y="0" on="1"/>
      </contour>
    </TTGlyph>
</ttFont>
